<svg width="1316" height="753" fill="none" xmlns="http://www.w3.org/2000/svg"><g opacity=".5"><path d="M688.441 443.785a3.73 3.73 0 0 0-.287 1.83c.204 2.073 2.075 3.525 3.877 4.57 7.769 4.547 17.008 6.549 25.967 5.627 1.515-.154 3.12-.442 4.215-1.495 2.024-1.948 1.234-5.34-.14-7.79a17.484 17.484 0 0 0-2.062-2.935c-6.752-7.837-19.652-9.013-28.37-3.304-1.333.897-2.64 2.073-3.2 3.497ZM811.22 163.397c-2.592 2.322-3.626 5.979-6.134 8.424-4.206 4.119-11.094 3.531-16.687 1.674-3.516-1.159-7.186-3.145-9.543-5.878-1.556-1.806-2.549-3.931-2.547-6.369-.032-5.328 4.64-9.39 9.041-12.378 6.299-4.286 13.076-8.14 20.542-9.718 2.989-.613 6.615-.91 10.164-.59 3.918.364 7.742 1.508 10.473 3.825 4.332 3.66 4.318 11.014-.353 14.685-4.324 3.355-10.887 2.682-14.956 6.325Zm14.531 361.812c9.37-4.493 22.819 7.635 29.714 14.254.451.437.87.837 1.259 1.214 1.553 1.497 3.125 3.22 3.381 5.379.118.953-.098 2.033-.849 2.648-.666.55-1.599.624-2.47.663-12.565.381-25.146-5.632-32.713-15.673-.64-.828-1.249-1.727-1.483-2.745a3.894 3.894 0 0 1-.062-1.527c.242-1.77 1.554-3.405 3.223-4.213ZM266.96-144.429c-4.653 2.04-10.104.729-14.689-1.442-.39-.188-.794-.389-1.171-.579-13.379-6.913-23.697-22.057-33.996-32.652-3.514-3.596-7.119-7.369-8.717-12.131-1.599-4.763-.555-10.804 3.729-13.466 3.108-1.909 7.053-1.643 10.645-1.006 8.84 1.545 17.312 4.932 24.865 9.764 9.043 5.772 16.764 13.597 22.213 22.839 2.775 4.695 5.017 9.921 4.957 15.369-.033 5.445-2.851 11.124-7.836 13.304Zm344.965 427.957c-2.638.712-5.47.213-8.037-.713-5.598-1.991-10.451-6.01-13.497-11.112-.337-.586-.664-1.201-.608-1.868.002-.082.018-.164.035-.234.166-.656.685-1.198 1.229-1.65 4.592-3.863 14.56-6.068 19.988-2.667 1.606.991 3.073 2.647 4.145 4.56 2.906 5.054 3.208 11.96-3.255 13.684Zm-120.124 32.308c.574-.241 1.14-.44 1.722-.614 4.652-1.367 9.753-.829 14.644-.263 1.094.119 2.204.249 3.218.662 1.027.411 1.943 1.093 2.831 1.765 3.758 2.823 11.737 9.293 8.262 13.824-.743.964-1.995 1.863-3.944 2.589-2.062.782-4.333.838-6.534.71a42.637 42.637 0 0 1-14.583-3.516c-3.759-1.651-7.526-4.15-8.855-8.033-.61-1.788-.585-3.959.654-5.436.675-.779 1.63-1.288 2.585-1.688Zm-97.807-174.525c-1.665.336-3.395.009-5.026-.481-4.625-1.384-18.171-8.53-14.434-15.668.286-.564.765-1.007 1.304-1.297a4.711 4.711 0 0 1 2.372-.595c1.444.017 2.852.55 4.192 1.08 5.247 2.079 10.794 4.387 14.03 9.004 1.005 1.424 1.758 3.179 1.298 4.831a2.969 2.969 0 0 1-.48 1.022c-.712 1.094-1.944 1.843-3.256 2.104Zm-79.242 74.65c6.287-4.958 29.054.234 26.082 10.189-.018.07-.025.111-.056.183-.837 2.539-3.426 4.201-6.042 4.681-2.645.472-5.343-.033-7.946-.631-3.048-.698-6.131-1.554-8.716-3.299-2.601-1.756-4.655-4.544-4.788-7.663-.053-.976.125-2.037.775-2.799a3.72 3.72 0 0 1 .691-.661Zm677.679 305.75c-2.146-.903-11.683-5.853-9.088-8.257.49-.457 1.449-.832 2.995-1.058 6.674-.971 14.062.68 19.512 4.724 1.53 1.136 2.82 2.722 3.34 4.253.67 1.982.03 3.888-3.12 4.67-3.87.963-10.221-2.903-13.639-4.332Zm69.219 16.687c-13.44.758-27.1-2.131-38.97-8.512-.4-.213-.81-.44-1.1-.803a1.478 1.478 0 0 1-.34-.857c-.11-1.021.66-2.177 1.68-2.587 1.33-.546 2.83-.254 4.23.025 17.84 3.378 36.14-.324 54.23-2.042 6.86-.661 14.06-.964 20.34 1.889.36.166.72.358 1.08.566 1.13.679 2.12 1.62 2.3 2.902.44 3.143-3.82 4.51-6.99 4.663-12.12.602-24.25 4.06-36.46 4.756Zm90.4-88.934c-6.02-.143-10.02 2.225-15.27 4.683-8.47 3.952-19.18 5.371-27.96 1.636-4.85-2.067-10.92-5.029-9.03-9.693.19-.47.48-.98.85-1.49.32-.434.71-.892 1.17-1.373 7.46-7.555 23.42-8.833 33.43-9.846 9.32-.944 19.42-.421 27.78 3.276 3.68 1.609 7.02 3.843 9.83 6.837.96 1.025 1.89 2.46 1.32 3.736-2.82 6.447-17.21 2.353-22.12 2.234ZM30.465-194.889c-.645 2.661.875 6.37 3.048 8.051 10.232 7.951 20.466 15.916 30.388 24.26 10.88 9.128 21.687 19.101 27.46 32.069 4.02 9.048 5.34 19.046 8.568 28.404 3.346 9.733 8.796 16.915 17.775 21.928 9.314 5.197 18.103 10.196 25.102 18.551 2.321 2.765 4.464 5.904 4.915 9.477.362 2.926-.461 5.867-1.271 8.698-1.606 5.674-5.149 20.986-12.568 21.145-2.325.05-4.545-.897-6.637-1.902-5.604-2.717-10.97-6.154-17.045-7.5-6.074-1.333-13.32-.014-16.832 5.128-3.758 5.512-1.909 13.081 1.196 18.996 2.484 4.735 5.656 9.08 9.272 13.026 2.221 2.428 4.796 5.278 4.244 8.518-.538 3.145-3.734 4.998-5.663 7.538-2.232 2.987-2.708 6.876-3.006 10.593-.281 3.54-.486 7.15.353 10.602 2.13 8.635 11.913 13.901 18.852 18.495 2.863 1.895 5.899 3.686 9.269 4.273 3.219.568 6.521-.021 9.739.439 4.619.657 8.644 3.363 12.29 6.254 10.967 8.686 20.251 19.838 32.819 26.35 5.921 3.064 12.912 4.891 19.355 6.55 6.791 1.746 13.993 2.264 20.784.186 1.901-.585 3.809-1.413 5.098-2.923 2.159-2.532 2.015-6.323 1.09-9.521-2.217-7.694-7.963-13.798-12.372-20.477-1.401-2.15-2.712-4.434-3.114-6.964-.389-2.532.328-5.363 2.347-6.947 3.348-2.615 8.187-.748 11.84 1.402 19.691 11.552 35.201 29.267 47.048 48.765 3.435 5.668 6.651 11.608 7.856 18.121 1.428 7.546 1.359 17.628-2.062 24.615-.894 1.833-2.025 3.604-2.329 5.612-.859 5.517 4.51 10.152 5.109 15.685.237 2.121-.252 4.249.012 6.367.468 3.598 3.03 6.545 5.666 9.05a74.108 74.108 0 0 0 16.458 11.862c2.183 1.168 4.526 2.233 6.978 2.219 3.758-.019 6.678-1.43 10.43-.411 3.779 1.016 7.246 3.192 11.12 3.912 1.216.223 2.542.256 3.552-.435 1.282-.876 1.607-2.631 1.581-4.189-.093-4.7-2.408-9.081-3.087-13.728-.441-2.915.166-6.54 2.896-7.669 2.216-.937 4.699.256 6.798 1.408 7.507 4.112 15.325 8.518 19.827 15.776.382.62.741 1.271.788 2.005.047.734-.229 1.472-.274 2.219-.102 2.303 1.78 3.243 3.067 4.763 1.094 1.29 1.931 2.966 2.462 4.576 1.136 3.452.998 7.645-1.778 10.303-1.919 1.825-4.614 2.519-6.983 3.72-7.2 3.615-11.171 13.56-6.815 20.34 1.68 2.61 4.267 4.463 6.805 6.255 11.005 7.791 23.163 15.922 36.629 15.135 4.947-.29 9.754-1.799 14.694-2.344 5.909-.65 11.874.092 17.762.952 2.395.357 4.844.721 7.254.309 2.397-.411 4.776-1.734 5.795-3.934.521-1.109.67-2.381 1.28-3.435 1.569-2.706 5.361-2.972 8.475-2.579 8.575 1.097 16.791 4.775 23.283 10.426 2.634 2.291 5.02 4.938 6.44 8.109 1.436 3.196 1.847 6.775 3.322 9.952 3.441 7.377 10.576 7.702 16.76 11.215 4.914 2.798 10.973 4.416 16.227 2.334.296-.108.574-.241.864-.388 2.949-1.389 5.41-3.693 8.395-5.019 5.677-2.531 12.963-.813 16.9 3.992 3.093 3.776 4.044 8.829 5.942 13.321 1.143 2.725 2.651 5.264 4.146 7.805 1.619 2.754 4.013 3.205 6.051 5.376.599.631 1.201 1.289 1.541 2.091.339.801.356 1.809-.184 2.489-.312.379-.763.63-1.221.828-1.822.762-3.775.68-5.661.199-1.129-.276-2.196-.681-3.214-1.12-2.209-.976-4.583-2.063-6.993-1.651-.539.101-1.12.289-1.432.762-.191.282-.251.627-.298.97-.38 2.14-.738 4.438.154 6.415.436 1.018 1.174 1.872 1.87 2.719 3.804 4.728 5.195 10.529 9.102 15.122 4.535 5.342 11.141 8.487 17.761 10.754 12.436 4.269 25.862 6.53 35.89 15.641 12.971 11.789-10.583 8.322-14.221 15.689-1.445 2.919-.305 6.411 1.06 9.374 7.099 15.263 20.604 27.41 36.559 32.865 15.928 5.458 34.079 4.134 49.046-3.579 1.812-.936 3.68-2.054 4.604-3.864.497-.998.665-2.125 1.02-3.17 3.634-10.827 24.766-6.838 33.045-6.037 7.323.716 14.663 1.942 21.5 4.611 6.634 2.562 12.884 6.645 16.776 12.6 3.877 5.943 5.019 13.96 1.703 20.232-1.187 2.251-2.896 4.236-3.781 6.62-1.46 3.89-.493 8.375 1.593 11.98 4.756 8.22 11.169 16.534 18.72 22.337 8.138 6.246 17.31 11.489 27.422 13.263 2.93.526 15.813 3.253 15.204-2.359-.247-2.282-2.175-3.956-3.857-5.502a49.597 49.597 0 0 1-10.933-14.615c-.581-1.186-1.069-2.681-.253-3.708.483-.605 1.287-.837 2.037-.967 5.14-.855 10.313 1.383 14.658 4.259 13.159 8.748 21.111 22.857 31.763 34.157 10.602 11.226 29.294 23.159 45.13 22.947 5.559-.064 11.452-2.691 13.78-7.724.923-2.012 1.313-4.368 2.913-5.868 2.557-2.384 6.641-1.411 9.941-.248 11.658 4.106 23.179 8.581 34.701 13.07 11.024 4.301 22.63 9.008 29.801 18.417-2.978.692-4.064 4.759-2.755 7.515 1.337 2.765 4.192 4.406 6.97 5.693 17.164 7.955 37.994 7.151 56.454 5.085 4.32-.487 8.72-1.077 13-.306 5.19.93 9.8 3.77 14.5 6.194 18.95 9.822 41.16 13.287 62.22 9.691 6.28-1.065 15.42-3.035 18.51-9.466 1.21-2.537.87-6.03-1.44-7.665-.93-.64-2.05-.957-2.95-1.641-.89-.686-1.49-2.004-.84-2.915.42-.583 1.2-.785 1.91-.922 17.58-3.71 35.95-3.38 53.48.593 9.61 2.179 18.98 5.389 27.95 9.5 2.13.973 24.59 12.576 23.89 13.817 1.74-3.121 3.66-6.791 5.66-10.258 1.33-2.31 2.7-4.531 4.05-6.48-28.49-18.288-60.71-30.744-94.11-36.386-21.11-3.574-43.27-4.378-63.58 2.453-13.39 4.493-25.52 12.152-38.85 16.827-10.96 3.836-22.64 5.562-34.25 5.125-6.02-.223-11.84-1.173-17.72-2.343-2.07-.416-13.71-.095-12.44-3.448.2-.526.69-.902 1.16-1.183 3.01-1.841 6.73-1.841 10.14-2.727 3.4-.871 6.99-3.371 6.87-6.883-.13-3.926-4.6-6.032-8.35-7.226-31.029-9.805-62.887-18.083-91.452-33.68-11.294-6.163-22.158-13.516-34.501-17.111-2.232-.649-4.611-1.184-6.889-.696-2.279.489-4.437 2.24-4.699 4.551-.329 2.9 2.215 5.23 4.353 7.252a42.345 42.345 0 0 1 7.701 9.929c.355.624.699 1.358.483 2.047-.48 1.507-2.721 1.088-4.132.339-22.039-11.768-44.357-29.288-58.744-49.904-13.679-19.596-32.425-35.641-53.899-46.141.078-.024.125-.071.201-.108 12.779 4.02 25.367 7.541 36.583 15.68 5.091 3.407 10.032 7.279 15.889 9.099 9.322 2.893 19.463 1.162 28.979 3.611 9.541 2.431 18.635 6.419 28.422 8.386 1.278.269 2.81.435 3.701-.536 1.33-1.408.011-3.65-1.292-5.087 10.62-1.285 21.226-2.581 31.833-3.864 9.281-1.128 17.712-4.32 27.033-5.346 14.505-1.563 30.89 1.624 39.572 13.303a122.143 122.143 0 0 0-23.712 11.46c-1.514.949-3.114 2.058-3.581 3.764-.795 2.843 1.833 5.39 4.237 7.093 18.808 13.263 41.014 20.659 62.864 27.875 4.18 1.378 8.9 2.734 12.8.664 3.88-2.068 4.51-9.157.24-10.173 26.88 3.9 53.77 7.784 80.64 11.657 14.22 2.058 31.97 2.566 39.32-9.795 2.87-4.824 3.58-11.035 7.73-14.796 5.7-5.2 14.69-3.219 21.95-.595 38.45 13.929 75.86 37.871 116.56 33.797 1.98-.191 1.07-10.017-.5-18.822-1.09-6.273-2.53-12.04-3.48-13.432-4.51-6.611-14.15-8.718-21.17-11.537-25.25-10.196-51.92-16.117-79.17-17.002-15.6-.508-31.28.583-46.65 3.357-7.21 1.3-14.75 3.144-19.97 8.266-3.65 3.571-5.82 8.38-9.33 12.094-5.1 5.373-12.53 7.889-19.8 9.293-13.87 2.674-28.36 2-41.93-1.897-13.43-3.863-27.43-7.055-40.18-13.044-5.45-2.577-11.6-7.482-9.87-13.266 1.63-5.544 9.28-6.878 12.21-11.872 2.2-3.777 1.03-8.773-1.7-12.181-2.73-3.395-6.76-5.494-10.7-7.322-10.41-4.79-21.529-8.432-32.979-8.864-11.587-.454-22.007 3.47-33.258 4.68-9.998 1.105-20.774-2.665-30.277 1.846-1.216.571-2.45 1.401-2.77 2.697-.269 1.087.182 2.21.365 3.343.502 3.257-1.584 6.519-4.391 8.265-2.806 1.746-6.202 2.24-9.508 2.411-10.874.62-23.175-1.89-33.169-6.239-2.151-.943-4.283-2.037-6.614-2.322-2.331-.286-4.98.442-6.187 2.453-.585.942-.806 2.076-1.468 2.948-1.442 1.868-4.229 1.794-6.538 1.371-15.454-2.791-28.037-12.641-42.462-18.144-10.186-3.892-20.279-7.984-30.551-11.622-.324-.197-.659-.38-.98-.552a229.987 229.987 0 0 0-33.871-15.177c-15.243-5.378-32.647-9.017-47.175-1.93-.795.392-1.655.9-1.956 1.75-.522 1.499.964 2.897 1.299 4.453.448 2.079-1.406 4.085-3.477 4.612-3.476.895-6.449-.73-9.995.148-3.859.948-7.667 3.155-11.356 4.659-7.673 3.115-16.276 5.644-24.236 4.22a22.24 22.24 0 0 1-4.899-1.414c-2.261-.954-4.452-2.377-5.571-4.539-1.426-2.726-.853-6.103.507-8.862 1.371-2.774 4.186-6.716 6.683-8.554 2.804-2.055 6.983-2.737 8.347-5.954 1.091-2.56-.244-5.501-2.17-7.552-.079-.083-.171-.165-.25-.248-2.045-2.035-4.634-3.51-6.49-5.733-1.208-1.436-2.051-3.151-3.274-4.599-3.43-4.066-9.101-5.212-14.28-6.412-10.932-2.55-22.21-5.753-30.674-13.49-1.896-1.732-3.68-3.722-4.513-6.152-.159-.476-.355-.921-.54-1.38-.764-1.834-1.541-3.464-.911-5.449 1.116-3.453 6.048-3.269 9.507-2.129 12.271 4.049 23.301 11.232 35.504 15.478 12.192 4.263 26.829 5.132 37.083-2.741 1.489-1.134 2.882-2.47 4.609-3.246 9.841-4.504 23.417 5.708 30.684 11.509 2.891 2.296 5.877 5.682 4.768 9.187-.988 3.206-5.187 5.413-4.481 8.682.37 1.713 1.977 2.812 3.473 3.697 15.877 9.491 33.975 15.244 52.424 16.679 3.596.274 8.402-.562 8.786-4.143.175-1.761-.918-3.442-.824-5.205.258-4.694 8.453-6.858 12.17-7.274 13.003-1.505 26.916 1.16 37.034 9.451 5.335 4.396 9.676 11.259 7.885 17.941-.422 1.634-1.22 3.184-1.271 4.875-.06 1.718.654 3.384 1.583 4.845 2.886 4.423 7.809 7.194 12.929 8.55 5.103 1.332 8.901.029 13.975 1.539 14.876 4.378 30.951.014 45.076-6.372 5.721-2.604 11.426-5.623 15.612-10.279 4.197-4.67 6.682-11.3 4.962-17.338-.794-2.839-2.479-5.678-1.736-8.513.484-1.871 1.954-3.339 2.794-5.07 2.761-5.604-1.272-11.998-2.78-18.065-2.677-10.848 3.366-22.384 12.129-29.338 8.871-7.05 19.313-8.458 29.163-13.192 9.977-4.792 20.397-8.123 31.097-11.277 9.602-2.815 20.734-5.18 28.974.447 1.5 1.032 2.94 2.477 3.04 4.281.09 1.402-.66 2.703-1.44 3.888-4.27 6.538-9.95 12.18-13.42 19.174-3.48 6.995-4.2 16.25 1.13 21.967 2.1 2.23 4.89 3.664 7.66 4.926 21.79 9.823 44.67 6.26 68.22 2.174 21.14-3.659 42.54-8.851 60.47-20.606 4.12-2.707 8.1-5.826 10.76-9.95 2.68-4.138 3.89-9.461 2.18-14.073 16.73-4.925 37.15-9.065 52.27-17.851 12.76-7.396 26.23-14.982 37.94-24.119 4.1-3.203 8.43-7.622 7.53-12.737-.18-1.013-.54-2.026-.4-3.029.19-1.144 1.01-2.051 1.8-2.899 7.32-8.035 13.34-17.198 17.87-27.058 2.1-4.544 3.1-9.017 4.55-13.7 1.6-5.134 4.64-9.484 5.64-14.886.35-1.947.42-4.273-1.1-5.544-1.77-1.494-4.43-.617-6.57.243a96.4 96.4 0 0 1-23.19 6.19c-2.78.369-6.25.294-7.59-2.175-.51-.953-.57-2.089-.41-3.162.74-4.975 5.61-8.27 10.34-9.998 6.65-2.422 12.84-4.768 19.76-5.8 8.1-1.207 16.04-3.187 23.38-6.809 12.17-5.996 23.79-13.356 35.05-20.856 10.5-6.99 20.81-14.467 29.23-23.851 7.3-8.114 13.06-17.497 18.77-26.804 5.75-9.126 11.19-18.221 16.81-27.397-7.02-1.283-4.15-2.162-13.76 1.893-9.61 4.054-10.64-1.16-17.08 2.347-8.87 4.832-14.41 9.426-25.12 13.188-10.7 3.763-20.93-2.184-30.96 7.461-23.19 22.308-40.78 35.809-70.42 48.406-6.21 2.645-12.61 5.088-18.13 8.984-5.52 3.908-10.17 9.544-11.27 16.211-.38 2.383-.31 4.877-1.18 7.152-2.31 6.067-8.05 6.546-13.06 8.783-5.45 2.405-9.95 7.684-12.85 12.781-1.1 1.942-2.02 4.035-2.22 6.243-.47 5.357 3.63 10.34 8.63 12.346 4.99 2.02 10.64 1.634 15.92.599 8.22-1.601 16-3.708 24.45-2.755 4.82.549 9.82 3.174 11.33 7.774 1.76 5.372-1.79 10.963-5.49 15.228-16.2 18.683-38.92 30.853-62.65 37.846-4 1.183-8.08 2.133-12.18 2.941-20.22 3.977-41.41 4.117-61.71 7.418-1.64.267-3.79.279-4.44-1.247-.48-1.106.2-2.37.96-3.297 3.21-3.847 8.21-5.612 12.95-7.219 4.79-1.628 9.58-3.243 14.37-4.858 6.93-2.339 11.69-6.36 16.21-12.138 6.45-8.279 9.69-18.999 8.89-29.445-.14-1.893-.45-3.87-1.61-5.353-2.01-2.564-5.71-2.823-8.97-2.86-2.4-.034-4.79-.055-7.19-.088-10.16-.058-20.34.21-30.31 2.106-11.12 2.12-22.13 7.512-33.29 10.177-2.53.604-5.12 1.176-7.72 1.574-5.08.779-10.2.917-15.07-.568-7.36-2.26-13.77-9.403-12.61-16.997 1.12-7.263 8.52-12.952 7.84-20.264-.77-8.041-13.61-17.721-20.85-19.028-6.8-1.219-13.71-1.051-20.432.25-12.368 2.401-24.159 8.6-33.811 16.834-2.63 2.247-2.914 2.044-5.892 3.813-1.794 1.068-4.302 1.749-6.9 1.878-3.889.238-7.998-.719-10.255-3.317-3.703-4.284-3.263-10.202-8.805-14.234-4.417-3.203-9.777-4.836-15.086-6.099-3.54-.846-6.911-3.399-10.424-4.734-3.652-1.369-7.598-2.618-10.091-5.843-2.86-3.647-2.903-8.959-.989-13.181 1.913-4.222 5.498-7.462 9.428-9.954 11.96-7.623 27.802-8.777 40.733-2.961 3.318 1.483 6.465 3.393 9.94 4.451 10.945 3.329 22.223-.43 33.059-1.812 17.225 18.045 36.715 2.709 56.775.45 6.87-.771 13.95.249 20.33 2.955 2.34.983 4.69 2.276 6.15 4.378 4.79 6.882-4.3 13.248-8.38 17.592-3.33 3.541-7.6 6.162-8.49 11.348-2.91 16.921 16.69 24.043 29.74 22.908 28.85-2.512 76.62-21.831 73.55-57.723-.27-3.073-1.01-6.095-.97-9.185.11-6.908 4.16-13.094 8.49-18.469 24.04-29.804 57.81-49.352 92.58-65.415 0 0-21.78-15.347-42.43-10.056-20.65 5.29-36.08 23.406-47.84 34.49-5.82 5.458-12.32 10.243-19.44 13.86-6.56 3.34-12.7 7.321-19.4 10.45-14.12 6.588-29.68 10.1-45.26 10.114-7.27-.011-14.69-.767-21.29-3.833-.04-.021-.07-.03-.1-.053-4.75-2.228-14.42-8.156-13.09-14.332.57-2.623 2.3-4.827 3.98-6.916 4.85-6.039 9.69-12.104 14.55-18.144 3.18-3.98 6.57-8.982 4.84-13.768-1.39-3.888-5.65-5.902-9.63-7.105a63.336 63.336 0 0 0-9.73-2.095c-12.31-1.648-25.08.149-36.95 4.03-8.48 2.767-17.581 7.721-19.593 16.427-.508 2.184-.513 4.5-1.359 6.582-1.377 3.421-4.843 5.662-8.447 6.507-.051.02-.106.015-.144.034-3.647.824-7.46.446-11.169.04-2.806-.314-5.715-.682-8.103-2.171-2.39-1.503-4.095-4.487-3.194-7.155.568-1.748 2.124-3.08 2.526-4.858.817-3.573-3.147-6.327-6.618-7.547-9.066-3.197-19.012-3.768-28.425-1.841-2.53.523-4.825 1.282-7.057 2.209-1.955.78-3.854 1.674-5.842 2.607-4.356 2.04-9.28 2.703-13.675 4.856-4.37 2.135-8.352 5.43-10.415 9.834-.3.66-.578 1.385-.425 2.105.146.774.765 1.349 1.374 1.858 6.526 5.404 15.619 6.147 24.093 6.409 8.474.262 17.457.4 24.607 4.952 1.227.787 2.472 1.801 2.815 3.222.532 2.202-1.262 4.253-3.054 5.63-5.501 4.204-11.896 7.103-17.466 11.302-5.543 4.195-11.207 8.69-18.166 10.132-14.762 3.026-30.024-8.759-44.451-4.379-4.311 1.293-8.095 3.968-11.336 7.066-6.105 5.794-10.52 13.295-12.847 21.371-2.348 8.119-1.126 16.905-4.135 24.832-3.067 8.084-3.574 17.242 4.84 22.454 11.769 7.269 25.381 12.252 39.345 12.244 11.985.009 22.941-5.699 31.963 6.001 2.556 3.298 4.206 7.258 4.801 11.391 1.663 11.903-5.798 23.418-15.135 31.004-10.985 8.929-23.754 13.902-37.967 15.237-15.422 1.46-31.024-3.289-46.37-1.179-15.891 2.171-29.759 11.402-43.612 19.474-13.853 8.071-29.413 15.394-45.299 13.188-2.458-.335-5.014-.98-6.744-2.775-2.625-2.723-2.274-6.838-1.181-10.65.291-1.023.625-2.025.97-2.948-4.419.311-8.15 1.511-12.539.956-5.626-.721-12.194-3.198-13.216-8.766-1.011-5.49 4.169-10.174 9.31-12.389 9.49-4.118 20.264-4.092 30.519-2.835 10.256 1.256 20.389 3.687 30.717 4.193 5.115.239 10.533-.062 14.876-2.786 4.328-2.736 7.074-8.553 4.834-13.174 6.227-1.381 13.202-2.811 18.741-5.956 3.514-1.991 7.004-4.544 8.483-8.302 2.208-5.609-1.065-12.255-6.114-15.547a13.52 13.52 0 0 0-1.058-.635c-4.865-2.738-10.755-3.221-16.374-3.014-9.76.386-19.861 2.905-27.069 9.498-3.866 3.547-6.695 8.07-10.182 12.023-3.721 4.215-8.206 4.831-13.846 5.082-1.206.057-6.655-.755-10.713-2.325-3.333-1.306-5.713-3.119-3.965-5.406.87-1.13 2.512-1.436 3.453-2.535 1.211-1.392.717-3.613-.564-4.985a3.15 3.15 0 0 0-.526-.494c-1.657-1.266-3.852-1.544-5.939-1.728-18.538-1.693-38.337-.493-53.952 9.666-4.196 2.717-8.187 6.336-9.479 11.159-1.199 4.514.216 9.409 2.736 13.331 2.523 3.935 6.083 7.081 9.594 10.167-1.748-.85-3.578-.532-5.504-.321-.41.057-.843.143-1.203.368-.682.43-.946 1.355-.846 2.176.124.805.524 1.557.918 2.271-5.242-2.053-10.737-3.197-16.307-3.899-5.595-.698-11.566.096-16.163 3.327-4.595 3.244-7.433 9.275-5.896 14.666 1.197 4.198 4.645 7.319 8.007 10.102 2.239 1.873 4.662 3.91 5.283 6.76.284 1.28.175 2.642-.206 3.893-1.421 4.962-6.49 8.19-11.588 8.958-7.67 1.176-16.943-.485-24.388-2.383-8.016-2.022-15.332-5.433-22.241-9.6-6.539-3.935-12.71-8.526-18.783-13.28-3.099-2.441-6.512-5.702-5.86-9.589.406-2.439 2.331-4.319 4.344-5.754 4.306-3.097 8.83-5.684 8.816-11.567-.009-2.813-.564-5.577-1.549-8.229-2.928-7.865-9.585-14.719-16.551-18.811-6.939-4.095-15.358-5.429-23.317-5.964-6.149-.407-12.907.145-17.459 4.298-2.334 2.139-3.85 5.135-4.241 8.272-.135.975-.16 1.974-.063 2.971.492 5.049 3.892 9.483 8.146 12.291 4.253 2.795 9.279 4.151 14.29 5.105 1.59.293 1.577 1.964 1.144 3.519-1.34 4.762-6.33 7.885-11.283 8.135-4.942.235-9.731-1.948-13.684-4.919-3.955-2.984-7.21-6.751-10.698-10.257-1.799-1.813-3.687-3.586-5.667-5.24-7.048-5.965-15.211-10.633-24.281-11.796-3.856-.494-7.783-.331-11.671.015-4.834.436-9.996 1.321-13.51 4.685-.942-.086-.413.232-.735 1.124-.322.893-.337 1.865-.657 2.77-1.108 3.317-5.36 4.252-8.844 4.111-5.638-.221-11.142-1.821-16.536-3.503-10.122-3.133-24.728-8.773-22.985-21.979.365-2.743 1.453-5.317 2.545-7.864.41-.945.886-1.993 1.819-2.458 1.411-.719 3.06.199 4.48.919a19.073 19.073 0 0 0 4.051 1.517c.686.188 1.418.317 2.086.077.795-.298 1.296-1.067 1.732-1.814.904-1.565 1.757-3.204 1.861-4.995.192-3.016-1.721-5.756-3.707-8.041a61.831 61.831 0 0 0-10.574-9.655c-2.799-2.025-5.83-3.871-7.846-6.677-2.014-2.78-2.728-6.896-.592-9.6 1.158-1.479 2.934-2.288 4.538-3.263 2.877-1.729 5.459-4.319 6.098-7.611.906-4.689-3.276-9.716-6.277-12.912-7.794-8.26-19.134-12.693-30.386-13.556a10.274 10.274 0 0 0-.557-.031c-3.738-.227-7.746.136-10.567 2.557-1.059.926-1.91 2.093-3.113 2.851-3.227 2.019-8.336.352-11.541-1.093-3.334-1.507-6.017-4.155-8.023-7.178-1.869-2.813-3.263-5.987-4.179-9.322a38.417 38.417 0 0 1-1.37-12.119c.106-2.169.464-4.372 1.468-6.288 1.028-1.932 2.803-3.536 4.946-3.925 2.815-.508 5.556 1.095 7.933 2.694 5.528 3.737 10.816 7.884 15.416 12.719.647.678 1.294 1.37 2.098 1.825 2.175 1.209 5.109.2 6.673-1.765 1.549-1.964 1.97-4.593 1.896-7.088-.201-6.759-3.585-13.039-7.584-18.495a77.355 77.355 0 0 0-24.174-21.412c-3.287-1.85-12.484-5.608-11.266-10.475.741-2.943 4.287-4.212 7.327-4.158 3.039.04 6.114.937 9.064.235 4.74-1.11 7.761-6.197 7.863-11.045.127-4.865-2.073-9.49-4.66-13.605-4.073-6.483-9.229-12.224-15.082-17.142-4.314-3.634-9.195-6.882-14.627-8.155a22.211 22.211 0 0 0-2.555-.443c-4.379-.475-9.493.955-11.343 4.953-2.706 5.906 4.595 14.206-.801 18.785-2.185 1.85-5.396 2.13-8.137 1.308-2.728-.824-5.077-2.615-7.165-4.563-.496-.47-.994-.954-1.48-1.453-4.481-4.648-7.877-10.43-9.004-16.764-1.245-6.993.553-14.7 5.497-19.823 1.333-1.381 2.921-2.582 4.752-3.184 1.848-.577 3.81-.524 5.726-.316 7.304.773 14.266 3.465 21.49 4.734 7.226 1.282 15.313.884 20.997-3.762 3.611-2.947 5.858-7.39 6.507-11.99 1.126-7.883-2.768-12.774-6.301-19.358-4.057-7.548-4.666-16.391-6.388-24.799-4.923-24.045-20.412-46.112-42.161-57.435a64.703 64.703 0 0 0-2.417-1.203c-4.788-2.277-10.641-3.964-15.173-1.24-2.081 1.242-3.567 3.277-4.745 5.392a31.71 31.71 0 0 0-3.993 13.017c-.448 5.273-2.924 9.72-9.035 9.389-4.154-.21-7.816-2.629-11.206-5.03l-2.602-1.865c-11.894-8.571-23.208-18.017-33.058-28.875-7.038-7.758-13.332-16.278-17.673-25.793-2.956-6.501-4.979-13.373-7.704-19.96-6.339-15.219-16.552-28.815-29.428-39.136-15.739-12.608-38.284-11.582-58.293-14.069-7.35-.915-15.102-1.506-21.875 1.485-5.31 2.36-9.46 6.687-13.451 10.898-.825.867-1.66 1.75-2.47 2.629-5.432 5.782-10.506 12.014-12.35 19.592ZM850.43 388.217c3.868-1.771 8.24-2.52 11.601-5.136 2.192-1.702 3.754-4.071 5.58-6.18 3.63-4.189 8.424-7.366 13.698-9.101 4.151-1.378 9.12-1.711 12.527 1.012 1.561 1.253 2.558 3.014 3.067 4.951.612 2.393.444 5.096-.377 7.457-5.016 14.303-25.2 21.13-38.789 22.891-2.832.376-5.789.54-8.513-.351-2.726-.905-5.182-3.085-5.652-5.915l-.002-.014c-.697-4.186 3.006-7.846 6.86-9.614Zm-175.058-83.035c16.986-6.751 36.271-3.842 53.636.692a144.098 144.098 0 0 0 36.392 4.679c6.375-.002 13.007-.496 18.574-3.631 4.191-2.367 7.455-6.074 11.267-9.035 15.762-12.226 35.705-9.433 54.213-8.84 19.63.614 39.551-4.993 55.904-15.859 1.878-1.241 3.719-2.558 5.815-3.398l-.057.277c-1.993 8.542-10.405 14.128-18.7 17.127-7.025 2.541-14.196 4.402-21.155 7.123-5.857 2.299-9.609 5.508-14.752 9.177-6.351 4.496-14.003 7.863-21.736 7.015-4.72-.51-9.26-2.551-14.01-2.289-2.65.135-5.2.998-7.676 1.917a170.451 170.451 0 0 0-15.671 6.611c-1.49.73-3.245 1.982-2.875 3.6.16.773.807 1.357 1.069 2.088.611 1.694-.832 3.454-2.337 4.469-6.512 4.409-15.13 3.494-22.871 2.188a411.872 411.872 0 0 1-27.861-5.676c-6.775-1.627-13.705-3.502-19.326-7.617-2.097-1.53-3.995-3.369-6.338-4.528-2.288-1.153-4.839-1.57-7.375-1.976-6.567-.995-13.928-2.676-20.589-2.299-4.857.264-8.818.97-13.586.602a37.275 37.275 0 0 1-2.148-.23c-.056-1.097 1.158-1.775 2.193-2.187ZM143.143-160.262c11.596 5.811 19.631 16.798 26.494 27.798 5.825 9.325 11.376 18.526 18.566 26.896 6.356 7.407 11.05 14.88 19.742 20.257 9.18 5.686 19.903 7.699 29.821 11.695 8.589 3.45 17.029 8.956 20.563 17.505 4.427 10.729-.101 23.187-6.954 32.558-2.225 3.04-4.733 5.97-5.914 9.539-2.626 7.86 1.791 16.167 6.043 23.27l15.165 25.304c.841 1.406 1.197 3.902-.437 4.073a44.035 44.035 0 0 0-1.504-2.016c-.013.002-.019-.037-.019-.037-5.335-6.847-12.263-12.331-18.902-17.976-7.296-6.2-14.51-12.884-18.661-21.51-4.161-8.598-4.687-19.58 1.039-27.248 1.423-1.906 3.198-3.604 4.152-5.782 2.773-12.19-7.646-15.712-16.439-21.236-1.461-.917-2.949-1.843-4.208-3.057-1.584-1.52-2.746-3.406-4.091-5.147-3.631-4.739-8.552-8.277-13.409-11.743-2.63-1.873-6.172-3.81-8.863-2.013-.594.392-1.12.976-1.827 1.127-.787.162-1.559-.257-2.248-.66-8.56-5.004-17.126-11.92-19.056-21.645-.48-2.506-.455-5.27.92-7.425 1.069-1.641 2.839-2.786 3.745-4.527 1.683-3.247-.169-7.113-1.978-10.271-6.784-11.792-13.571-23.61-20.353-35.389l-.004-.026c-.509-.765-.94-1.541-1.383-2.314Zm94.211 266.419c10.521-2.106 23.643 10.982 27.403 19.016 1.219 2.592 2.122 5.431 1.893 8.276-.14 2.026-.938 4.061-2.314 5.529a6.409 6.409 0 0 1-1.951 1.494c-3.405 1.707-7.644.189-10.473-2.344-2.841-2.531-4.723-5.922-7.122-8.864-2.724-3.342-6.107-6.081-9.781-8.296-1.982-1.182-4.153-2.365-5.126-4.439-1.163-2.479-.109-5.6 1.899-7.465 1.736-1.585 3.617-2.517 5.572-2.907ZM29.276-82.737c3.433.066 6.592 1.773 9.555 3.52.41.24.823.493 1.224.76a48.222 48.222 0 0 1 3.322 2.304c5.03 3.739 9.458 8.099 14.769 11.139 6.902 3.925 13.826 6.245 17.891 13.658 2.405 4.355 3.897 9.523 2.55 14.326-.3 1.065-.749 2.11-1.454 2.96a4.186 4.186 0 0 1-.517.556c-.947.858-2.177 1.323-3.413 1.547-4.096.697-8.146-1.21-11.813-3.17-16.175-8.629-32.194-20.134-38.879-37.191-.62-1.57-1.15-3.262-.895-4.94.504-3.395 4.227-5.536 7.66-5.47Zm936.421 464.304c-2.152-.552-4.295-1.335-5.987-2.758a8.004 8.004 0 0 1-1.644-1.861c-.73-1.193-1.134-2.564-.96-3.948.462-3.699 4.495-5.735 8.063-6.845 4.811-1.482 21.345-4.563 29.126-.907 2.607 1.217 4.242 3.201 4.125 6.273-.526 12.649-24.863 12.117-32.723 10.046Z" fill="url(#a)"/><path d="M1149.95 113.19c-9.04 9.715-12.98 22.176-24.88 29.266-1.35.807-3.38 1.759-4.41 2.978-1.67 1.967-4.8 6.289-5.59 8.701-.59 1.819-.73 3.738-.93 5.65-.65 6.285-3.58 11.712-8.96 15.2-4.46 2.888-9.75 4.37-14.85 5.744-7.71 2.07-16.83 6.854-24.44 1.717-7.34-4.957-.39-13.536 4.53-17.041 6.64-4.725 19.62-12.961 10.84-22.502-5.87-6.384-12.19-10.472-20.84-11.089-8.04-.577-16.76.244-24.27 3.324-7.99 3.267-12.39 7.509-21.92 4.589-6.5-1.988-12.41-5.742-19.026-7.311-8.189-1.918-16.738-.379-25.145.036-16.029.763-31.971-2.743-48.005-2.707-16.035.035-33.424 4.527-42.992 17.385-2.401 3.226-4.278 7.215-3.573 11.172.807 4.59 4.817 7.877 8.746 10.381 14.838 9.395 32.928 13.723 45.869 25.601 5.601 5.157 13.083 12.128 19.5 8.014.519-.341.98-.714 1.38-1.133-3.889.239-7.997-.719-10.255-3.317-3.702-4.286-3.262-10.206-8.804-14.239-4.417-3.204-9.776-4.838-15.085-6.101-3.54-.847-6.911-3.401-10.423-4.736-3.653-1.37-7.598-2.619-10.091-5.846-2.86-3.647-2.903-8.961-.99-13.184 1.913-4.223 5.498-7.463 9.428-9.957 11.958-7.624 27.798-8.778 40.729-2.959 3.317 1.484 6.464 3.394 9.939 4.452 10.944 3.331 22.221-.428 33.056-1.81 17.232 18.05 36.712 2.711 56.762.453 6.88-.771 13.96.249 20.33 2.956 2.35.984 4.7 2.278 6.16 4.38 4.78 6.884-4.3 13.251-8.38 17.597-3.33 3.542-7.6 6.163-8.49 11.35-2.91 16.925 16.69 24.05 29.74 22.916 28.85-2.511 76.61-21.833 73.54-57.735-.28-3.074-1.01-6.097-.97-9.188.1-6.91 4.16-13.097 8.49-18.474 24.03-29.81 57.8-49.362 92.56-65.428 0 0-14.01-3.036-23.02-1.798-9.01 1.239-11.57-3.58-20.3 2.79-8.72 6.37-10.8 8.091-18.34 15.782-8.83 9.012-14.1 19.622-24.67 26.72-7.79 5.192-15.57 10.558-21.95 17.401Zm-123.31-29.96c5.14-5.232 12.54-7.596 18.31-12.146 5.76-4.55 11.43-12.994 11.09-20.678-.1-2.384-1.14-4.154-2.66-5.533 3.29.449 6.54 1.147 9.73 2.096 3.97 1.205 8.22 3.22 9.64 7.107 1.72 4.8-1.65 9.79-4.85 13.771-4.84 6.04-9.69 12.107-14.54 18.149-1.68 2.09-3.41 4.307-3.98 6.918-1.34 6.177 8.33 12.107 13.09 14.336.03.022.04.021.07.043a114.55 114.55 0 0 1-28.04-5.546c-5.33-1.76-11.41-5.099-11.57-10.706-.07-2.94 1.63-5.693 3.71-7.81Zm-94.708-28.302c9.426-1.929 19.371-1.356 28.423 1.844 3.457 1.222 7.419 3.964 6.618 7.548-.402 1.78-1.958 3.112-2.526 4.86-.9 2.67.804 5.654 3.194 7.157 2.39 1.503 5.297 1.858 8.103 2.172 3.708.407 7.521.785 11.168-.04.051-.02.106-.014.144-.033-5.641 4.95-14.167 5.584-21.38 3.41-7.298-2.202-13.584-6.846-19.64-11.482-6.055-4.636-12.161-9.44-19.315-12.066-.667-.245-1.434-.625-1.844-1.16 2.231-.927 4.526-1.687 7.055-2.21Zm45.301 172.462c1.397-1.701 3.66-2.402 5.795-2.952a95.486 95.486 0 0 1 18.902-2.895c3.67-.194 7.49-.195 10.8-1.808 12.38-6.039 5.56-24.603-1.77-31.555-4.18-3.951-8.65-7.014-13.389-9.528 6.739-1.303 13.629-1.482 20.429-.249 7.24 1.308 20.1 11.002 20.85 19.034.68 7.314-6.72 13.005-7.83 20.27-1.17 7.608 5.24 14.754 12.6 17.002 4.87 1.485 9.99 1.348 15.07.568-4.71 2.035-10.09 3.178-15.19 2.882-6.11-.345-11.58-3.647-17.88-3.602-5.1.041-10.51 2.146-13.15 6.521-.94 1.571-1.51 3.374-2.73 4.74-2.41 2.729-6.58 2.898-10.196 2.385-6.453-.958-12.645-3.542-17.822-7.477-2.106-1.596-4.089-3.465-5.146-5.865-1.06-2.413-1.032-5.447.657-7.471Zm-199.292-59.813c4.164-.006 8.645 3.081 12.151.835 2.168-1.389 2.793-4.195 4.166-6.364 2.748-4.324 8.223-5.777 13.021-7.541 4.814-1.753 10.013-5.108 10.214-10.213.112-2.817-.967-4.487-2.461-5.75 3.918.364 7.741 1.509 10.473 3.827 4.331 3.661 4.318 11.016-.353 14.689-4.309 3.367-10.873 2.68-14.954 6.325-2.592 2.323-3.626 5.981-6.134 8.426-4.205 4.121-11.092 3.532-16.685 1.675-3.515-1.16-7.185-3.148-9.542-5.881.036-.032.077-.024.104-.028Zm263.679 127.302c4.93-4.287 10.43-6.996 16.46-9.333 5.01-1.956 11.42-3.712 14.34-8.652 1.85-3.123 1.98-6.979 3.41-10.342 2.29-5.338 7.6-8.789 13.04-10.831 5.45-2.041 11.27-2.976 16.66-5.105 5.48-2.153 10.55-2.123 16.46-2.424 3.28-.155 6.69-.354 9.54-1.985 1.99-1.135 3.53-2.882 4.91-4.715 1.92-2.554 3.59-5.518 3.57-8.72-.03-3.848-2.6-7.347-5.85-9.406-1.29-.833-2.68-1.45-4.14-1.963 2.41.02 4.79.042 7.2.088 3.25.038 6.95.297 8.97 2.862 1.17 1.482 1.47 3.461 1.61 5.355.8 10.462-2.44 21.171-8.89 29.452-4.52 5.78-9.28 9.788-16.21 12.141-4.79 1.615-9.58 3.23-14.37 4.858-4.75 1.61-9.75 3.375-12.94 7.221-.78.928-1.44 2.191-.97 3.297.66 1.527 2.79 1.517 4.45 1.248 20.29-3.314 41.48-3.454 61.69-7.417-1.28.836-2.67 1.512-4.08 2.083-4.36 1.798-9.03 2.723-13.66 3.642-11.71 2.31-23.6 4.645-35.5 3.844-3.5-.22-7.01-.72-10.51-.361-3.2.346-6.28 1.415-9.44 2.052-4.73.947-9.59.928-14.4 1.32-5.01.406-10.77 1.48-14.53 5.203-1.3 1.297-2.33 2.96-3.87 3.994-2.74 1.818-6.35 1.289-9.57.682-1.26-.244-2.56-.483-3.67-1.138-1.12-.655-2.03-1.782-2.07-3.07-.05-1.555 1.17-2.854 2.36-3.88Zm-464.634 36.493c3.452-4.798 10.547-4.561 16.371-3.571a202.03 202.03 0 0 1 34.016 8.901c9.171 3.278 20.78 6.733 27.478-.33 1.415-1.474 2.429-3.31 3.989-4.616 3.114-2.637 7.639-2.666 11.69-2.119 14.002 1.847 27.272 8.764 36.777 19.175 3.122 3.396 5.959 7.262 10.096 9.319 4.125 2.06 10.067 1.458 12.174-2.629 1.435-2.797.693-6.332 2.058-9.146 2.985-6.134 12.114-4.238 18.296-1.33 10.607 4.994 21.051 10.279 31.446 15.692 8.099 4.207 17.646 2.275 26.618 3.91 5.42.992 10.874 2.425 15.482 5.454 4.595 3.032 8.266 7.875 8.698 13.364.348 4.397-1.364 8.808-.791 13.174.629 4.668 3.87 8.734 7.94 11.084 4.083 2.348 8.911 3.152 13.621 3.098 5.815-.059 10.534-3.375 16.245-4.483a239.783 239.783 0 0 0 27.731-7.112c3.021-.968 6.206-2.119 8.149-4.649 2.003-2.592 2.261-6.103 2.432-9.372.306-5.618 1.385-13.161-2.537-17.672-1.971-2.275-4.513-4-7.246-5.254-2.072-.954-5.571-1.308-6.744-3.464-.596-1.103-.854-2.387-1.649-3.369-.827-1.018-2.111-1.528-3.376-1.906-5.595-1.682-11.659-1.374-17.343.027-1.877.46-3.775 1.071-5.233 2.322-.989.85-1.714 1.946-2.656 2.843-3.052 2.898-7.676 3.184-11.891 3.211-3.784.022-7.333-.299-11.024-.869-3.688-.557-7.417-1.499-11.127-1.918-3.04-.35-6.134.089-9.184-.232-2.161-.229-4.438-.912-6.096-2.381-1.58-1.399-1.398-3.701-3.482-4.545-1.042-.423-2.18-.468-3.307-.529-1.114-.062-2.275-.172-3.252-.711-.307-.174-.61-.415-.684-.755-.105-.47.292-.916.685-1.198 1.839-1.331 4.303-1.346 6.553-1.063 2.894.37 5.641 1.326 8.46 1.935 2.96.643 5.828 1.408 8.622 2.613 2.033.865 3.997 1.915 6.118 2.539 2.698.801 4.651.694 6.899-.8 2.171-1.457 4.728-2.172 6.576-4.123 3.295-3.483 8.612-4.618 12.876-6.834 3.751-1.93 8.105-4.967 7.493-9.125-.23-1.477-1.071-2.789-1.312-4.251-.334-2.136.657-4.239 1.749-6.099 9.656-16.238 28.115-19.812 44.651-25.709 12.478-4.436 25.216-9.918 38.818-7.653 5.96.999 11.581 3.459 17.516 4.569 3.611.676 7.485.816 11.054-.186 3.128-.875 4.951-3.105 7.692-4.344 6.826-3.093 17.449-3.099 24.729-2.308 5.79.645 12.22 2.994 14.2 8.445 2.19 5.989-1.85 11.931-3.42 17.522-1.5 5.284-4.53 10.078-5.75 15.376-.85 3.687-.12 8.058 2.95 10.263 3.5 2.509 8.71 1.415 12.13 4.042 1.11.859 1.91 2.027 2.96 2.961 1.78 1.561 4.14 2.247 6.41 2.809 14.06 3.374 28.88 2.684 43.05-.099 10.76-2.113 21.24-5.412 31.58-8.989 6.81-2.363 17.6-6.015 19.65-13.974 1.08-4.216-.66-8.786.46-12.981.96-3.673 3.99-6.527 7.39-8.234 3.41-1.707 7.2-2.444 10.91-3.265 23.88-5.262 45.84-15.729 68.71-23.897 4.87-1.733 10.52-4.248 11.44-9.344.46-2.528-.41-5.116-.16-7.67.56-5.18 5.44-8.573 9.21-12.188 6.66-6.357 13.62-16.607 14.6-25.967.33-3.279-.31-6.828-2.53-9.27-3.28-3.63-8.77-3.898-13.66-3.928-10.34-.072-20.68-.28-31.02-.624-1.55-.056-3.34-.24-4.24-1.532-.87-1.28-.36-3.034.37-4.414 5-9.59 21.1-8.167 23.45-19.427.81-3.977-1.02-8.385.78-12.027.81-1.606 2.23-2.812 3.66-3.91 7.1-5.476 15.22-9.461 23.28-13.37 13.75-6.711 27.48-13.407 41.22-20.131 8.75-4.275 17.54-8.567 25.52-14.123 7.57-5.282 14.31-11.637 21.02-17.947 11.55-10.894 21.81-22.172 32.51-25.48 8.12-2.511 12.96-4.826 19.98-3.543-5.62 9.178-11.06 18.263-16.69 27.456-5.71 9.309-11.47 18.694-18.77 26.81-8.43 9.375-18.73 16.851-29.22 23.856-11.26 7.501-22.88 14.863-35.05 20.859-7.36 3.625-15.29 5.605-23.38 6.81-6.93 1.034-13.11 3.378-19.75 5.801-4.74 1.728-9.61 5.024-10.34 10.001-.16 1.072-.1 2.209.41 3.162 1.33 2.457 4.81 2.545 7.59 2.176a96.293 96.293 0 0 0 23.18-6.19c2.14-.874 4.8-1.738 6.57-.244 1.52 1.273 1.45 3.599 1.1 5.546-1 5.417-4.04 9.755-5.64 14.89-1.44 4.684-2.45 9.159-4.54 13.703-4.52 9.861-10.55 19.041-17.87 27.065-.79.849-1.61 1.756-1.8 2.9-.15 1.003.22 2.017.4 3.029.89 5.117-3.43 9.537-7.54 12.74-11.69 9.137-25.17 16.727-37.92 24.124-15.14 8.789-35.55 12.928-52.27 17.853 1.71 4.613.5 9.938-2.18 14.078-2.66 4.137-6.64 7.257-10.76 9.951-17.93 11.758-39.32 16.948-60.46 20.609-23.55 4.073-46.43 7.649-68.22-2.178-2.77-1.262-5.56-2.697-7.66-4.927-5.32-5.706-4.6-14.977-1.13-21.974 3.47-6.996 9.15-12.639 13.42-19.178.76-1.183 1.51-2.485 1.44-3.89-.1-1.817-1.52-3.265-3.04-4.282-8.25-5.627-19.387-3.275-28.972-.448-10.7 3.154-21.119 6.486-31.095 11.278-9.848 4.735-20.289 6.143-29.159 13.194-8.764 6.943-14.806 18.481-12.127 29.346 1.509 6.069 5.555 12.462 2.781 18.07-.853 1.733-2.31 3.199-2.794 5.071-.742 2.836.944 5.688 1.737 8.516 1.707 6.041-.765 12.671-4.961 17.343-4.199 4.658-9.89 7.676-15.61 10.28-14.122 6.4-30.197 10.751-45.072 6.372-5.072-1.498-8.871-.208-13.974-1.541-5.117-1.343-10.042-4.128-12.929-8.553-.928-1.461-1.643-3.128-1.582-4.846.05-1.691.848-3.242 1.27-4.876 1.791-6.684-2.537-13.551-7.885-17.947-10.104-8.295-24.016-10.962-37.031-9.455-3.704.414-11.911 2.58-12.169 7.275-.096 1.751 1 3.446.824 5.207-.384 3.582-5.188 4.417-8.784 4.144-18.448-1.437-36.532-7.194-52.42-16.687-1.497-.885-3.104-1.984-3.474-3.698-.708-3.283 3.493-5.477 4.481-8.684 1.093-3.517-1.878-6.893-4.768-9.19-7.266-5.789-20.841-16.004-30.683-11.513-1.724.789-3.12 2.112-4.608 3.246-10.266 7.877-24.889 7.004-37.08 2.741-12.204-4.262-23.245-11.432-35.501-15.485-3.459-1.14-8.39-1.324-9.506 2.129-.63 1.986.147 3.616.911 5.451-3.64-2.355-6.853-5.24-9.224-8.955Zm254.93 51.76c1.216-2.43 2.856-3.046 5.502-3.706 3.581-.91 7.147-1.831 10.718-2.726 3.566-.921 7.199-1.852 10.327-3.804 2.607-1.624 4.723-3.882 7.096-5.837 10.058-8.306 24.792-10.547 36.878-5.582 3.37 1.382 7.697 4.423 9.83 7.39 1.567 2.182 2.402 4.922 2.067 7.581-.573 4.658-4.413 8.298-5.593 12.851.621-1.662-.119-3.513-.979-5.065-2.141-3.908-5.587-8.188-9.876-9.875a8.892 8.892 0 0 0-1.974-.537c-.509-1.937-1.506-3.699-3.067-4.952-3.407-2.724-8.388-2.389-12.525-1.012-5.275 1.735-10.052 4.924-13.697 9.102-1.813 2.108-3.387 4.479-5.579 6.181-3.362 2.604-7.732 3.366-11.6 5.137-3.854 1.769-7.556 5.43-6.861 9.604-.31.096-.652.157-.972.187-2.549.283-5.354-.813-7.136 1.722-1.082 1.536-.989 3.786.193 5.226-3.276-3.832-5.311-8.832-5.088-13.873.084-1.938.526-3.723 1.191-5.457.325-.867.721-1.716 1.145-2.555Zm-165.179-80.988c1.126-1.812 3.073-2.941 5.032-3.79 12.805-5.491 27.407-1.235 41.057 1.575 15.937 3.278 32.208 4.475 48.44 5.678 6.752.486 13.977.881 19.819-2.509 6.95-4.053 10.184-12.39 16.27-17.631 3.603-3.108 8.138-5.025 12.77-6.133 13.728-3.288 28.07.155 42.187.288 15.021.144 30.08-3.556 43.309-10.667 6.452-3.46 12.522-7.742 19.439-10.175 6.905-2.417 15.102-2.696 21.052 1.564-.148-.101-9.159 4.95-10.045 5.368-5.28 2.477-8.1 6.272-12.18 10.227-3.779 3.685-8.701 5.924-13.528 8.069-1.537.682-3.114 1.371-4.793 1.413 5.131-2.093 9.628-5.755 12.7-10.366 1.006-1.512 1.892-3.398 1.202-5.081-4.778 2.596-8.995 5.843-13.852 8.355a95.673 95.673 0 0 1-15.27 6.288 96.976 96.976 0 0 1-31.899 4.44c-18.518-.579-38.462-3.387-54.208 8.839-3.812 2.962-7.078 6.657-11.266 9.037-5.554 3.134-12.184 3.628-18.573 3.631a144.197 144.197 0 0 1-36.388-4.682c-17.377-4.534-36.662-7.458-53.632-.694-1.035.411-2.262 1.092-2.206 2.188a35.58 35.58 0 0 0 2.148.23c-2.383 1.298-5.25 2.109-7.157.392-1.569-1.414-1.553-4.043-.428-5.854Zm24.195-34.803c1.813-5.434 6.345-9.627 11.503-12.114 5.157-2.486 10.903-3.438 16.592-4.018 9.277-.952 18.67-.964 27.948-.044 3.977.396 7.975.951 11.947.526 3.969-.438 8-2.002 10.466-5.143 1.525-1.947 2.38-4.354 4.106-6.113 2.552-2.614 6.414-3.252 9.928-4.261 7.949-2.278 15.595-7.248 20.582-13.914.912-1.216 1.455-3.338 2.152-5.131.364.192.718.413 1.058.636 5.049 3.292 8.32 9.927 6.114 15.551-1.478 3.759-4.983 6.301-8.482 8.304-5.536 3.159-12.512 4.576-18.738 5.957 2.238 4.608-.506 10.44-4.833 13.177-4.343 2.725-9.746 3.036-14.875 2.785-10.327-.506-20.46-2.938-30.714-4.195-10.255-1.257-21.026-1.272-30.517 2.835-5.127 2.213-10.319 6.9-9.308 12.391 1.022 5.57 7.589 8.048 13.215 8.77 4.389.554 8.106-.643 12.538-.956-.343.936-.69 1.94-.969 2.948-3.809.241-7.613.413-11.418.478-4.88.092-10.133-.075-14.039-2.999-4.607-3.407-6.059-10.05-4.256-15.47Zm-7.398-25.772c2.512-1.531 5.095-2.936 7.83-4.026 5.136-2.053 10.954-2.772 16.335-3.929a73.485 73.485 0 0 0 11.556-3.488c2.788-1.097 5.654-2.407 7.634-4.672 1.28 1.372 1.774 3.594.564 4.986-.929 1.084-2.57 1.404-3.452 2.536-1.759 2.302.633 4.115 3.964 5.408-.701-.106-1.403-.211-2.077-.307-4.425-.618-9.356-1.974-13.819-1.791-3.39.143-6.605 1.366-9.754 2.58-2.549.97-5.096 1.953-7.563 3.127-2.327 1.115-4.588 2.409-7.031 3.27-3.521 1.252-7.368 1.605-11.058.941 1.326-.061 5.74-3.941 6.871-4.635Zm295.623 134.723c3.026-.834 5.819-2.282 8.584-3.74 3.418-1.803 5.056-3.321 5.522-7.183.008-.042.003-.082.027-.098 2.607 1.217 4.241 3.201 4.125 6.275-.51 12.663-24.845 12.13-32.704 10.058-2.152-.552-4.295-1.335-5.987-2.759a8.01 8.01 0 0 1-1.644-1.862c7.388-.383 14.947 1.272 22.077-.691Zm119.633 69.861c.19-.47.47-.98.84-1.49.28.043.56.113.81.186 4.23 1.142 7.97 3.672 12.14 4.997 5.57 1.767 11.84 1.214 17.02-1.478 2.72-1.411 5.13-3.372 8.01-4.427 6.03-2.19 12.9-.009 19.07-1.786 1.81-.519 3.61-1.44 4.7-2.99.56-.791.66-1.627.63-2.444 3.67 1.61 7.01 3.844 9.82 6.839.97 1.026 1.89 2.461 1.32 3.737-2.83 6.451-17.22 2.355-22.13 2.235-6.02-.143-10.02 2.226-15.26 4.684-8.47 3.953-19.18 5.371-27.96 1.635-4.84-2.069-10.91-5.033-9.01-9.698Zm-65.93 87.33c7.88 2.54 16.41 2.148 24.62.952 8.19-1.193 16.31-3.157 24.55-3.697 4.06-.262 8.17-.168 12.16-1.04 3.03-.644 5.12-2.158 7.6-3.536 1.13.679 2.12 1.62 2.3 2.903.45 3.144-3.81 4.511-6.99 4.664-12.13.59-24.24 4.047-36.45 4.742-13.44.757-27.1-2.133-38.96-8.516-.41-.213-.82-.44-1.11-.804a1.478 1.478 0 0 1-.34-.856c4.29 1.539 8.3 3.788 12.62 5.188Zm-50.525-19.951c1.109.521 2.19 1.126 3.282 1.717a146.989 146.989 0 0 0 14.713 6.908c1.78.724 4.15 1.651 6.06.876.9-.365 1.4-.932 1.78-1.577.66 1.983.02 3.889-3.12 4.671-3.85.974-10.21-2.906-13.641-4.334-2.132-.905-11.657-5.872-9.074-8.261Zm-201.553-93.12c7.864 1.222 14.935 5.301 22.107 8.746 6.677 3.177 13.586 5.877 19.929 9.665 2.204 1.327 4.344 2.77 6.697 3.807 3.758 1.652 7.923 2.143 11.989 2.702a388.48 388.48 0 0 1 23.867 3.992c3.146.632 6.045 2.105 9.257 1.65 3.238-.472 6.244-1.935 9.376-2.784 8.474-2.282 17.619.609 26.189-1.27 8.202-1.814 15.472-8.444 24.108-8.176 9.149.278 18.584-.117 27.851.333 3.663.17 6.543.824 9.892 2.048 3.151 1.156 6.969 1.183 10.277 1.913 7.077 1.573 14.166 4.02 19.979 8.473 1.17.876 2.36 2.073 2.28 3.526-.08 1.303-1.18 2.316-2.23 3.107-5.353 3.996-11.867 4.555-16.792 8.828-3.95 3.425-7.958 8.785-5.479 13.387 1.176 2.182 3.517 3.422 5.753 4.489a143.309 143.309 0 0 0 43.228 12.657c1.16.137 2.42.26 3.4-.346 1.58-.985 1.75-3.271 3.04-4.593 1.49-1.511 3.95-1.311 6.05-.953 16.76 2.747 33.16 7.335 49.94 9.822 16.8 2.486 34.32 2.771 50.32-2.944 3.44-1.227 6.94-2.84 9.19-5.736 2.26-2.883 2.85-7.354.45-10.122-1.49-1.708-4.09-2.953-4.04-5.223.04-1.878 1.99-3.115 3.74-3.8 8.64-3.356 18.6-1.278 27.57-.612 10.72.803 21.37 2.477 31.82 4.986 16.75 4.029 32.88 10.215 49.48 14.87 15.14 4.249 30.93 7.21 46.54 5.953 1.57 8.808 2.48 18.636.49 18.828-40.69 4.073-78.1-19.877-116.54-33.812-7.26-2.625-16.26-4.608-21.96.594-4.16 3.764-4.85 9.987-7.72 14.799-7.34 12.364-25.1 11.855-39.32 9.796l-80.63-11.664c4.28 1.028 3.64 8.12-.24 10.176-3.9 2.057-8.62.713-12.8-.665-21.85-7.22-44.052-14.619-62.858-27.886-2.403-1.69-5.033-4.251-4.237-7.095.468-1.694 2.065-2.816 3.579-3.765a122.41 122.41 0 0 1 23.71-11.462c-8.684-11.696-25.079-14.87-39.569-13.309-9.321 1.026-17.751 4.219-27.031 5.346-10.619 1.285-21.224 2.581-31.83 3.864 1.303 1.437 2.635 3.678 1.293 5.089-.893.957-2.412.789-3.701.535-9.786-1.968-18.88-5.957-28.42-8.39-9.514-2.436-19.656-.718-28.977-3.612-5.857-1.822-10.797-5.695-15.888-9.103-12.34-8.971-26.349-12.338-40.456-16.918a32.667 32.667 0 0 1 7.327.259Zm52.758 115.622c4.163 2.337 8.79 4.422 13.624 4.781 2.52.192 4.934-.678 7.332-1.277.45.436.869.836 1.258 1.214 1.554 1.497 3.125 3.22 3.382 5.381.117.953-.098 2.033-.849 2.648-.666.55-1.599.624-2.47.663-12.563.38-25.144-5.635-32.711-15.679-.64-.828-1.248-1.728-1.483-2.746a3.875 3.875 0 0 1-.061-1.527c4.129 1.803 8.023 4.339 11.978 6.542Zm-146.072-92.207c1.6.063 3.198.314 4.767.556 4.77.772 9.549 1.516 14.332 2.286 2.453.39 4.961.787 7.399.29 1.943-.375 4.051-1.514 5.085-3.312a17.17 17.17 0 0 1 2.061 2.935c1.36 2.44 2.15 5.833.141 7.793-1.082 1.051-2.7 1.341-4.215 1.495-8.96.909-18.196-1.081-25.965-5.629-1.802-1.046-3.673-2.499-3.877-4.572-.089-.648.028-1.27.272-1.842ZM545.044 325.796c.314-.46.893-.661 1.432-.762 2.41-.412 4.783.676 6.993 1.651 1.004.441 2.086.858 3.214 1.121a58.03 58.03 0 0 1 2.08 2.286c-5.085 1.346-6.833 8.24-4.655 13.005 2.191 4.763 6.93 7.761 11.526 10.308a198.919 198.919 0 0 0 33.449 14.675c4.929 1.639 10.101 3.178 13.911 6.681 3.838 3.5 5.816 9.652 2.945 13.966-2.266 3.423-6.805 4.72-9.323 7.976-5.676 7.339 2.276 17.439 10.079 22.427 13.209 8.434 27.004 15.05 42.835 13.439 4.984-.51 10.022-2.496 13.223-6.37 1.709-2.08 2.806-4.588 4.532-6.644 3.082-3.656 7.796-5.449 12.357-6.884 11.016-3.494 22.716-5.843 34.14-4.02 8.985 1.432 17.344 5.374 25.549 9.27 6.054 2.858 12.529 6.13 15.559 12.097 3.465 6.864 1.483 14.8 1.354 22.105-.144 7.279 2.58 12.683 5.839 18.942 3.228 6.223 10.546 10.039 17.498 9.137 1.06-.132 2.106-.37 3.043-.903 1.551-.873 2.561-2.453 3.831-3.705 3.702-3.661 11.645-2.059 15.701.091 22.623 12.002 37.196 34.969 57.588 50.456 9.707 7.367 24.285 12.717 33.336 4.536 2.207-1.987 3.974-4.722 6.829-5.626 2.339-.726 4.862-.022 7.211.692 20.053 6.052 40.103 12.091 60.168 18.141 5.879 1.778 12.141 3.799 15.958 8.621 2.301 2.917 3.434 6.546 5.327 9.733 6.597 11.027 21.027 14.632 33.877 14.361 12.85-.271 25.77-3.354 38.48-1.397 13.23 2.059 25.08 9.388 38.07 12.612 9.68 2.399 26.67 2.731 30.69-9.135 1.27-3.703 1.23-7.793 2.71-11.431 2.23-5.465 7.64-9.132 13.35-10.644 5.7-1.51 11.72-1.152 17.6-.56a224.926 224.926 0 0 1 69.61 18.809c6.18 2.8 11.55 6.398 17.31 9.85.9.55 3.18 1.461 5.71 2.514-2 3.468-3.94 7.141-5.66 10.261.69-1.253-21.76-12.848-23.89-13.822-8.96-4.115-18.34-7.324-27.95-9.504-17.53-3.975-35.89-4.306-53.47-.596-.71.138-1.49.339-1.91.922-.66.899-.06 2.23.83 2.916.91.684 2.03.988 2.95 1.642 2.32 1.635 2.67 5.115 1.45 7.667-3.1 6.432-12.23 8.389-18.52 9.468-21.05 3.582-43.26.115-62.21-9.697-4.69-2.427-9.31-5.266-14.49-6.197-4.29-.771-8.68-.181-13.01.306-18.45 2.079-39.28 2.882-56.443-5.089-2.792-1.286-5.648-2.941-6.97-5.696-1.322-2.754-.224-6.824 2.754-7.516-7.17-9.413-18.776-14.121-29.799-18.424-11.522-4.49-23.041-8.967-34.699-13.076-3.3-1.162-7.383-2.136-9.94.249-1.6 1.5-1.99 3.856-2.913 5.869-2.325 5.047-8.22 7.662-13.778 7.726-15.835.21-34.541-11.737-45.127-22.956-10.65-11.291-18.602-25.404-31.762-34.168-4.346-2.891-9.52-5.129-14.657-4.261-.751.13-1.554.362-2.037.967-.829 1.03-.327 2.523.254 3.709a49.714 49.714 0 0 0 10.932 14.619c1.695 1.545 3.608 3.208 3.857 5.504.61 5.614-12.26 2.884-15.203 2.359-10.112-1.788-19.282-7.019-27.42-13.268-7.55-5.804-13.964-14.122-18.72-22.344-2.086-3.605-3.051-8.079-1.593-11.983.885-2.385 2.593-4.371 3.78-6.621 3.314-6.288 2.173-14.293-1.704-20.239-3.89-5.943-10.139-10.027-16.774-12.603-6.837-2.67-14.176-3.897-21.499-4.614-8.278-.802-29.395-4.795-33.042 6.037-.366 1.061-.521 2.186-1.019 3.171-.922 1.824-2.79 2.942-4.604 3.865-14.981 7.703-33.116 9.024-49.042 3.577-15.94-5.459-29.447-17.623-36.557-32.875-1.365-2.964-2.505-6.458-1.06-9.377 3.625-7.354 27.189-3.899 14.219-15.693-10.028-9.114-23.453-11.376-35.888-15.646-6.633-2.267-13.225-5.415-17.761-10.758-3.906-4.595-5.31-10.395-9.101-15.127-.698-.86-1.434-1.702-1.87-2.719-.892-1.979-.532-4.264-.155-6.417.034-.342.097-.673.285-.969Zm83.467 66.146c2.72-2.179 5.962-3.594 8.982-5.356a44.01 44.01 0 0 0 6.367-4.472c1.218-1.043 1.835-2.434 2.392-3.776 1.926 2.051 3.261 4.993 2.171 7.553-1.366 3.205-5.545 3.887-8.347 5.956-2.497 1.838-5.309 5.794-6.682 8.555-1.359 2.76-1.919 6.137-.506 8.865 1.121 2.176 3.311 3.599 5.571 4.541a22.657 22.657 0 0 0 4.898 1.414c-1.968 1.173-4.566 1.301-6.803.612-2.845-.888-5.223-2.891-7.357-4.982-2.859-2.759-5.653-6.119-5.633-10.095-.01-3.5 2.228-6.636 4.947-8.815Zm-28.918-115.937c3.038 1.509 6.523 2.835 9.748 1.785 3.974-1.287 4.34-4.61 4.89-7.959 2.893 5.057 3.195 11.966-3.265 13.702-2.638.713-5.47.214-8.037-.713-5.597-1.992-10.45-6.012-13.497-11.115-.336-.587-.663-1.202-.607-1.869.002-.082.018-.165.035-.234a78.637 78.637 0 0 0 10.733 6.403Zm-50.778-1.41c1.189-1.551 3.1-2.352 4.863-3.254 4.194-2.139 8.662-5.326 11.098-9.473 1.279-2.169 1.384-4.244 1.387-6.386.984 2.653 1.553 5.417 1.549 8.232 0 5.886-4.51 8.472-8.815 11.569-2.011 1.449-3.938 3.316-4.344 5.756-.652 3.888 2.762 7.149 5.861 9.592 6.072 4.755 12.243 9.348 18.782 13.284-.795-.295-1.564-.687-2.29-1.072-4.318-2.289-8.609-4.581-12.914-6.872-5.99-3.177-12.342-6.735-15.27-12.837-1.302-2.704-1.721-6.148.093-8.539Zm-56.39-14.485c3.488 3.508 6.755 7.274 10.697 10.261 3.953 2.972 8.742 5.155 13.683 4.921 4.94-.248 9.942-3.374 11.282-8.137.433-1.555.446-3.227-1.145-3.52-4.997-.956-10.035-2.311-14.288-5.107-4.254-2.809-7.654-7.244-8.146-12.295a12.002 12.002 0 0 1 .063-2.972c.697 1.44 1.397 2.906 2.314 4.087 2.33 2.925 5.283 5.388 8.616 7.085 5.882 2.976 12.962 3.794 17.905 8.179 1.536 1.364 2.861 3.162 2.914 5.215.042 1.678-.777 3.272-1.852 4.565-2.011 2.432-4.899 3.973-7.782 5.259-2.387 1.069-4.923 2.037-7.551 1.94-2.033-.084-3.978-.8-5.878-1.576-11.063-4.594-21.299-12.48-26.511-23.131 1.991 1.639 3.865 3.402 5.679 5.226Zm-4.156 57.423c.66-.791 1.614-1.299 2.583-1.702.574-.24 1.139-.439 1.722-.614.278.258.52.548.749.84.786 1.01 1.302 2.219 1.969 3.339a13.968 13.968 0 0 0 6.872 5.776c3.43 1.32 7.217 1.217 10.851 1.768 1.636.233 4.01 1.132 6.056 2.386a13.611 13.611 0 0 1 2.447 1.913c-.744.965-1.995 1.864-3.944 2.59-2.062.782-4.333.838-6.534.709a42.593 42.593 0 0 1-14.582-3.517c-3.758-1.652-7.525-4.151-8.854-8.036-.599-1.803-.574-3.975.665-5.452ZM41.772-214.638c15.586 15.824 26.663 35.905 44.787 49.697 17.073 13.008 28.518 31.947 38.754 50.81 2.234 4.097 4.457 8.304 5.252 12.909.716 4.036.292 8.202.968 12.244.977 5.927 4.212 11.22 7.849 16.013 3.52 4.62 7.039 9.727 10.951 13.97 3.545 3.823 7.326 7.896 9.739 12.601 3.257 6.34 3.282 14.069.962 20.825-2.308 6.742-6.798 12.612-12.098 17.395-3.414 3.11-7.194 5.81-10.448 9.1-2.109 2.108-4.064 4.653-4.345 7.615-.323 3.532 1.782 6.785 3.541 9.87 2.149 3.772 5.361 9.19 5.66 13.62.253 3.804-3.412 5.574-1.967 10.009 1.477 4.565 4.759 8.342 8.465 11.375 3.719 3.031 7.902 5.42 11.881 8.091 5.602 3.783 10.798 8.146 16.466 11.825 5.656 3.694 11.936 6.723 18.653 7.443 1.777.187 3.664.183 5.247-.654 3.148-1.712 3.73-6.008 3.124-9.534A22.993 22.993 0 0 0 202 62.219c-1.505-2.42-3.681-3.737-3.583-6.754.147-4.613 3.541-8.46 4.694-12.915.942-3.537.942-8.143 4.298-9.615 1.933-.845 4.171-.156 6.146.583 30.898 11.51 58.794 33.441 72.716 63.34 1.341 2.887 2.567 5.924 2.68 9.101.134 3.914-1.437 7.78-1.05 11.673 1.046 10.551 19.814 19.028 12.024 30.403-1.022 1.487-2.533 2.557-3.892 3.754a25.826 25.826 0 0 0-5.986 7.732c-.876 1.764-1.57 3.677-1.462 5.642.099 1.603.722 3.093 1.428 4.505 3.445 6.92 9.075 12.477 15.084 17.361 2.989 2.431 6.194 4.765 9.93 5.76 5.399 1.427 10.313-2.535 7.096-7.992-1.463-2.507-3.749-4.724-3.97-7.603-.268-3.425 2.684-6.457 5.982-7.368 3.308-.94 6.83-.225 10.147.665 13.993 3.841 26.953 11.447 37.11 21.796 2.083 2.111 4.104 4.459 4.916 7.324.545 1.905.511 3.917.461 5.904-.086 3.392-.16 6.783-.233 10.174-.048 1.905-.101 3.866-.845 5.611-2.474 5.835-11.578 7.356-12.728 13.602-.733 3.98 2.295 7.577 5.167 10.429 5.605 5.573 11.849 11.085 19.555 12.827 5.231 1.18 10.68.525 16.037.274 8.757-.423 17.542.242 26.134 1.956 3.659.736 8.067 1.423 10.541-1.368 1.214-1.366 1.609-3.292 2.69-4.747 2.923-3.931 8.98-3.013 13.626-1.469 11.81 3.939 24.222 10.004 31.285 20.697 1.72 2.605 2.542 5.644 4.757 7.831 2.682 2.648 5.675 5.011 8.829 7.07 5.852 3.842 12.348 6.68 19.177 8.313a7.67 7.67 0 0 1-.863.388c-5.253 2.083-11.312.464-16.225-2.335-6.185-3.514-13.319-3.839-16.76-11.219-1.486-3.162-1.884-6.744-3.323-9.954-1.433-3.17-3.819-5.819-6.439-8.112-6.507-5.665-14.722-9.344-23.282-10.43-3.114-.393-6.905-.128-8.474 2.579-.61 1.054-.76 2.314-1.28 3.436-1.018 2.201-3.397 3.524-5.794 3.935-2.398.397-4.861.035-7.253-.31-5.887-.861-11.841-1.618-17.761-.952-4.926.542-9.732 2.052-14.693 2.343-13.463.8-25.621-7.347-36.626-15.141-2.538-1.793-5.125-3.646-6.805-6.257-4.357-6.795-.385-16.729 6.814-20.345 2.37-1.188 5.063-1.895 6.982-3.721 2.787-2.673 2.913-6.852 1.778-10.306-.532-1.61-1.37-3.3-2.463-4.577-1.287-1.52-3.168-2.46-3.067-4.764.044-.76.321-1.485.274-2.22-.058-.719-.419-1.383-.788-2.006-4.515-7.258-12.332-11.665-19.826-15.78-2.112-1.151-4.595-2.345-6.798-1.409-2.729 1.129-3.336 4.755-2.895 7.671.68 4.647 2.992 9.017 3.088 13.731.025 1.559-.299 3.314-1.581 4.19-1.01.692-2.337.645-3.552.435-3.875-.733-7.34-2.897-11.119-3.913-3.752-1.019-6.67.405-10.43.41-2.466.003-4.796-1.064-6.976-2.219a74.53 74.53 0 0 1-16.458-11.866c-2.636-2.507-5.198-5.454-5.665-9.054-.263-2.105.225-4.246-.013-6.369-.586-5.536-5.955-10.172-5.109-15.689.304-2.008 1.435-3.78 2.328-5.613 3.418-7.002 3.489-17.073 2.061-24.621-1.219-6.513-4.424-12.47-7.856-18.127-11.847-19.504-27.357-37.224-47.047-48.78-3.65-2.139-8.503-4.004-11.839-1.404-2.019 1.584-2.722 4.415-2.346 6.95.39 2.545 1.713 4.815 3.114 6.966 4.409 6.68 10.14 12.775 12.372 20.482.923 3.186 1.069 6.992-1.09 9.524-1.289 1.511-3.196 2.339-5.097 2.923-6.778 2.077-13.994 1.547-20.783-.187-6.44-1.647-13.432-3.487-19.353-6.552-12.568-6.515-21.851-17.67-32.817-26.359-3.646-2.893-7.671-5.599-12.29-6.257-3.218-.46-6.535.118-9.738-.439-3.37-.587-6.419-2.377-9.268-4.275-6.94-4.595-16.721-9.863-18.852-18.5-.852-3.452-.646-7.05-.353-10.605.3-3.705.774-7.609 3.005-10.596 1.913-2.553 5.124-4.395 5.662-7.54.563-3.256-2.01-6.094-4.244-8.521-3.603-3.95-6.788-8.293-9.272-13.03-3.105-5.916-4.954-13.487-1.197-19 3.512-5.144 10.744-6.461 16.83-5.13 6.076 1.348 11.441 4.785 17.044 7.503 2.08 1.008 4.312 1.953 6.637 1.903 7.417-.171 10.958-15.487 12.566-21.15.808-2.845 1.632-5.773 1.27-8.7-.451-3.574-2.594-6.714-4.915-9.48-6.999-8.358-15.774-13.36-25.101-18.557-8.978-5.015-14.427-12.199-17.774-21.935-3.228-9.361-4.549-19.362-8.57-28.412-5.76-12.974-16.565-22.95-27.458-32.079-9.92-8.334-20.168-16.313-30.387-24.269-2.159-1.683-3.693-5.391-3.048-8.053 1.786-7.599 6.86-13.832 12.199-19.603Zm331.811 339.724c.287-.564.765-1.007 1.305-1.297.424.535.812 1.101 1.181 1.629 3.604 5.337 8.829 9.521 14.776 11.99 1.4.575 3.726.929 5.454 1.728-.714 1.082-1.946 1.83-3.258 2.091-1.665.337-3.395.009-5.026-.481-4.634-1.356-18.179-8.504-14.432-15.66Zm-60.476 91.484a4.72 4.72 0 0 1 .693-.648c.765.272 1.488.631 2.162 1.023 2.447 1.428 4.512 3.407 6.849 5.011 3.504 2.455 7.631 4.043 11.889 4.616 1.866.241 3.496-.252 5.18-.457-.018.07-.025.112-.056.183-.837 2.54-3.425 4.202-6.041 4.683-2.645.471-5.342-.034-7.945-.632-3.048-.699-6.131-1.555-8.716-3.3-2.6-1.758-4.655-4.546-4.787-7.666-.057-1.002.122-2.051.772-2.813Zm-82.262-107.58c1.71-1.582 3.59-2.514 5.558-2.906.033.925-.26 1.935-.386 2.882-.313 2.818 1.324 5.515 3.349 7.499 2.027 1.998 4.472 3.507 6.473 5.508 3.046 3.043 4.915 7.029 7.563 10.409 1.39 1.775 3.109 3.398 5.105 4.484 1.427.773 3.618.93 4.891 2.048a6.409 6.409 0 0 1-1.951 1.494c-3.405 1.707-7.643.189-10.472-2.345-2.841-2.532-4.723-5.924-7.122-8.867-2.724-3.343-6.107-6.083-9.781-8.299-1.982-1.182-4.153-2.365-5.126-4.44-1.163-2.48-.109-5.602 1.899-7.467Zm85.793 25.218c.41-1.134 1.535-1.868 2.755-2.116.915 3.322 2.31 6.511 4.18 9.325 2.006 3.024 4.688 5.672 8.022 7.18 3.205 1.445 8.313 3.113 11.54 1.094 1.203-.758 2.054-1.926 3.112-2.852 2.821-2.422 6.827-2.798 10.566-2.557-1.261 2.786-3.11 4.333-2.733 7.864.072.717.215 1.465-.13 2.092-.227.408-.644.708-1.074.915-5.304 2.696-14.292-.621-19.208-2.949-6.31-2.957-11.89-7.564-15.786-13.359-.945-1.378-1.825-3.076-1.244-4.637Zm-41.36-100.26c2.087 1.95 4.436 3.741 7.164 4.565 2.742.822 5.951.542 8.137-1.307 5.395-4.58-1.906-12.884.8-18.791 1.849-3.999 6.95-5.427 11.341-4.954.863.098 1.731.234 2.555.444a5.656 5.656 0 0 1-.693.742c-2.449 2.29-4.747 2.727-5.776 6.424-.841 2.998-.46 6.353.649 9.23 1.827 4.76 5.256 8.72 7.776 13.128 1.224 2.135 2.194 4.978.682 6.923-1.567 2.034-4.7 1.697-7.17.986a54.993 54.993 0 0 1-17.207-8.396c-3.88-2.834-7.455-6.289-9.753-10.458.501.51.999.994 1.495 1.465ZM43.246-75.574a20.556 20.556 0 0 1-.812-.71l.812.71ZM70.49-31.72c-.816-.05-1.624-.14-2.423-.273-5.655-.934-10.61-3.93-15.52-6.702-4.602-2.6-9.111-5.401-13.372-8.547-8.342-6.166-15.929-13.905-19.759-23.722-.603-1.547-1.085-3.191-.935-4.842.27-3.135 2.994-4.694 5.6-5.834 2.709-1.18 5.818-1.998 8.586-.978 2.088.777 4.374 2.698 6.491 3.39-.023.22-.049.425-.048.627-.76 8.684 2.478 17.438 7.859 24.322 5.51 7.04 13.107 12.205 21.226 15.965 2.677 1.234 5.567 2.453 8.003 4.098-1.594 1.243-3.71 2.625-5.708 2.496Zm140.663-173.124c3.108-1.908 7.053-1.643 10.645-1.005 8.839 1.546 17.31 4.934 24.863 9.768a4.85 4.85 0 0 1-.432.585c-.888.997-2.116 1.57-3.168 2.348-3.631 2.613-5.395 7.327-5.013 11.773.355 4.45 2.635 8.581 5.696 11.824 1.562 1.658 3.396 3.237 4.019 5.414.452 1.622.177 3.343.041 5.005-.292 4.148.479 8.675 2.333 12.555-13.378-6.915-23.696-22.063-33.994-32.662-3.514-3.598-7.12-7.371-8.718-12.135-1.6-4.777-.557-10.82 3.728-13.47Zm17.19 104.942c3.403 2.402 7.05 4.81 11.205 5.033 6.111.332 8.586-4.117 9.034-9.391a32.115 32.115 0 0 1 3.992-13.02c1.178-2.115 2.664-4.151 4.744-5.394 4.53-2.737 10.397-1.038 15.172 1.241.821.386 1.618.788 2.417 1.204-1.263 1.695-4.004 2.84-5.49 4.189-2.009 1.852-3.729 4.055-4.984 6.49-2.617 5.087-3.141 11.274-1.06 16.605 1.742 4.434 5.076 8.002 8.104 11.694a103.06 103.06 0 0 1 6.41 8.682c.73 1.098 1.39 2.664.454 3.6-.44.425-1.071.539-1.672.58-4.434.3-8.39-2.496-12.051-5.01a152.043 152.043 0 0 0-14.326-8.71c-7.68-4.103-16.003-7.781-21.428-14.591a25.946 25.946 0 0 1-3.145-5.036c.892.605 1.744 1.215 2.624 1.834Zm-105.079-80.212c11.744 9.74 26.375 15.675 37.546 26.045 15.56 14.455 23.028 36.231 39.392 49.766 8.881 7.346 19.797 11.744 30.469 16.136 10.672 4.392 21.511 9.017 30.082 16.755 8.569 7.724 14.597 19.22 12.863 30.623-1.932 12.711-12.875 22.916-13.779 35.755-.415 5.808 1.301 11.525 2.997 17.097 2.039 6.697 4.081 13.406 6.122 20.116.549 1.837 5.37 12.003-.141 12.02-1.858.013-3.617-4.257-5.032-7.686.523.67 1.007 1.343 1.503 2.016 1.622-.169 1.278-2.667.438-4.074l-15.166-25.31c-4.252-7.106-8.656-15.417-6.044-23.279 1.181-3.57 3.689-6.5 5.913-9.54 6.853-9.373 11.38-21.835 6.953-32.567-3.535-8.552-11.974-14.058-20.563-17.51-9.928-3.983-20.638-6-29.819-11.7-8.691-5.378-13.385-12.855-19.741-20.264-7.189-8.373-12.741-17.576-18.565-26.904-6.866-11.016-14.898-21.994-26.494-27.807.444.774.885 1.535 1.342 2.307-6.548-7.531-13.454-14.825-20.276-21.995Z" fill="url(#b)"/></g><defs><radialGradient id="a" cx="0" cy="0" r="1" gradientUnits="userSpaceOnUse" gradientTransform="matrix(-500.29424 -427.09537 426.89604 -500.06075 501.782 206.008)"><stop stop-color="#981A87"/><stop offset=".492" stop-color="#570995" stop-opacity=".91"/><stop offset=".601" stop-color="#3C0776" stop-opacity=".74"/><stop offset="1" stop-color="#050238" stop-opacity="0"/></radialGradient><radialGradient id="b" cx="0" cy="0" r="1" gradientUnits="userSpaceOnUse" gradientTransform="matrix(-639.68539 -144.8986 144.8204 -639.34014 527.942 226.508)"><stop stop-color="#641D26"/><stop offset=".429" stop-color="#3D105B" stop-opacity=".68"/><stop offset="1" stop-color="#0D0526" stop-opacity="0"/></radialGradient></defs></svg>