<svg width="339" height="346" fill="none" xmlns="http://www.w3.org/2000/svg"><g filter="url(#a)"><path d="M156.679 106.587c7.517-1.502 14.664-4.593 22.217-5.904 4.452-.102 8.882.617 13.105 2.032.429.621 1.387 2.832 3.149 2.185 1.559.644-2.465.355-.88 1.028 2.592.726 4.822 2.663 5.365 5.086 1.594.384.787 2.448 2.532 1.331 2.855 3.904 8.392 5.743 11.401 9.838 1.138.894 1.962 2.025 3.493 2.404-1.292-.021-3.319-1.06-3.408.961-.943-1.38-2.863-.626-2.023 1.041-1.584-.623-3.171-.471-4.576.468 1.02.628-.089.985-.769.928-2.174-.1 2.289 1.766-.161 2.098-2.906.294-4.044-3.146-6.847-1.496-.99 1.914-3.991-.949-4.864 1.129-.485 1.516-4.395 1.279-2.741-.663 1.541-.818 2.701-3.55-.268-2.291-2.458-1.309-5.783 1.065-7.242-2.048-.928-1.951-2.7.869-3.44-.924 2.113-.54-.088-2.526-1.213-1.213.583 1.422-1.513-.2-1.363 1.27-.627-1.505-2.547-.482-1.075.598-.704.945-5.94 1.825-4.178-1.297-2.582-2.613 2.863-2.453 4.635-2.877 2.007 1.189-2.336.704-1.799 1.97 1.618.817 5.232-.972 4.672-2.568-2.926.195 1.544-.486.377-2.186-1.293-.814 1.242-.797-.381-1.407-1.443-1.319-2.47 1.182-1.346 2.095-.791.988-1.179 2.024-2.664 1.114-1.37.273-2.616-1.161.093-.741-.936-1.4-3.248-.203-2.004 1.407-1.563.424-2.938-.602-4.419-.631-2.145-.085 2.171 1.611-.167 1.202-.933-1.27-2.163-1.209-3.076.09.816.994 1.556.018 2.455-.183-.38 1.859-1.54 3.483-2.943 4.727-.071-1.72-2.461-.976-2.325-2.306.84-.151 1.686-.205 2.538-.315-1.381-1.582-3.6-2.554-5.444-1.146-.541.654-.194 1.333.267 1.898-.584.916-4.61 2.479-1.884 3.087-1.228.63-.521 1.106.371 1.581-1.199 1.48-3.001 1.626-4.771 1.794-.754 1.451-5.218.978-2.257 1.958-.673 1.633.773.816 1.717.526.884.189 1.855.53 2.523-.287-2.245-.394 1.836-.991 1.084-2.331.846-.37 1.548 1.254 2.216 1.813-1.419.342.025 1.776.048 2.837.723 1.174 1.383-1.706 2.022-.082-.987.678-.811 1.762-.682 2.794-1.227.416-.484-1.969-1.704-1.32-.422.764-2.187.07-1.675 1.236.921 1.287.129 3.61-1.687 2.944-1.307.962 3.755 2.325 1.462 2.627.425 1.467 1.707-.251 2.566-.407-.687 1.368-1.82 2.379-3.161 2.971-.386.639.106 3.158-.975 2.429-.209-.841-.339-3.626-1.451-2.231-.456 1.911-3.35 2.384-2.682 4.306-3.237-1.101-1.801 4.577-4.638 5.273 1.233-2.677 3.494-5.741 1.627-8.845.465-1.919 1.637 2.856 3.12 1.409.594-1.221 1.968-1.997 2.317-3.301-1.571-.26-2.965-3.472-4.151-1.5-2.621-.743-.774-4.277-3.64-4.613 1.62-.406 3.431-2.348 2.539-4.037-.681-1.475-.217 2.043-1.243.888-.585-.785-1.279 1.15-1.889.175.16-1.439 2.241-.513 1.645-2.594-1.387-1.418-1.084 1.094-2.16 1.516-1.227-2.244.818-2.611 1.587-4.632.31-1.282-1.738.815-2.548.369-3.067-.765-.634 3.854-3.571 4.262-1.79.789-.384-1.812-1.749-1.377-2.104.524 1.922 3.42-.533 3.182-1.5-2.441-.937 2.579 1.016.799 1.233-1.583 2.25 1.168.554 1.132-.117 1.14-3.247 2.217-2.22.283-.665.399-3.45.907-1.823 1.546 1.985.298-.473 1.915-.729 2.894-1.489-1.276.771-3.39-1.59-4.033.863-.804 2.082-1.016 3.089-.358-.832-1.456 2.051-4.285-.638-3.817-1.831.323.523 3.268-1.029 2.806-.264-1.445-1.952-.231-2.923-.088.911-.907-.301-1.743-.051-2.78.165-.812 2.679-1.485.946-1.91-1.638.732-4.167 1.722-3.042 4.107-1.429-.433-.596-3.372-2.404-2.595-1.038.429-2.108.909-2.815 1.82.833.605 1.607-.172 2.374-.491-.75 1.259 2.641 1.212 1.193 2.327-2.168.505-.863 3.147 1.087 1.851 1.849.732-1.512.253.103 1.526-1.157 2.1-4.155.396-4.843 2.641-1.221-.529-1.803-.352-1.103.984-.683-.742-1.15-1.647-1.807-2.41-.407.888-.833 1.778-1.415 2.568-.544-.909-1.247-1.563-2.306-1.487.478-1-.402-3.549 1.565-3.424.454-1.963-1.817-3.707.176-5.188-.53 3.602 1.066.457 1.731-.641 1.483 1.507 1.613-1.741 1.988-2.509.812-1.506-1.118-3.711-2.739-3.35.029-1.405-.401-2.823.269-4.159.205-.171.409-.336.617-.501.813 1.324-1.547 3.45 1.109 3.607 1.177.135 1.245 1.258 1.65 2.112 1.491.293 2.381 1.273 3.788.829 1.529-.893-1.819-2.509.8-2.309.728-.612 2.892-1.4 1.743.206.953.793.448-2.037 1.825-1.315.588-2.254 4.146-1.688 5.718-3.222-.945-1.312-3.352 2.038-3.922-.196-.207-.874-1.48.076-1.616-.803 2.475-.993 4.01-3.001 6.821-2.719.854-.714-2.91-1.162.21-1.451 2.383.581 4.143-1.036 5.045-3.168-.523.573-2.857.73-1.404-.028 2.002-.127 3.005-2.763 1.144-3.413 1.22 1.608-1.553.589-2.744 1.072-2.003 2.069-5.384 2.425-7.865 3.387-.393 1.951-2.3-1.445-4.042.367.982-1.161 1.956-2.34 2.778-3.626 7.545-2.594 15.349-4.67 23.255-5.997Z" fill="#373761"/><path d="M192 102.714c5.818.607 11.058 3.21 16.329 5.564 7.38 3.08 14.58 6.595 21.499 10.575 1.495 2.087 2.952 4.216 4.256 6.426-.394 1.845-3.529.053-4.883.332-3.421-.817-8.871 1.451-10.609-2.521-.931-.697-2.191-.15-3.243-.126.749 1.002 2.869.677 2.64 2.269.838.168 1.742.259 2.384.894-.898.454-2.008.228-2.707 1.118-2.207 1.385-4.754 2.013-6.937 3.432.738-1.471-1.256-.792-1.633.042-.451.667 1.304.409.632 1.168-1.87 1.009-4.005 1.715-5.444 3.296-3.663.336-6.971 2.897-10.598 2.539-3.071 2.005-7.174 2.895-10.926 3.365.651-.101 1.21-.334 1.059-1.093.518-.282 3.09 1.004 2.12-.457-1.249-.333-2.821-.296-4.039-.94.795-.191 3.46-.267 1.498-.996.013-2.095 2.224 2.555 2.815.927.323-1.52 2.531 1.026 2.177-.705-1.196 1.013-4.209-1.633-1.989-1.633 2.484.54 2.547-1.367.339-.847 1.146-1.537 4.456-2.669 4.015.431-.885 2.182.819.096 2.072.733.354-.934-1.3-.417-1.441-1.244-.922-.992.741-1.24 1.353-1.691.657-.46.615-1.885 1.696-1.548 1.628.902 3.107-1.053 4.85-.22-1.082.71 1.201 2.22-.31 1.765-1.606-.638-1.654 2.748-.063 1.558 2.965-1.089 5.743-2.254 8.19-4.072-.779-.811-3.888 1.674-4.288-.763.461-.998 2.273.181 3.309-.209 2.451-.332-2.013-2.198.162-2.098.68.057 1.789-.3.769-.929 1.405-.939 2.992-1.09 4.576-.467-.84-1.668 1.08-2.422 2.022-1.041.09-2.021 2.117-.982 3.409-.961-1.531-.379-2.355-1.511-3.493-2.405-3.009-4.094-8.547-5.934-11.401-9.838-1.745 1.118-.939-.946-2.532-1.331-.544-2.422-2.773-4.359-5.365-5.085-1.585-.673 2.438-.385.88-1.029-1.762.648-2.721-1.563-3.15-2.185Z" fill="#515198"/><path d="M145.297 111.383c1.861.651.858 3.287-1.144 3.414-1.453.758.88.6 1.404.028-.903 2.131-2.662 3.749-5.045 3.168-3.12.289.644.737-.21 1.451-2.811-.282-4.347 1.726-6.821 2.719.135.879 1.409-.071 1.616.803.57 2.234 2.977-1.116 3.922.196-1.572 1.534-5.13.967-5.718 3.222-1.377-.723-.872 2.108-1.825 1.315 1.148-1.606-1.015-.818-1.744-.207-2.618-.199.73 1.416-.799 2.309-1.407.445-2.298-.536-3.788-.828-.405-.854-.473-1.977-1.65-2.112-2.656-.157-.296-2.284-1.109-3.607 2.856-2.225 5.307-4.955 8.26-7.044 1.742-1.813 3.649 1.584 4.041-.368 2.482-.962 5.863-1.317 7.866-3.386 1.191-.483 3.964.536 2.744-1.073Z" fill="#44447F"/><path d="M118.432 121.304c4.475-3.617 9.033-8.074 14.992-8.72-.822 1.286-1.796 2.465-2.778 3.626-2.953 2.089-5.404 4.819-8.26 7.044-.208.165-.413.33-.617.5-.109.095-.325.284-.436.376-1.581 1.471-3.507 3.408-2.951 5.727-.471 4.261-1.082 8.643-3.302 12.405 1.951 1.28-1.149 3.388-1.435 5.031-2.471-.576-1.929 4.052-2.725 4.639-.272-2.258-.765.549-.005 1.351-1.922 1.213-1.649 3.039-1.669 4.838-.613-2.48-2.508.329-3.009 1.499-1.395 2.472-3.286 4.76-3.728 7.605 1.694 2.331 1.691 5.361 2.602 8.009.05.947 1.164-.761 1.264.377-.035 1.963.654 3.982 1.412 5.713 1.823.209.307 3.017 2.326 2.059-.915 1.637.846 2.646 1.759 3.797-2.043 2.595-3.431 5.763-6.014 7.825-.437 1.648-3.227 1.716-1.963 3.612-.646-.427-1.465-.657-1.745.296.997.916 3.296 2.018 2.938 3.548.839-2.753.729 1.768 2.238 1.039 2.377-1.159 1.592 2.541 3.098 3.059 1.985-1.336.257 1.546 2.025 2.034 3.269 1.678 2.134 5.534.347 7.843-1.084 1.237 1.19 2.495-.572 3.208.033 2.595 2.134 6.507-1.019 8.174-5.185-3.692-9.888-8.078-14.978-11.925-5.617-6.634-10.265-14.364-12.127-22.916.104-7.158-1.808-14.527.909-21.4 3.597-12.715 11.395-23.645 17.362-35.304 4.86-5.443 10.064-10.715 16.061-14.969Z" fill="#0A0A26"/><path d="M179.051 118.174c-1.124-.912-.097-3.413 1.346-2.095 1.623.611-.912.593.381 1.408 1.167 1.7-3.303 2.38-.377 2.186.56 1.596-3.054 3.384-4.672 2.568-.537-1.266 3.806-.781 1.799-1.97-1.772.424-7.217.264-4.635 2.877-1.762 3.122 3.474 2.241 4.178 1.297-1.472-1.08.448-2.103 1.075-.598-.15-1.47 1.946.151 1.363-1.27 1.125-1.313 3.326.673 1.214 1.213.739 1.793 2.511-1.027 3.439.924 1.459 3.113 4.784.739 7.242 2.048 2.969-1.259 1.809 1.472.268 2.29-1.654 1.943 2.256 2.18 2.741.664.873-2.078 3.874.785 4.864-1.129 2.803-1.65 3.941 1.79 6.846 1.496-1.036.39-2.848-.789-3.309.209.4 2.437 3.509-.047 4.288.764-2.447 1.818-5.225 2.982-8.19 4.071-1.591 1.19-1.543-2.195.063-1.558 1.511.456-.772-1.055.31-1.765-1.743-.833-3.222 1.123-4.85.22-1.081-.336-1.039 1.088-1.696 1.549-.612.45-2.275.698-1.352 1.69.14.827 1.794.31 1.44 1.244-1.253-.637-2.957 1.449-2.071-.733.441-3.1-2.87-1.968-4.015-.431 2.207-.519 2.144 1.387-.34.847-2.22 0 .793 2.647 1.989 1.633.354 1.731-1.854-.815-2.177.706-.59 1.627-2.802-3.023-2.814-.928 1.962.729-.704.805-1.498.996 1.217.644 2.789.607 4.038.94.97 1.461-1.602.176-2.12.457.151.759-.408.992-1.059 1.093-3.425 1.458-7.159 1.5-10.4 3.36-1.43 1.372-.867-1.759-1.455-1.774-.274 2.777-2.732 5.356-5.792 4.771.984-.725 2.467-2.188.489-3.192.589 2.852-1.753.694-2.168-.962-1.116-.204-.088 1.919.111 2.658-.346-1.036-2.138-1.014-1.636-2.205-.511-2.127-1.534 4.357-.463 2.289 1.941-1.354.994 5.234.291 1.234-.788-1.468-.111 1.328-1.342.48-.647-.273-2.708-.192-1.567.726-1.109 1.38-1.439-1.153-2.663.222-.8-1.32-4.15-.645-1.542-.382.761 1.123-2.008 2.89-3.045 1.706-1.878.676 1.042.907.422 2.448 3.283-.191-1.81 2.393-.653.161-.576 1.799-2.42 3.264-4.365 3.014.272-.28.545-.558.823-.833 2.836-.695 1.4-6.373 4.637-5.272-.668-1.922 2.226-2.396 2.682-4.306 1.112-1.396 1.242 1.39 1.451 2.23 1.081.73.589-1.789.975-2.428 1.341-.593 2.474-1.603 3.161-2.971-.858.155-2.141 1.874-2.566.407 2.293-.303-2.769-1.665-1.462-2.627 1.816.665 2.608-1.658 1.686-2.944-.511-1.166 1.254-.472 1.676-1.236 1.22-.649.477 1.736 1.704 1.32-.129-1.032-.305-2.116.682-2.794-.639-1.624-1.299 1.256-2.022.082-.023-1.061-1.468-2.495-.048-2.837-.668-.559-1.37-2.183-2.216-1.813.752 1.34-3.329 1.937-1.084 2.331-.668.817-1.639.476-2.522.287-.945.29-2.391 1.106-1.718-.526-2.961-.98 1.503-.507 2.257-1.958 1.77-.169 3.572-.315 4.771-1.795-.892-.474-1.599-.95-.371-1.58-2.726-.608 1.3-2.171 1.884-3.088-.461-.565-.808-1.243-.267-1.897 1.844-1.408 4.063-.436 5.444 1.146-.852.109-1.698.164-2.538.315-.136 1.329 2.254.586 2.325 2.306 1.403-1.244 2.564-2.869 2.944-4.727-.9.201-1.64 1.177-2.456.183.913-1.299 2.143-1.36 3.076-.09 2.338.408-1.978-1.287.167-1.202 1.481.028 2.857 1.055 4.419.631-1.244-1.61 1.068-2.807 2.004-1.407-2.708-.42-1.462 1.013-.093.741 1.485.91 1.873-.127 2.664-1.115Z" fill="#3F3F72"/><path d="M215.349 122.964c1.052-.024 2.311-.57 3.243.126 1.738 3.972 7.188 1.704 10.609 2.521-2.579.733-6.275-.704-8.397.544-.013 2.794 1.485-.595 3.248.425 3.018.111 5.647 1.85 8.713 1.488 2.037-.123 3.89.291 4.005 2.606.788 2.583 1.04 5.385 1.483 8.061-.518 1.34-2.132 1.048-2.496-.236-.373 1.557-1.44 2.638-2.415 3.819.123 1.942 1.571-1.105 2.138.744-1.777.279-2.927 3.431-4.676 2.049-1.783.229-2.675 3.248-2.762-.401-1.568 2.683-.933-.668-1.851-1.576-.866.884-1.108-.414-1.744-.533-1.536.038-4.079 3.49-5.055.932-.206-1.365-1.89.497-1.362 1.377-2.183.051-1.056-3.753-3.127-2.794 1.729-.791 1.519-3.291 1.482-4.573-2.914 1.407-1.035-2.573-1.088-4.26.933.738-.42 2.297.963 3.063.891 1.431.294-.257.096-.815.653-.449 1.417.051 2.113.125-.71-1.429-1.425-3.062.684-1.698-.573-1.74-1.134-4.006.605-1.765.448 2.735.48-1.338 1.79-.182 1.969 1.562-1.736-4.315-1.314-1.807-1.417-.265.743-3.289-1.078-3.348-.532.848-1.492 2.134-1.49.389.699-.89 1.809-.664 2.707-1.118-.642-.635-1.546-.726-2.384-.893.229-1.593-1.891-1.268-2.64-2.27Zm12.463 5.109c.283 1.187.387 1.463-.707.82-.211 1.899-1.535-.536-1.289 1.562-1.442-1.826-1.573 1.364-1.617 2.461.303 3.336-1.406-.833-2.291.459.235 2.086 2.605 3.619 2.115 5.6 1.079.883.426-.948.487-1.643.656.116 2.284-.638 1.625-1.274-1.507.531.08-1.442-.898-2.167.036-1.9 1.322 1.464 1.858-.094 1.315-.756.383 1.35-.601 1.413.432.885 1.736 1.208 1.822 2.223-.659-.504-1.999-.914-1.4.409-1.648-1.024-.646 2.301.426.827.376-1.474 2.646.465 2.306-1.123-1.262.068-.447-1.196-.617-1.958 1.339-1.48 2.591 2.127 3.09 3.325.418-.961 2.356-.948 1.683.407 3.064.83.364-5.773.998-1.301-2.041-1.333.894-4.072.152-5.678-.965-2.134 1.057.47 1.394 1.314.948-1.812-.781-3.353-1.722-4.492 1.737 1.412 1.193-1.09-.477-.551-1.915.861-2.185 1.421-4.338.91-.426 2.129-.207-1.956-1.999-1.449Z" fill="#6464B5"/><path d="M234.083 125.28c1 1.671 3.031 3.265 2.687 5.394-.115-2.315-1.968-2.729-4.005-2.606-3.066.362-5.695-1.376-8.713-1.488-1.763-1.02-3.261 2.369-3.248-.425 2.122-1.248 5.818.189 8.397-.544 1.354-.279 4.489 1.513 4.882-.331Z" fill="#8585D2"/><path d="M217.666 127.246c-.001 1.744.958.458 1.49-.389 1.821.058-.339 3.082 1.078 3.347-.421-2.508 3.284 3.369 1.314 1.808-1.31-1.157-1.342 2.916-1.79.182-1.739-2.242-1.178.024-.604 1.764-2.11-1.364-1.395.269-.685 1.698-.696-.074-1.459-.574-2.113-.125.198.558.795 2.246-.096.815-1.383-.766-.03-2.325-.963-3.062.053 1.686-1.826 5.666 1.088 4.26.037 1.281.247 3.781-1.482 4.573 2.071-.96.944 2.845 3.128 2.794-.529-.881 1.155-2.743 1.361-1.378.976 2.558 3.519-.893 5.055-.932-1.741 1.162.741 1.826 1.461 2.522-.876 1.188-1.144 5.109-3.215 3.277-1.792-1.354.721-3.164.144-4.747-.57 1.318-1.922 1.622-3.018 2.337.95 1.059 2.013 2.604.847 3.904-.814-1.321-.692-3.986-2.066-4.442-1.894 1.329 1.807 1.863.265 2.577-1.221-1.576-.73 2.633-2.151 1.494-2.149-.436-.947 1.878-2.129 2.803-.591 1.645-.629 3.475-1.379 5.086.771.736 1.734 1.818.85 2.869-.04-1.661-2.366-2.987-1.258-4.693.805-1.391 2.238-6.733.191-6.165 1.014 2.331-1.671.027-1.032 1.918 1.989.073-.558 1.09-.753 2.179-1.735-.503-1.444 2.173-1.674 3.31.124 1.441 2.124-.559 1.318 1.162-1.42 1.504.026 3.369-.786 5.32.466.843-.601 2.281 1.077 2.012-.13-1.42.733-2.712-.003-4.107.912-.785.736.233.648.919 1.433.477-.343 1.623.51 2.44.75 1.23-2.39.606-1.564 1.944 1.003 1.594 2.925 1.538 3.315 3.403 1.156-.696.805-2.018-.376-2.419.129-2.162 1.902.79 1.654 1.826.406 1.536 1.507-1.687 2.307.149-.152 3.588-3.524 5.43-4.538 8.686-1.3 2.02-2.571 3.332-3.743 5.387-2.32 1.933-1.497 5.342-2.539 7.925 2-1.168-.09 1.427-.054 2.311.625.857-.691 1.777-1.343 1.707-1.571-.726 1.623-2.669-.203-2.799-.161-1.069 1.871-1.862.663-2.66-2.114 1.251-2.171 4.037-1.813 6.205.351.926-1.336 3.208-1.731 1.539-.489-1.19-1.185.731-1.789 1.061-1.03-1.34 1.718-3.264 1.872-5.047.413-.744.236-1.545-.188-2.232 2.529-1.252 3.07-4.445 3.957-6.863 1.74-3.406 2.958-6.935 4.874-10.189 1.676-1.876-.949-3.207-1.583-4.95-2.475-.155-.969-2.782-.56-4.206.844-1.84.492-3.942-.539-5.611-.443-.408-.182-2.175-.91-1.286-1.038.283-.04-2.983-1.228-2.027-.935 1.499-1.241-4.307-.396-2.002 1.387 2.797 1.677-.722 1.584-2.096 1.577-.444-.021-2.413.715-3.42-1.295 1.971-2.037-3.094-.787-.325-1.229-1.447 1.023-4.034.197-6.258-1.049-.874-1.734-4.009-2.854-1.822-.815 1.338-.959-2.002-1.916-.573.796-.828 2.05-1.927.168-2.463-1.143-.771-.285 1.15-1.369 1.418 1.035 2.308-1.378.207-1.667-.953-2.021.736-3.842 2.798-6.338 2.287-1.166 1.004-2.725 3.601-4.728 2.797-2.415-1.024-1.175 2.794-1.814 3.365-1.001-2.125-2.182.642-1.816 1.947-.869-1.572-1.214-.935-1.922.331-.693-.915-.867-2.122-1.569-3.049-.633.965-.515 2.675-1.963 2.78.46-4.663-2.211.456-1.754 1.881-.614-1.76-2.93-1.223-3.877-.172-1.01-.389-1.819-.647-2.322.556-1.924-.428-2.584 2.357-4.494 1.71.451 3.429-1.009-2.329-1.192.639 1.121 1.594-.866.466-.527 2.224-1.526-.28-3.523-1.104-3.675 1.313-.425-1.135-.075-2.725-1.505-1.96-.455-1.271-1.341-2.715-1.405-.443 1.202 1.797-.332.943-1.11-.099-1.286-.029-1.349 1.543-.734 2.449-.95-.433-1.549.169-1.943.994-2.179.964-1.174-1.315-1.396-2.434-1.538.019.286 3.094-1.513 2.888-1.403.216-.485 1.517.606.994-.163 1.194-2.013 1.574-3.052 1.492.018-.923.708-1.464 1.455-1.86-.884.176-1.843.281-2.257-.697-1.053.997-.703 2.909-2.083 3.508-1.007.257-.144-.863-.04-1.334-.535-.576-1.293-.559-1.994-.35.825-1.168 1.353-2.518 2.592-3.25 3.683-1.961 7.325-4.037 11.26-5.496 3.421-1.37 7.191-4.205 10.949-2.924.306-3.238 4.729-3.445 7.067-4.748 2.21.31 4.03-1.313 5.944-2.188 3.752-.47 7.856-1.359 10.926-3.364 3.627.357 6.935-2.204 10.598-2.54 1.439-1.58 3.574-2.287 5.444-3.296.672-.759-1.083-.501-.632-1.167.377-.834 2.371-1.514 1.632-.043 2.184-1.419 4.731-2.046 6.938-3.431Z" fill="#7272C3"/><path d="M121.333 124.13c.111-.091.327-.281.436-.375-.67 1.336-.24 2.754-.269 4.159 1.621-.361 3.551 1.844 2.739 3.35-.375.768-.505 4.016-1.988 2.509-.665 1.098-2.261 4.243-1.731.641-1.993 1.481.278 3.225-.176 5.188-1.967-.125-1.087 2.424-1.565 3.424 1.059-.076 1.762.578 2.306 1.487.582-.79 1.008-1.68 1.415-2.568.657.763 1.124 1.668 1.807 2.41-.7-1.336-.118-1.513 1.104-.984.687-2.245 3.685-.541 4.842-2.641-1.615-1.273 1.746-.794-.103-1.526-1.95 1.296-3.255-1.346-1.087-1.851 1.448-1.115-1.942-1.068-1.193-2.327-.767.319-1.541 1.096-2.374.491.707-.911 1.777-1.391 2.815-1.82 1.808-.777.975 2.162 2.404 2.595-1.125-2.385 1.404-3.375 3.042-4.107 1.733.425-.781 1.098-.945 1.91-.251 1.037.961 1.873.05 2.78.971-.143 2.659-1.357 2.923.088 1.552.462-.802-2.483 1.029-2.806 2.689-.468-.194 2.361.638 3.817-1.007-.658-2.226-.446-3.089.358 2.361.643.101 2.757 1.59 4.033.256-.979 2.714-2.596.729-2.894-1.627-.639 1.158-1.147 1.823-1.546-1.027 1.934 2.103.857 2.22-.284 1.696.037.679-2.714-.554-1.131-1.953 1.78-2.516-3.24-1.016-.799 2.455.237-1.571-2.658.533-3.182 1.365-.435-.041 2.166 1.749 1.377 2.937-.408.504-5.027 3.571-4.262.81.446 2.858-1.651 2.548-.369-.769 2.021-2.814 2.388-1.587 4.632 1.076-.422.773-2.934 2.16-1.517.596 2.082-1.485 1.156-1.645 2.595.61.974 1.304-.96 1.889-.175 1.026 1.155.562-2.363 1.243-.888.892 1.689-.919 3.631-2.539 4.037 2.866.336 1.019 3.87 3.64 4.613 1.186-1.972 2.58 1.24 4.151 1.5-.349 1.304-1.723 2.08-2.317 3.301-1.483 1.447-2.655-3.328-3.12-1.409 1.867 3.104-.394 6.168-1.627 8.845-.277.274-.55.552-.822.832-3.471 1.349-3.617 5.324-5.964 7.811-1.567 2.696-2.723 5.593-3.743 8.53-.771 1.099-1.533 2.203-2.325 3.285 2.277-5.171 4.42-10.79 7.778-15.624 1.421-1.015-1.036-4.269 1.521-3.434-.824-1.582-1.043-3.591 1.343-3.084.068 2.074 1.459.577 1.32-.679 3.358.911-1.004-4.017.019-1.491.318 1.054-1.787.383-1.048-.489 1.766-1.01 1.365-3.157 1.733-4.912-1.276-.91-2.572 2.113-4.343 1.771-.1 2.006 1.447 3.471 1.625 5.204-1.641.311-1.002-2.652-2.816-1.999.677 1.774-2.305 1.782-1.386 3.214.212.753 1.747 1.091.6 1.758-1.24.409-.963-2.39-2.386-1.735-.914.42-1.253-.453-1.634-1.1-2.907-1.022-4.481-3.323-7.443-3.882-1.548.592.161-2.291-1.349-1.746-2.239 1.021-.107-1.798-1.727-2.129-2.048-.24 1.464 3.542-.505 2.098-1.449-2.065-4.273.51-5.644-1.657-.395-1.45-.551.989-1.458-.264-.146-1.758-2.878-3.611-1.08-5.072.186-2.861-.063-5.893 1.584-8.413.512.82.07 2.154.943 2.688.358-1.315.208-3.052 1.836-3.594.216-1.332-2.218-.659-1.321-.053-1.994 1.562-.88-1.298-.815-2.175-1.362-1.559.134-2.981 1.036-4.338Z" fill="#2D2D4D"/><path d="M227.813 128.073c1.791-.506 1.572 3.578 1.999 1.45 2.152.511 2.422-.05 4.339-.911 1.668-.539 2.212 1.964.475.552.941 1.139 2.67 2.679 1.722 4.491-.337-.843-2.359-3.448-1.393-1.314.741 1.606-2.194 4.345-.153 5.678-.632-4.473 2.066 2.131-.997 1.301.674-1.355-1.266-1.368-1.684-.407-.499-1.198-1.751-4.805-3.09-3.325.17.762-.645 2.026.617 1.958.341 1.588-1.93-.351-2.306 1.123-1.071 1.474-2.073-1.851-.426-.827-.598-1.323.741-.913 1.4-.409-.086-1.014-1.39-1.338-1.822-2.223.984-.063 1.916-2.169.601-1.413-.535 1.558-1.822-1.806-1.857.094.977.725-.609 2.698.897 2.167.66.636-.969 1.391-1.624 1.274-.061.695.591 2.526-.487 1.643.489-1.981-1.88-3.514-2.116-5.6.886-1.292 2.594 2.877 2.291-.459.044-1.097.175-4.287 1.617-2.461-.246-2.097 1.079.337 1.29-1.561 1.093.642.989.366.707-.821Z" fill="#54549E"/><path d="M118.382 129.857c-.556-2.319 1.37-4.256 2.951-5.727-.902 1.357-2.398 2.779-1.036 4.338-.065.877-1.179 3.737.815 2.175-.897-.607 1.537-1.28 1.321.053-1.628.542-1.478 2.279-1.837 3.594-.872-.534-.43-1.868-.942-2.688-1.647 2.52-1.398 5.552-1.585 8.412-1.797 1.462.934 3.315 1.081 5.073.907 1.253 1.062-1.186 1.458.264 1.37 2.167 4.194-.408 5.643 1.657 1.969 1.443-1.542-2.338.506-2.098 1.62.331-.512 3.15 1.727 2.129 1.509-.545-.199 2.338 1.348 1.745 2.962.56 4.537 2.861 7.444 3.883.381.647.72 1.52 1.634 1.1 1.423-.655 1.145 2.144 2.386 1.735 1.146-.667-.389-1.005-.6-1.758-.919-1.432 2.063-1.44 1.386-3.214 1.814-.654 1.175 2.31 2.816 1.999-.178-1.733-1.725-3.198-1.625-5.205 1.771.343 3.067-2.68 4.342-1.77-.367 1.755.033 3.902-1.732 4.912-.739.872 1.365 1.543 1.048.489-1.024-2.526 3.338 2.402-.019 1.491.139 1.256-1.252 2.753-1.32.679-2.387-.507-2.168 1.502-1.343 3.084-2.557-.835-.1 2.419-1.522 3.434-3.357 4.834-5.5 10.453-7.777 15.623-.405 2.468-2.597 3.774-4.16 5.49-.992.724-1.866 2.483-.604 3.319.89.659-1.505 1.8-1.227.292-1.282 1.499-1.863-.054-2.492-1.167-3.569-1.803-2.1 4.546-5.031 4.312-1.604.011-1.806 2.651-3.208 2.56.424-1.313 1.092-3.693 2.351-4.091.872 2.471 3.55-2.033 1.368-1.059-1.443.866-3.261 1.006-4.788.599-.404-1.013-1.444-.801-2.324-.828.017-.963 1.038-2.143.104-2.913-.331 1.253-.386 3.108-2.267 2.874-.971.228-.862 1.068.17.834-.693 4.783-5.192 8.047-7.302 11.76-.166.974 1.172 1.294 1.763 1.842-.098-.842-.589-2.669.847-2.458 1.476 1.668.905 3.824.948 5.823.785-.84 1.068-.227 1.278.655.895.444 5.083.132 2.497 1.494-2.113 2.018 1.931 2.192 2.129 4.307 1.591 1.829-.439 4.364.612 6.598-1.419.276-2.701 2.333-1.49 3.342-2.506 2.395 1.559 6.644-1.694 8.724.928 1.218 3.523-.726 3.124 1.533 1.275-.183 2.364-1.055 3.737-.668.09 1.251-3.222.023-1.623 1.449-.128 2.094 2.395.015 1.738 2.05-.05 1.66 3.533.37 3.106 2.323.844.959 2.456-.892 3.013.518-.249.784.046 1.172.887 1.183-.313.817-.807 1.529.216 2.074-5.402-2.93-10.462-6.639-15.423-10.219 3.153-1.667 1.052-5.579 1.019-8.174 1.762-.713-.512-1.971.572-3.208 1.787-2.309 2.922-6.165-.347-7.843-1.768-.488-.041-3.37-2.025-2.034-1.506-.518-.722-4.218-3.098-3.059-1.509.729-1.399-3.791-2.238-1.039.358-1.53-1.941-2.632-2.938-3.547.28-.954 1.099-.724 1.745-.297-1.264-1.896 1.525-1.964 1.963-3.612 2.583-2.062 3.971-5.23 6.014-7.825-.913-1.151-2.675-2.16-1.759-3.797-2.019.958-.503-1.85-2.326-2.059-.759-1.731-1.448-3.75-1.413-5.713-.099-1.138-1.213.571-1.263-.377-.911-2.648-.908-5.678-2.602-8.009.442-2.845 2.333-5.133 3.728-7.605.501-1.17 2.396-3.979 3.009-1.499.02-1.799-.253-3.625 1.669-4.838-.76-.802-.268-3.609.005-1.351.796-.587.254-5.215 2.725-4.639.286-1.643 3.386-3.751 1.435-5.031 2.22-3.761 2.831-8.144 3.302-12.405Zm12.27 20.704c.619 1.017 1.168 2.14-.123 2.995-2.149-1.552-.829 2.215-.33 3.273 1.072 2.356-3.041-2.269-2.053.578-.316 1.438 2.103 3.594.243 4.424.35-.912-.879-3.784-1.19-1.533-.846 2.288-2.609-.098-3.224-1.16-.553 1.035-.816 4.624.916 5.278-.691.761-.219 3.996-1.814 2.686-1.303-.911 1.229-2.71-.604-3.098-1.717 1.449.158 3.866-.259 5.817-.846-.987-.327-2.601-1.854-2.862.091 1.91.582 3.861.025 5.742-.965.108-.976-3.03-1.04.127-1.457-.011-.855 2.727-1.132 3.867 2.33 1.367-.717-3.498 1.399-2.988 1.17 1.483 1.257 3.489 1.848 4.674 1.815-.898 1.073 3.551-.129 4.424.938-.334 1.62.487 2.436.709.215-.962.677-2.056 1.812-2.11 1.356 1.183 3.253-.385 4.589-1.319.023-.845 2.361-4.183 1.915-1.657 2.336-3.358 4.655-6.865 5.743-10.918.827-2.572 2.847-4.459 3.32-7.061-.05-1.969-1.036-3.843-2.393-5.174-1.318-2.108-2.503 1.153-2.835 2.088.059-1.135-2.317-1.891-1.48-3.273.722.163 2.145.36 1.921-.781-2.469.243-3.073-2.726-5.707-2.748Z" fill="#20203C"/><path d="M201.577 138.889c1.084-.268.226-2.189 1.369-1.418 1.882.535.628 1.634-.168 2.462.957-1.429 1.101 1.912 1.916.573 1.12-2.186 1.805.948 2.854 1.822.826 2.225-1.426 4.812-.197 6.259-1.25-2.769-.508 2.295.787.325-.736 1.006.862 2.976-.715 3.419.093 1.375-.197 4.893-1.584 2.097-.845-2.305-.539 3.5.396 2.002 1.188-.956.19 2.309 1.227 2.026.729-.888.468.879.911 1.286 1.031 1.67 1.383 3.772.539 5.612-.409 1.423-1.915 4.051.56 4.206.634 1.742 3.259 3.074 1.583 4.95-1.916 3.254-3.134 6.782-4.874 10.189-.887 2.418-1.428 5.611-3.957 6.862.424.687.601 1.488.188 2.233-.612 1.069-1.106.165-1.211-.652-1.238.143-.74-1.161-.875-1.914.026-1.592-2.692 1.023-1.184 1.055 1.612.333.222 2.017-.403 2.701-.441-.454-2.031-1.473-1.504-.156 1.214.749-.099 1.65-.582 2.436-.046-1.175.018-2.414-.517-3.49-.141 1.736-.837 3.307-1.512 4.833-.311 3.773 1.526-2.432 1.932.065.444 1.062-1.118 2.879-2.069 1.784-1.169.887.613 3.293-1.274 3.001-.016.481.585 1.543-.321 1.224-.918-.509.365-2.31-.755-2.903-.592 1.589-.991 3.293-1.395 4.93.661 1.741-1.942-.26-1.172 1.916-.035 1.759-1.399 1.288-2.148.2-.779.967 1.024 4.357-1.306 3.679-1.399-.766-.888 2.045-2.35 1.396-1.409-1.478.561-5.252-2.602-5.058.499 1.074.954 2.21.957 3.414-2.971-1.134-1.616-4.611-2.013-6.766-1.113 1.961-.905 4.299-1.198 6.466-.832-2.981-2.14.066-3.942.28.658-1.377 1.447-3.085 3.253-3.659 1.026-1.787-2.809-2.306-.946-3.628.897-.22.796 1.605 1.68 1.706-.683-1.483 1.109-1.502.998-2.839 1.567-1.15-.161 3.911 2.03 3.206-.018-.654-.365-1.407.155-1.958.618.58.959 1.48 1.834 1.746.103-1.136.642-2.694-.1-3.606-1.385-1.461-1.422 2.447-2.225.742-.053-.458-1.291-1.205-.466-1.279 1.498.023-.308-2.666 1.46-2.426-1.732-1.797-1.412-4.556-.219-6.588 1.519-1.803-2.474-4.208.288-5.121 1.756-.71-.92-3.58-.666-.405-1.297.177-2.407 3.237-3.437 1.202.561-.409 1.615-2.326.279-1.788-.506.886-1.891.719-1.936-.368.578-1.716-2.775-1.775-1.975-.067-.957-.192-1.23-2.225-2.425-1.236-1.012-2.266.996-1.252 2.125-1.199.049-.834-1.097-2.766.281-2.355-.633 1.934 1.595 3.162 2.627 1.44-.993-.743-2.969-2.629-1.247-3.539 1.17-1.305 1.866 2.036.168.762.846 1.657 1.732 3.706 3.805 3.997.555.909 1.744-.623 1.951.728.353 1.138 1.035-.904 1.42-.551.815 2.23.171 5.098 1.521 7.101 1.743-.73.962-5.255 3.446-5.187.565 2.019-1.391 4.021.897 5.129-.277-1.734.858-3.502-.597-5.005.781-1.285-.404-4.098 1.704-3.998.336 1.304.245 2.883-.872 3.778.59 1.243.664 2.642 1.712 3.664-.584-1.905.793-4.062 2.872-3.705.303-.774 1.586-3.665-.142-2.22-1.519 1.374-1.205-1.627-2.278-2.161-.593-1.142.562-.926 1.31-.709.241-.719-.314-1.771-.888-.758-1.483-.962 1.141-2.537 1.712-1.278.598 1.345 2.799-.774 1.467-1.368-.702-.69-2.488.923-2.027-.77.038-2.435 1.494-2.334 1.774-.273.023-2.68-.474-5.296-1.33-7.827.983 2.242.757-.704 2.304-.986 1.838-.507-.415-4.189 1.333-2.931-.442 1.362.376 2.427 1.401 3.259 1.361-.946 5.18-1.52 4.036-3.838 2.95-.454-.043-2.908 1.763-4.443-1.277.281-2.191 1.413-3.294 2.083.133-1.115.188-2.421-1.118-2.774 1.238-.751 5.155-3.143 1.745-1.929.181-1.278-.409-4.527-1.121-1.959-1.591.388-2.791 2.373-1.404 3.673-1.541-.537-2.971-3.143-4.565-1.398-.015-1.674-1.017-2.474-1.82-.643-.625-.726-1.361-2.123-1.212-.29-.538-.793-1.391-1.242-2.21-1.684.059 1.602 2.577 1.572 2.389 3.391-.295 2.052-1.521-3.024-1.862-.961.796 2.147 1.615 4.292 2.414 6.439-.877 1.166-1.474 2.659-1.195 4.134-1.74.387.684-2.918-.561-3.687-.443 1.084-.603 2.339-1.404 3.241-1.672.459-1.276-2.001-1.674-3.044.942-.57 2.306-1.527 1.815-2.791-.829.995-1.695 2.129-3.042 2.388.73.331 1.273 1.034.545 1.709-.628 1.381-2.308-.806-2.876.713-1.052-.907-.309-2.359-.202-3.313-1.373-.194-1.374 1.599-1.652 2.369-1.176-.632-3.469.22-3.456-1.758 1.087 2.046 1.151-.215 2.499-.354-2.062-.659-.67-1.876-1.533-3.396-.752.575-1.502 1.776-2.419 1.742-.863-1.735 1.187-3.612.956-5.369-.836.333-1.116 1.393-1.969 1.615-.157-.877.929-3.202-.651-3.369-1.447.967-.51 1.675-1.067 3.631-2.067-.055-.816 3.371-2.703 4.071-1.098.553.144 1.473.592 2.029-1.511.245-2.078 3.81-.153 2.161.877-1.152 2.562.849.621.555-1.082 1.96.404 1.656 1.435.656-.023-2.303 1.946.445 1.98 1.509 2.351 1.863-3.674.113-1.246 2.039-.287 1.596-3.177-2.867-2.446.016-1.503 1.009.561-3.747-1.403-2.382-.866-1.584-.675-3.601-1.818-5.05-.547.662-.95 1.377.253 1.018-.552 2.094-.068 4.555-1.687 6.18-2.114-.449.618-1.681-.502-2.965 1.382-1.95-.116-3.336-.5-.302-1.185-1.451-1.116-3.237.847-3.824.366-1.851-2.891 1.567-3.203-.701.397-2.303-2.688.487-2.26-2.007 2.062.494 1.027-2.508-.008-1.184-.736 1.147-2.361-.239-3.137 1.076.901.426 1.908.491 2.878.645-.865.237-1.378.766-.735 1.583-.65 1.529-1.417-1.067-2.53-.68-.32.96.781 4.369-.825 2.113-.658.971.88 2.041.302 2.954-.757-1.906-3.06-.799-3.852-2.446.677-1.16 2.506.13 1.855-1.731 1.956-.077 3.006-3.736.561-1.709-2.605-2.394 1.458-4.167 2.884-5.781 1.146-.57-.863-2.326.36-2.294 1.43-.764 1.08.826 1.505 1.961.152-2.417 2.149-1.594 3.675-1.313-.339-1.758 1.648-.63.527-2.224.183-2.968 1.643 2.79 1.192-.64 1.91.647 2.57-2.137 4.494-1.709.503-1.203 1.312-.946 2.322-.557.948-1.05 3.263-1.588 3.877.173-.457-1.425 2.214-6.544 1.754-1.881 1.448-.105 1.33-1.816 1.963-2.78.702.926.876 2.134 1.568 3.048.709-1.265 1.054-1.903 1.923-.33-.366-1.306.815-4.072 1.816-1.947.64-.571-.601-4.389 1.814-3.365 2.003.804 3.562-1.794 4.728-2.797 2.496.511 4.317-1.552 6.338-2.287.289 1.159 2.702 3.26 1.667.953Zm-6.16 1.624c.111 1.266 2.063 1.016 2.458 2.257-1.354-.103-3.528-1.046-4.201.383-1.136.065-1.566 3.507.163 3.116-.041.468-.527 1.213.255 1.266 1.58-.171.192 2.323 1.879 1.547-1.471 1.076.638 2.602.546.573 1.561.238 3.161-.138 2.356-2.225-.488-1.745.607-2.896-.523-4.004 1.905.498.004-3.387-.793-1.699-.743-.469-.818-1.823-2.14-1.214Zm12.293 25.26c-.599 3.202-4.909.174-5.431 3.58-1.168 1.959-3.724 3.83-1.53 5.889 1.906 1.189-.801-2.984 1.43-2.231-.828-1.92 2.274-.468.705 1.055.602 1.667 2.58-.469 3.149 1.108-.678 2.089 3.349 1.745 3.938.502.4-1.589-2.026.859-1.587-.544.697-.359 2.355.195 1.866-.989-.553-1.78-.944.292-2.332.185-1.591 1.143-.765-.788-.606-1.54 1.191-.145-.776-1.836.809-1.16 1.483.86 1.833-2.579.249-1.482-.154 1.768-.359-2.075-1.779-1.043-1.486-1.152 2.337-.386 1.203-1.944-1.317-.547 1.382-1.393-.084-1.386Z" fill="#5A5AA7"/><path d="M235.758 138.499c.363 1.283 1.977 1.575 2.495.236.925 2.734.347 7.533.286 10.898-.106 1.812.954 4.238-.753 5.504.492-3.099.482-6.24.363-9.362-.496.686-.791.507-.938-.276-3.17 2.627-5.046 6.599-8.258 9.258.596.425.495 1.846-.187.872-3.538 2.681-3.171 7.377-5.79 10.537-.337-.983.935-1.85.997-2.895-1.466 2.862-4.685 3.559-6.343 6.208-.8-1.837-1.901 1.386-2.307-.149.248-1.037-1.525-3.989-1.654-1.826 1.181.401 1.532 1.722.376 2.418-.39-1.864-2.312-1.808-3.315-3.403-.826-1.337 2.315-.713 1.564-1.943-.853-.817.923-1.964-.51-2.441.088-.686.264-1.703-.648-.918.736 1.394-.127 2.687.003 4.107-1.678.269-.611-1.17-1.077-2.012.813-1.952-.633-3.816.786-5.321.806-1.721-1.194.28-1.318-1.162.23-1.136-.061-3.812 1.674-3.31.195-1.088 2.742-2.106.753-2.179-.639-1.89 2.047.414 1.032-1.918 2.047-.567.613 4.774-.191 6.166-1.108 1.706 1.218 3.031 1.258 4.692.884-1.05-.079-2.132-.85-2.869.75-1.61.788-3.441 1.38-5.085 1.181-.926-.021-3.24 2.128-2.803 1.421 1.138.93-3.07 2.151-1.495 1.542-.713-2.158-1.247-.265-2.576 1.374.455 1.253 3.121 2.066 4.442 1.166-1.3.103-2.845-.847-3.905 1.096-.715 2.448-1.018 3.018-2.336.577 1.583-1.936 3.393-.144 4.747 2.071 1.831 2.339-2.089 3.215-3.277-.72-.696-3.202-1.36-1.461-2.522.636.119.878 1.416 1.744.533.918.907.283 4.259 1.851 1.576.087 3.649.979.63 2.762.401 1.749 1.382 2.899-1.77 4.676-2.049-.566-1.849-2.015 1.198-2.137-.744.974-1.181 2.041-2.262 2.415-3.819Z" fill="#7D7DCC"/><path d="M195.417 140.513c1.322-.609 1.397.745 2.14 1.214.797-1.688 2.698 2.197.793 1.699 1.13 1.108.035 2.26.523 4.004.805 2.087-.795 2.463-2.356 2.226.092 2.028-2.017.502-.546-.574-1.687.777-.299-1.718-1.88-1.547-.781-.053-.295-.797-.254-1.265-1.729.39-1.299-3.052-.163-3.117.673-1.429 2.847-.486 4.201-.383-.395-1.241-2.347-.991-2.458-2.257Z" fill="#474785"/><path d="M172.36 144.447c3.241-1.861 6.975-1.902 10.4-3.36-1.913.875-3.734 2.498-5.944 2.188-2.338 1.303-6.761 1.51-7.067 4.748-3.758-1.281-7.527 1.553-10.949 2.923-3.935 1.46-7.577 3.536-11.26 5.497-2.025-.451-1.432 2.238-2.913 2.006 1.08 2.957-2.585 4.156-3.622 6.477-1.214 2.749-3.219 5.634-2.84 8.64-2.178 2.046-3.293 4.881-4.729 7.398 2.31 2.083 1.634 6.007 3.332 8.602.639 3.379.612 6.93 2.405 9.954.47 3.417 5.085 3.026 7.204 5.252 7.632 2.47 13.584 7.386 20.958 10.532 2.075-.014 2.786 3.094 5.188 2.527 4.849.008 9.515-1.385 14.367-1.517 1.79-.473 2.413 2.986 4.041 1.209-1.01 1.372 2.035 2.136-.204 2.542.762.61-.184 1.836-.955 1.789-1.17-1.475-1.462 1.189-.996 2.128-.489 3.269.079 6.714-.863 9.963-.729-2.787 1.541-5.964-.403-8.444 1.556-1.06-1.02-2.057.161-3.368 1.43-1.984.428-4.488-1.509-5.172-3.415.456-7.299.939-10.909 1.044-2.823 1.792-5.399-.411-7.798-1.567-2.239-2.053-5.475-2.845-8.258-4.227-2.116-2.015-5.153-3.712-8.036-3.914-1.069-2.007-3.385-2.75-5.56-2.495-.089-1.88-2.565-.302-3.079-1.968-.303-1.075-.848-.8-1.39-.03-.566-2.896-3.042.602-4.813.18-1.562 1.098-2.358-1.192-.731-1.715.235-1.678 2.294-1.168 2.79-2.48-.644-1.77-2.309-2.784-2.3-4.781 1.265-.598.614-3.014-.168-4.284-.143-2.129-1.089-4.177-2.249-5.968 2.485-1.075-1.52-2.565-.528-4.598 1.53-2.477 3.23-5.21 4.142-8.176 1.02-2.938 2.176-5.834 3.742-8.53 2.348-2.487 2.494-6.462 5.964-7.811 1.946.25 3.79-1.216 4.366-3.014-1.157 2.231 3.936-.353.653-.161.62-1.541-2.3-1.772-.422-2.448 1.036 1.184 3.806-.583 3.045-1.706-2.608-.263.742-.938 1.542.382 1.224-1.375 1.554 1.157 2.663-.222-1.141-.918.92-.999 1.566-.726 1.232.848.555-1.948 1.343-.48.702 4 1.65-2.589-.292-1.234-1.07 2.067-.047-4.417.464-2.289-.502 1.191 1.29 1.169 1.636 2.204-.199-.738-1.227-2.861-.111-2.658.415 1.657 2.757 3.815 2.168.962 1.978 1.004.494 2.468-.489 3.192 3.06.586 5.518-1.993 5.792-4.77.588.015.025 3.146 1.455 1.774Z" fill="#4D4D91"/><path d="M228.953 154.757c3.212-2.658 5.088-6.631 8.258-9.258.147.783.442.963.938.276.119 3.123.129 6.263-.363 9.362-9.919 16.071-19.192 32.696-29.447 48.529-3.148 3.364-4.999 8.008-8.759 10.955-.027-1.097 1.582-1.657.954-2.794-.506 1.57-2.303-.113-1.876 1.777.106 1.468-1.117 2.618-1.745 3.865-.889-.664.257-1.872.45-2.71-1.292.528-.403-.45-.174-1.139-1.103.412-2.237.631-3.386.949-.973-1.366 5.234-.865 3.413-3.055.429-1.499-1.09-3.186-1.332-.728 1.738.486-1.184 2.414-1.046.074 1.723-1.861-.07-1.116-1.649-.706.821-1.278 1.749-2.387 2.51-3.595-.439-1.249 3.129-3.245 1.289-3.474 1.617-1.213.861-5.675 3.552-4.244.604-.331 1.301-2.251 1.789-1.061.395 1.669 2.082-.613 1.731-1.539-.358-2.168-.301-4.954 1.813-6.205 1.208.797-.824 1.591-.663 2.66 1.826.13-1.368 2.072.203 2.799.652.07 1.968-.85 1.343-1.708-.036-.883 2.054-3.479.054-2.31 1.042-2.583.219-5.992 2.539-7.925 1.172-2.055 2.443-3.367 3.743-5.387 1.014-3.257 4.386-5.099 4.538-8.686 1.658-2.649 4.877-3.345 6.343-6.208-.062 1.045-1.334 1.912-.997 2.895 2.619-3.16 2.253-7.856 5.79-10.537.682.975.783-.447.187-.872Zm-7.549 12.198c-1.653.693-3.042 2.124-3.541 3.852.633.278 1.385-1.536 1.084-.276-.61 1.413.695 1.8 1.549 2.317-1.197.749.395 3.106.922 1.473-.61-2.183 2.212-5.879-.014-7.366Z" fill="#5959A5"/><path d="M130.652 150.561c2.634.022 3.238 2.991 5.707 2.748.224 1.141-1.199.944-1.921.781-.837 1.382 1.54 2.138 1.48 3.273.332-.935 1.517-4.196 2.835-2.089 1.357 1.331 2.343 3.206 2.394 5.175-.474 2.602-2.494 4.489-3.321 7.06-1.087 4.053-3.407 7.56-5.743 10.919.446-2.527-1.892.812-1.915 1.657-1.336.934-3.233 2.501-4.588 1.319-1.136.054-1.598 1.148-1.813 2.109-.816-.222-1.498-1.042-2.436-.709 1.202-.872 1.945-5.321.129-4.423-.59-1.185-.678-3.192-1.847-4.675-2.117-.509.93 4.356-1.4 2.989.277-1.14-.325-3.878 1.132-3.867.064-3.157.076-.019 1.04-.127.557-1.882.066-3.832-.025-5.742 1.527.261 1.008 1.875 1.854 2.861.417-1.95-1.458-4.368.259-5.816 1.833.388-.699 2.186.604 3.098 1.595 1.31 1.123-1.926 1.814-2.687-1.732-.653-1.469-4.242-.916-5.277.615 1.062 2.378 3.448 3.224 1.16.311-2.251 1.54.621 1.19 1.533 1.86-.83-.559-2.986-.243-4.424-.988-2.847 3.125 1.777 2.053-.578-.499-1.058-1.819-4.825.33-3.273 1.291-.855.742-1.979.123-2.995Z" fill="#151536"/><path d="M159.009 154.142c.064-2.273.95-.828 1.405.442-1.223-.031.786 1.724-.36 2.294-1.426 1.614-5.489 3.387-2.884 5.781 2.445-2.027 1.395 1.632-.561 1.709.651 1.861-1.178.571-1.855 1.731.792 1.647 3.095.54 3.852 2.446.578-.913-.96-1.982-.302-2.954 1.606 2.256.505-1.153.825-2.113 1.113-.387 1.88 2.209 2.53.68-.643-.816-.13-1.346.735-1.583-.97-.154-1.977-.219-2.878-.644.776-1.316 2.401.07 3.137-1.077 1.035-1.324 2.07 1.678.008 1.185-.428 2.493 2.658-.296 2.26 2.006.313 2.268 3.569-1.15 3.203.701-1.963.588-2.032 2.373-.847 3.824.383-3.034 1.882-1.648.5.303 1.12 1.283-1.612 2.515.502 2.964 1.619-1.625 1.135-4.086 1.687-6.18-1.203.359-.8-.356-.253-1.018 1.143 1.449.952 3.466 1.818 5.05 1.964-1.365-.101 3.391 1.403 2.382-.731-2.883 2.159 1.58 2.446-.016-2.428-1.926 3.597-.176 1.246-2.038-.034-1.065-2.003-3.813-1.98-1.51-1.031 1-2.517 1.304-1.435-.656 1.942.294.256-1.707-.621-.555-1.925 1.65-1.358-1.916.153-2.161-.448-.556-1.69-1.476-.592-2.029 1.887-.7.636-4.126 2.703-4.071.557-1.956-.38-2.664 1.067-3.631 1.58.167.494 2.492.651 3.369.853-.222 1.133-1.282 1.969-1.614.231 1.756-1.819 3.633-.956 5.368.917.034 1.667-1.167 2.419-1.742.863 1.52-.529 2.737 1.533 3.396-1.348.139-1.412 2.4-2.498.354-.014 1.978 2.279 1.126 3.455 1.758.278-.77.279-2.563 1.652-2.369-.107.955-.85 2.406.202 3.313.568-1.519 2.248.669 2.876-.713.728-.675.185-1.378-.545-1.709 1.347-.259 2.213-1.393 3.042-2.387.491 1.264-.873 2.22-1.815 2.79.398 1.044.002 3.503 1.674 3.044.801-.902.961-2.156 1.404-3.241 1.245.769-1.179 4.075.561 3.687 1.058-1.491 1.663-.11 2.416.857.856 2.531 1.353 5.147 1.33 7.827-.28-2.06-1.736-2.162-1.774.273-.461 1.694 1.325.08 2.027.77 1.332.594-.869 2.713-1.467 1.368-.571-1.259-3.195.316-1.712 1.278.574-1.013 1.129.039.888.758-.748-.217-1.903-.433-1.31.709 1.073.534.759 3.535 2.278 2.161 1.728-1.445.445 1.447.142 2.22-2.079-.357-3.456 1.8-2.872 3.705-1.048-1.022-1.122-2.42-1.712-3.664 1.117-.895 1.208-2.474.872-3.778-2.108-.1-.923 2.713-1.704 3.998 1.455 1.503.32 3.271.597 5.005-2.288-1.107-.332-3.11-.897-5.129-2.484-.068-1.703 4.457-3.446 5.188-1.35-2.004-.706-4.872-1.521-7.102-.385-.353-1.067 1.689-1.42.551-.207-1.351-1.396.181-1.951-.728-2.073-.291-2.959-2.34-3.805-3.996 1.698 1.273 1.002-2.068-.168-.763-1.722.91.254 2.796 1.247 3.539-1.032 1.723-3.26.494-2.627-1.439-1.378-.412-.231 1.521-.281 2.354-1.129-.053-3.137-1.067-2.125 1.199 1.195-.989 1.468 1.044 2.425 1.236-.8-1.708 2.553-1.649 1.975.067.045 1.087 1.43 1.254 1.936.368 1.336-.538.282 1.379-.279 1.788 1.03 2.035 2.14-1.025 3.437-1.202-.254-3.175 2.422-.305.666.405-2.762.913 1.231 3.318-.288 5.121-1.193 2.032-1.513 4.792.219 6.588-1.768-.24.039 2.449-1.459 2.426-.826.074.412.821.465 1.279.803 1.705.84-2.203 2.225-.742.742.912.203 2.47.1 3.606-.875-.265-1.216-1.166-1.834-1.746-.52.551-.173 1.304-.155 1.959-2.191.704-.463-4.357-2.03-3.207.111 1.337-1.681 1.357-.998 2.839-.884-.1-.783-1.926-1.68-1.706-1.863 1.322 1.972 1.842.946 3.628-1.806.574-2.595 2.282-3.253 3.66 1.802-.215 3.11-3.262 3.942-.281.293-2.167.085-4.505 1.198-6.466.397 2.155-.958 5.632 2.013 6.766-.003-1.204-.458-2.34-.957-3.414 3.163-.194 1.193 3.58 2.602 5.059 1.462.648.951-2.163 2.35-1.396 2.33.677.527-2.713 1.306-3.679.749 1.087 2.113 1.558 2.148-.201-.77-2.176 1.833-.175 1.172-1.915.404-1.638.803-3.342 1.395-4.931 1.12.593-.163 2.394.755 2.903.906.319.305-.743.321-1.223 1.887.291.105-2.114 1.274-3.002.951 1.095 2.513-.722 2.068-1.784-.405-2.496-2.242 3.708-1.931-.065.675-1.525 1.371-3.097 1.512-4.833.535 1.076.471 2.315.517 3.49.483-.786 1.796-1.687.583-2.436-.528-1.317 1.062-.298 1.503.156.625-.684 2.015-2.368.403-2.701-1.508-.032 1.21-2.647 1.184-1.055.135.753-.363 2.057.875 1.914.105.817.599 1.721 1.211.652-.154 1.782-2.902 3.707-1.872 5.047-2.691-1.431-1.935 3.03-3.552 4.244 1.84.229-1.728 2.225-1.289 3.474-.761 1.208-1.689 2.317-2.51 3.595 1.579-.41 3.372-1.155 1.649.706-.138 2.34 2.784.412 1.046-.075.242-2.457 1.761-.77 1.332.729 1.821 2.19-4.386 1.689-3.413 3.055 1.149-.318 2.283-.536 3.386-.949-.229.689-1.118 1.667.174 1.139-.193.838-1.339 2.046-.45 2.71.628-1.247 1.851-2.397 1.745-3.865-.427-1.891 1.37-.207 1.876-1.777.628 1.137-.981 1.697-.954 2.794 3.76-2.947 5.611-7.591 8.759-10.955-6.286 10.201-12.833 20.269-19.334 30.35-.611 1.223-1.484 2.15-2.945 1.965.43-.84 1.426-1.19 1.853-2.036.942-3.248.374-6.694.863-9.963-.466-.939-.174-3.603.996-2.128.771.047 1.717-1.179.955-1.789 2.239-.406-.806-1.169.204-2.541-1.628 1.776-2.251-1.683-4.041-1.21-4.852.133-9.518 1.525-14.367 1.517-2.402.567-3.113-2.541-5.187-2.526-7.375-3.146-13.327-8.063-20.959-10.532-2.119-2.227-6.734-1.836-7.204-5.252-1.793-3.024-1.766-6.576-2.405-9.955-1.697-2.595-1.023-6.519-3.332-8.602 1.436-2.517 2.551-5.352 4.729-7.398-.379-3.006 1.626-5.891 2.84-8.64 1.037-2.321 4.702-3.52 3.622-6.477 1.481.232.888-2.457 2.914-2.006-1.24.732-1.768 2.082-2.593 3.249.702-.208 1.459-.225 1.994.351-.105.471-.966 1.591.04 1.334 1.38-.599 1.03-2.511 2.083-3.508.414.978 1.373.873 2.257.696-.747.397-1.437.938-1.455 1.86 1.039.083 2.889-.297 3.052-1.491-1.091.522-2.009-.778-.606-.994 1.799.206-.025-2.869 1.513-2.888.222 1.118-.783 3.397 1.396 2.434.394-.825.993-1.428 1.943-.994-.615-.906-.552-2.478.734-2.449.778 1.041 2.311 1.896 1.11.099Zm-6.832 24.734c.367 1.265-1.77.392-1.011 1.408.99 1.308-1.345 1.169-1.575.122-.163-1.839-3.698-2.026-3.418.175-.951-.23-1.751-.424-.565.381-.918 2.291-4.837.922-5.831 2.649-1.163-.208.35-1.102-.282-1.533-.761-2-2.794.131-4.027.629-.439 3.79 2.819 6.559 2.416 10.348-.092 1.754 1.588 2.922 1.527 4.717.418 1.233.014 3.052 1.581 3.499 1.083-1.504 1.579 1.291 2.67 1.52 3.801 1.582 8.007 3.4 11.006 5.241 4.947 1.945 9.411 6.234 14.978 7.073-.187 1.833 4.513 2.818 5.4 1.271-2.099-.394-4.57-1.052-5.246-3.334.904-1.269-2.619-3.186-1.188-1.308 1.521 2.824-3.188-1.428-3.25-2.417 1.371-.5-.651-.49-.375-1.613 2.346.971-.483-1.528.867-2.483-.127-2.359-.313-4.248-2.206-6.131.036 1.57-.143 2.319.394 3.928-.742.004-1.348-.531-1.822-1.045 1.014-.611.955-1.794-.205-1.873.258-1.221 2.056-2.974-.401-3.37-2.733.727-1.539-3.047.564-2.327 2.068-1.901-3.046-3.681-1.939-5.813.676 1.178 2.775-.755 2.194.911-1.314 1.41 1.087 2.587 1.356 3.969-.74 1.286.704 3.264-1.689 2.323 1.333.844 1.621 4.078 3.215 2.591-1.494-1.54 1.794-.486 1.111-2.318.335-1.209-1.967-1.616-1.632-2.834 1.087-1.583 2.133-3.325 3.027-4.897-.284-.865-2.472-2.133-.62-2.502.076.706.084 1.819 1.017 1.051-.038-.977-1.492-1.806-.75-2.955-.962-.714-1.712.305-2.249.933.499 1.887-2.097.282-1.58-.871.236-1.682-2.434-.895-1.911.532-.233-.979-.987.205-1.595-.338-2.189-1.52-3.746 2.028-4.083 3.707 1.333 1.802-1.148 2.004-.993 4.106-.908-.885-.768-2.31-.868-3.452.606 1.013 2.364.514 1.188-.524-1.377-1.937 1.662-2.967 1.467-4.615-1.04 1.302-2.92 1.472-2.957 3.506-2.281-.139-.081-2.3-1.144-3.361-.111-.798 1.846-1.795.018-1.408-1.116-.772.196-2.421-.584-3.268Z" fill="#6767B9"/><path d="M201.01 156.047c.712-2.568 1.302.681 1.121 1.959 3.41-1.214-.507 1.178-1.745 1.928 1.306.354 1.251 1.66 1.118 2.775 1.103-.67 2.017-1.802 3.294-2.083-1.806 1.535 1.187 3.989-1.763 4.443 1.144 2.318-2.675 2.892-4.036 3.838-1.025-.832-1.843-1.897-1.401-3.259-1.748-1.258.505 2.424-1.333 2.931-1.546.282-1.321 3.228-2.304.986-.753-.967-1.357-2.348-2.416-.857-.279-1.475.318-2.968 1.195-4.134-.799-2.147-1.618-4.292-2.414-6.439.341-2.063 1.567 3.013 1.862.961.189-1.819-2.329-1.789-2.389-3.391.819.442 1.672.891 2.21 1.684-.149-1.833.587-.436 1.212.29.803-1.831 1.805-1.031 1.82.643 1.594-1.745 3.024.861 4.565 1.398-1.387-1.3-.187-3.285 1.404-3.673Z" fill="#4A4A8B"/><path d="M207.71 165.774c1.466-.008-1.233.838.084 1.385 1.134 1.558-2.689.792-1.203 1.944 1.42-1.032 1.625 2.812 1.779 1.043 1.584-1.097 1.234 2.343-.249 1.482-1.585-.675.382 1.015-.809 1.16-.16.752-.985 2.684.606 1.541 1.388.107 1.779-1.966 2.332-.186.489 1.184-1.17.63-1.866.99-.439 1.403 1.987-1.045 1.587.543-.589 1.243-4.616 1.587-3.938-.502-.569-1.577-2.547.559-3.149-1.108 1.569-1.523-1.533-2.975-.705-1.055-2.231-.753.475 3.42-1.43 2.232-2.194-2.06.362-3.931 1.53-5.89.522-3.405 4.832-.378 5.431-3.579Z" fill="#494989"/><path d="M221.404 166.956c2.226 1.486-.596 5.182.014 7.365-.527 1.633-2.119-.724-.922-1.473-.854-.517-2.159-.904-1.549-2.317.301-1.26-.451.554-1.084.276.499-1.727 1.888-3.159 3.541-3.851Z" fill="#42427A"/><path d="M134.95 175.266c.792-1.081 1.554-2.185 2.324-3.284-.911 2.967-2.611 5.699-4.141 8.177-.992 2.032 3.013 3.523.527 4.597 1.161 1.791 2.107 3.839 2.249 5.968.783 1.27 1.434 3.686.169 4.284-.009 1.997 1.656 3.011 2.3 4.781-.496 1.313-2.555.803-2.79 2.48-1.627.523-.831 2.813.731 1.716 1.771.421 4.247-3.077 4.813-.181.542-.769 1.087-1.045 1.39.031.514 1.665 2.989.088 3.079 1.967 2.175-.254 4.491.488 5.56 2.495 2.883.202 5.92 1.899 8.036 3.914 2.783 1.382 6.019 2.175 8.258 4.228 2.398 1.155 4.975 3.358 7.798 1.566 3.61-.104 7.494-.588 10.909-1.044 1.936.684 2.939 3.188 1.508 5.173-1.18 1.31 1.396 2.307-.16 3.367 1.944 2.48-.327 5.657.403 8.444-.427.846-1.424 1.197-1.853 2.037-.165.268-.417.368-.755.302-2.801.362 1.88-1.876-.617-2.381-2.245.488-1.772-.867-.63-1.575 3.331 2.882 5.651-5.284 2.244-6.617-2.512 2.011-.834-1.008.036-2.254-1.882.832.35-3.148-1.278-1.737-1.328 1.777-.607-1.87.337-1.198.86 1.27 3.736.255 1.405-.181.883-1.778-1.852.713-.818-.793 1.834-2.598-2.861-.962-4.368-.69-3.014.675-6.194 1.027-9.026 1.885 2.015-1.129-.314-2.029-1.605-1.665-1.779-1.535-4.055-1.633-5.903-3.129.469-1.55-1.807-.549-2.567-.939-.474-2.519-5.108-.768-5.468-3.986-1.647.669-2.328-1.388-3.524-.051.941.004 1.231.856 1.582 1.56-1.015-.195-3.789.723-1.778-.65-.988-.594-2.185-.928-1.026-2.126 2.936.177-.548-1.613-1.76-.405-2.222.866-.301-3.322-2.286-1.969-1.141.608 1.795 1.793.114 2.141-1.624-.308-2.656-2.003-4.398-1.764-1.294-1.406-3.779-.696-4.44-2.316-1.559 1.562-.774-1.272-2.4-.655-4.334.468-7.973 4.984-12.459 3.96-.62.967-2.903 1.317-2.367 2.618-1.076 1.397-5.094-1.776-4.659 1.36-2.905.637-.043-2.895-1.931-3.489-1.875-1.099.955-1.978-.252-2.751.833-.808 1.227 1.768 1.987 1.062.741-.435 1.104-2.066 2.021-1.753 1.437.922-1.643 1.586-.404 2.525 1.168-.475 3.293.664 2.773-1.805.111-.641 1.321 1.418 1.041.105.021-.664-.165-2.666.701-1.426.985 1.718 1.911-1.537 2.562.038 1.9.853 3.361-4.095 4.558-1.286.388-1.46 2.188-.928 2.946-1.942-1.635-.361-.48-1.598.597-1.764-2.545-1.156 1.159-3.375.079-4.766-2.069 2.478-3.612-2.248-2.079-4.195-1.529-1.08 1.104-2.55.739-.518 2.309-.444.948-3.462.155-4.73-.783 1.964-1.002.222-1.73-.768 1.792 1.749 3.176-2.086 1.463-1.899-.328-2.109-3.079-.031-2.082-2.609 1.563-1.716 3.756-3.022 4.16-5.49Z" fill="#3B3B69"/><path d="M152.177 178.876c.78.847-.532 2.496.584 3.268 1.828-.387-.129.61-.018 1.408 1.063 1.062-1.136 3.222 1.144 3.361.037-2.034 1.917-2.204 2.957-3.506.195 1.648-2.844 2.679-1.467 4.615 1.176 1.038-.582 1.537-1.188.524.1 1.142-.04 2.567.868 3.452-.155-2.102 2.326-2.304.993-4.106.337-1.679 1.894-5.227 4.083-3.707.608.544 1.362-.641 1.595.338-.523-1.427 2.147-2.214 1.911-.532-.517 1.153 2.079 2.758 1.58.871.537-.627 1.287-1.647 2.249-.933-.742 1.149.712 1.978.75 2.955-.933.768-.941-.345-1.017-1.051-1.852.369.336 1.637.62 2.502-.894 1.572-1.94 3.314-3.027 4.897-.335 1.218 1.967 1.625 1.633 2.834.682 1.832-2.606.779-1.111 2.318-1.595 1.487-1.883-1.747-3.216-2.591 2.394.941.949-1.036 1.689-2.323-.269-1.382-2.67-2.559-1.356-3.969.581-1.666-1.518.267-2.194-.911-1.106 2.132 4.007 3.912 1.939 5.813-2.103-.72-3.297 3.054-.564 2.327 2.457.396.659 2.149.401 3.37 1.16.079 1.22 1.263.205 1.873.474.514 1.08 1.049 1.823 1.045-.538-1.609-.359-2.357-.395-3.928 1.893 1.883 2.079 3.772 2.207 6.132-1.351.954 1.478 3.453-.868 2.482-.276 1.123 1.746 1.113.375 1.613.062.989 4.771 5.241 3.251 2.417-1.432-1.878 2.091.039 1.187 1.308.676 2.282 3.147 2.941 5.246 3.334-.887 1.547-5.587.562-5.4-1.271-5.567-.838-10.031-5.128-14.978-7.073-2.998-1.841-7.205-3.659-11.006-5.24-1.091-.23-1.587-3.025-2.67-1.521-1.566-.446-1.163-2.266-1.581-3.499.061-1.794-1.619-2.962-1.527-4.717.403-3.789-2.855-6.558-2.416-10.348 1.233-.498 3.266-2.629 4.027-.629.632.431-.881 1.325.282 1.533.994-1.727 4.913-.358 5.831-2.649-1.186-.805-.386-.611.565-.381-.28-2.201 3.255-2.014 3.418-.175.23 1.047 2.565 1.186 1.575-.122-.759-1.016 1.379-.143 1.011-1.408Z" fill="#7878C9"/><path d="M130.187 184.075c-1.262-.835-.388-2.595.604-3.319-.998 2.578 1.754.5 2.081 2.609 1.713-.187.329 3.648-1.462 1.899.727.99.946 2.732 1.729.769.793 1.267 2.154 4.285-.155 4.73.365-2.033-2.268-.563-.738.517-1.534 1.948.009 6.673 2.078 4.195 1.08 1.391-2.623 3.61-.079 4.766-1.077.166-2.232 1.403-.596 1.765-.759 1.014-2.559.481-2.947 1.941-1.197-2.809-2.658 2.139-4.558 1.286-.651-1.575-1.577 1.68-2.561-.038-.866-1.24-.68.762-.701 1.426.279 1.313-.93-.746-1.041-.105.519 2.469-1.605 1.33-2.774 1.806-1.238-.939 1.841-1.603.404-2.526-.917-.313-1.28 1.318-2.021 1.753-.76.706-1.154-1.87-1.987-1.062 1.207.773-1.623 1.652.253 2.751 1.887.594-.975 4.127 1.93 3.489-.435-3.135 3.583.037 4.659-1.36-.536-1.301 1.748-1.65 2.367-2.618 4.486 1.024 8.125-3.491 12.46-3.96 1.625-.617.84 2.217 2.399.655.661 1.62 3.146.91 4.44 2.316 1.742-.239 2.774 1.456 4.399 1.765 1.68-.349-1.256-1.534-.115-2.142 1.985-1.353.065 2.835 2.286 1.969 1.212-1.207 4.697.582 1.761.405-1.16 1.199.037 1.532 1.025 2.126-2.011 1.373.763.456 1.778.65-.351-.704-.641-1.556-1.582-1.56 1.196-1.337 1.878.72 3.525.051.36 3.218 4.993 1.467 5.467 3.986.76.39 3.036-.611 2.567.939 1.848 1.496 4.125 1.595 5.903 3.129 1.291-.363 3.62.536 1.605 1.665 2.832-.857 6.012-1.21 9.026-1.884 1.508-.273 6.203-1.909 4.368.689-1.034 1.506 1.701-.985.818.793 2.331.436-.545 1.451-1.405.181-.943-.672-1.665 2.975-.337 1.198 1.628-1.411-.604 2.569 1.278 1.737-.87 1.246-2.548 4.265-.035 2.254 3.406 1.333 1.086 9.499-2.244 6.618-1.143.707-1.615 2.062.63 1.574 2.496.505-2.185 2.743.616 2.381-3.02 1.029-6.44 1.378-9.608 1.999-1.391-1.261-5.057.372-5.656-2.034-.684-.082-1.329.357-2 .482.545-1.226-.483-1.256-1.525-1.393.68-.44.791-.809-.057-1.065-.069-1.152.777-1.948 1.651-2.539-.638-.693-.97-1.599-.827-2.541-1.673.367-1.26 1.996.122 2.507-.908 1.104-2.441 1.321-3.788 1.24.466-.844 1.504-.814 2.31-1.087-.871-1.177-2.989-1.31-3.547.253-.755 1.33-3.103 1.38-3.11 2.709-.945-.312-1.711.468-2.339 1.056.687.214 1.389.395 2.055.674-.894.55-3.397.951-2.04 2.299.265 1.062-.063 2.239-1.103 1.03-1.283-.745-.961 1.039-.815 1.789-1.457-.711-1.615-3.418.012-4.073 1.61-3.087 4.056-5.702 6.805-7.912 1.329.597 1.57-.894.122-.509-1.027-1.535 1.088-2.358 2.198-2.809-1.907-2.847 1.685-2.425 2.443-4.878.584-.971 3.417-.282 1.551-1.686 2.025-1.39-1.108-1.739-2.061-2.587-.932-.487-4.819.279-3.128-1.692-.755.096-1.479.323-2.203.539.72-.722-2.771-3.244-3.629-2.163 1.978 1.169-3.295 1.782-2.338-.191.731.282 2.553.263 1.8-.923-1.813-.613-4.609 1.823-5.987-.289-.231-1.169-2.922-.322-1.656.478.919.734-.707 1.508-.808 2.369-1.32-1.291-2.909-2.469-4.891-2.02-1.84-.636 3.268-1.734 1.008-2.29-1.277 1.656-4.619-.185-5.118 1.965.93.177 3.889-.827 2.566.813-.094.628 1.05.899 1.334 1.501-1.67-.322-2.995-1.638-4.741-1.663-.449-1.265.279-1.934 1.275-2.298-.92-.422-1.34-2.564-2.437-1.688-.966 1.652-4.286 1.183-3.057-1.002-2.907 1.22-4.461 4.15-7.72 4.691 2.358 1.363 3.099-1.33 5.506-1.337.693-.013 2.6-1.323 1.97.108-1.953.827-.619 3.91-3.171 3.205.719-.574-.346-2.193-.836-1.303.075 1.218-1.276.203-1.756 1.057.763.94 1.698 2.515 3.034 1.494 1.4.08 2.251 2.787.213 2.571-1.646-.463-2.041 3.42-.753 1.759.301-1.875 2.632-1.574 3.669-.476-2.201 1.177.224 2.765 1.322 3.308 1.513-1.16 1.797 1.895.779 1.704-.434-.905-1.09-.403-1.652.094 1.659 1.233 6.332.616 6.058 3.327 1.866-.03 2.823.387 1.018.958 1.782-.138 1.188 3.336 3.027 1.862-.348.865-.176 1.443.507 2.168-.809-.186-2.038-1.633-1.542.035-.564-2.041-2.417-4.584-4.852-3.67.293-.604.964-.786 1.512-1.08-1.005-1.886-2.78.181-4.311-.522.06.958 5.109 3.304 1.503 2.708.839.876.819 2.68 2.254 2.836.063-1.643 3.543-.909 2.415-.361-2.368-.409-.419 1.525-2.078 2.097-1.749 1.071-2.519-2.07-4.142-.906-1.439-.587-3.212.89-4.41-.248-.889-1.135-3.218 1.306-1.31.986-2.199.971 1.513 1.085.447 2.559-.851 1.799-2.953.378-4.16-.241-1.024-.546-.53-1.258-.217-2.075-.841-.011-1.136-.399-.887-1.183-.557-1.41-2.169.441-3.013-.518.428-1.953-3.156-.663-3.106-2.323.657-2.035-1.866.044-1.738-2.05-1.598-1.425 1.713-.198 1.624-1.449-1.374-.387-2.463.485-3.738.668.399-2.259-2.196-.315-3.123-1.533 3.252-2.08-.813-6.329 1.693-8.724-1.211-1.009.071-3.066 1.491-3.342-1.052-2.234.978-4.769-.612-6.598-.198-2.115-4.243-2.289-2.129-4.307 2.585-1.362-1.603-1.05-2.498-1.494-.209-.882-.493-1.495-1.278-.655-.043-1.999.528-4.155-.948-5.823-1.435-.211-.945 1.616-.847 2.458-.591-.548-1.929-.868-1.763-1.842 2.11-3.713 6.61-6.977 7.303-11.76-1.033.234-1.142-.606-.17-.834 1.88.234 1.935-1.621 2.266-2.874.935.77-.086 1.95-.103 2.913.879.027 1.919-.185 2.324.828 1.526.407 3.345.267 4.788-.599 2.182-.974-.497 3.53-1.369 1.059-1.259.398-1.927 2.778-2.351 4.091 1.402.091 1.604-2.549 3.208-2.56 2.931.234 1.462-6.115 5.031-4.312.63 1.113 1.211 2.666 2.492 1.167-.278 1.509 2.117.367 1.228-.292Z" fill="#2E2E4F"/><path d="M126.368 213.347c3.259-.542 4.813-3.472 7.72-4.692-1.229 2.184 2.091 2.654 3.057 1.002 1.097-.877 1.517 1.266 2.438 1.688-.997.364-1.725 1.033-1.276 2.298 1.746.025 3.071 1.341 4.741 1.663-.283-.602-1.428-.873-1.334-1.501 1.323-1.64-1.635-.636-2.566-.813.499-2.15 3.841-.31 5.118-1.965 2.26.556-2.848 1.654-1.008 2.29 1.982-.449 3.571.729 4.891 2.02.101-.861 1.728-1.635.808-2.369-1.266-.8 1.425-1.647 1.656-.478 1.378 2.112 4.175-.324 5.987.289.753 1.186-1.069 1.205-1.8.923-.957 1.973 4.316 1.36 2.339.191.857-1.081 4.348 1.441 3.628 2.163.724-.216 1.449-.443 2.203-.539-1.691 1.971 2.196 1.205 3.128 1.692.954.848 4.086 1.197 2.061 2.587 1.866 1.403-.967.715-1.55 1.686-.759 2.453-4.351 2.031-2.444 4.878-1.11.451-3.225 1.274-2.198 2.809 1.449-.385 1.207 1.105-.122.509-2.749 2.21-5.195 4.825-6.805 7.912-1.627.655-1.469 3.362-.012 4.073.581.197 1.177.355 1.767.526-5.166 1.093-10.564 1.407-15.674 2.897-5.183-1.422-10.575-3.289-14.492-7.048 1.207.619 3.309 2.04 4.16.241 1.066-1.474-2.646-1.588-.447-2.559-1.908.32.421-2.121 1.31-.987 1.198 1.139 2.971-.338 4.41.249 1.623-1.164 2.394 1.977 4.142.906 1.659-.572-.29-2.506 2.078-2.097 1.128-.548-2.352-1.282-2.415.361-1.435-.156-1.415-1.96-2.254-2.837 3.606.597-1.443-1.749-1.503-2.707 1.531.703 3.306-1.364 4.311.522-.548.294-1.219.476-1.512 1.08 2.435-.914 4.288 1.629 4.852 3.67-.496-1.668.733-.221 1.542-.035-.683-.725-.855-1.303-.507-2.168-1.839 1.473-1.245-2-3.027-1.862 1.805-.571.848-.988-1.018-.958.274-2.711-4.399-2.094-6.058-3.327.562-.497 1.218-.999 1.652-.094 1.018.191.734-2.864-.779-1.704-1.098-.543-3.523-2.131-1.322-3.308-1.037-1.098-3.368-1.399-3.669.476-1.288 1.661-.892-2.222.753-1.759 2.038.216 1.187-2.491-.213-2.571-1.336 1.021-2.271-.554-3.034-1.494.48-.854 1.831.161 1.756-1.057.49-.89 1.555.729.836 1.303 2.552.705 1.218-2.378 3.171-3.205.63-1.431-1.277-.121-1.97-.108-2.407.007-3.148 2.7-5.506 1.338Z" fill="#23233F"/><path d="M167.404 231.7c-1.382-.511-1.795-2.14-.121-2.507-.143.942.189 1.848.827 2.54-.874.592-1.72 1.388-1.651 2.539.848.256.737.626.056 1.066 1.043.137 2.07.167 1.526 1.393.671-.125 1.315-.564 2-.482.599 2.406 4.265.773 5.655 2.034-6.055 1.552-12.549 3.32-18.902 3.906-.59-.171-1.186-.33-1.766-.526-.146-.75-.468-2.535.814-1.789 1.041 1.209 1.369.032 1.104-1.03-1.357-1.348 1.145-1.749 2.039-2.299-.665-.279-1.367-.46-2.055-.674.629-.588 1.395-1.368 2.34-1.056.006-1.329 2.355-1.379 3.109-2.709.558-1.564 2.676-1.43 3.548-.253-.806.273-1.845.243-2.31 1.087 1.347.081 2.879-.136 3.787-1.24Z" fill="#3D3D6D"/></g><defs><filter id="a" x="-50" y="-36.099" width="423.253" height="417.852" filterUnits="userSpaceOnUse" color-interpolation-filters="sRGB"><feFlood flood-opacity="0" result="BackgroundImageFix"/><feColorMatrix in="SourceAlpha" values="0 0 0 0 0 0 0 0 0 0 0 0 0 0 0 0 0 0 127 0" result="hardAlpha"/><feOffset/><feGaussianBlur stdDeviation="50"/><feComposite in2="hardAlpha" operator="out"/><feColorMatrix values="0 0 0 0 0.147232 0 0 0 0 0.368412 0 0 0 0 0.733615 0 0 0 0.5 0"/><feBlend in2="BackgroundImageFix" result="effect1_dropShadow"/><feBlend in="SourceGraphic" in2="effect1_dropShadow" result="shape"/></filter></defs></svg>