<svg width="69" height="106" fill="none" xmlns="http://www.w3.org/2000/svg"><path d="M12.572 20.636c3.634-.727 7.089-2.22 10.74-2.855a18.629 18.629 0 0 1 6.335.983c.208.3.671 1.369 1.523 1.056.753.311-1.192.172-.426.497 1.253.351 2.331 1.288 2.594 2.459.77.186.38 1.183 1.224.643 1.38 1.887 4.057 2.777 5.512 4.756.55.432.948.98 1.688 1.162-.624-.01-1.604-.512-1.647.465-.456-.667-1.384-.303-.978.503-.766-.3-1.533-.227-2.212.226.493.304-.043.477-.372.45-1.051-.049 1.106.853-.078 1.013-1.405.143-1.955-1.52-3.31-.723-.479.925-1.93-.459-2.351.546-.235.733-2.125.618-1.325-.32.744-.396 1.305-1.717-.13-1.108-1.188-.633-2.796.515-3.501-.99-.449-.943-1.305.42-1.663-.447 1.021-.261-.042-1.22-.587-.586.283.687-.73-.097-.659.614-.303-.728-1.23-.233-.519.289-.34.456-2.872.882-2.02-.627-1.248-1.264 1.384-1.186 2.24-1.391.971.575-1.128.34-.869.952.782.395 2.53-.47 2.259-1.241-1.415.094.746-.235.182-1.057-.625-.394.6-.385-.184-.68-.698-.638-1.194.571-.651 1.012-.382.478-.57.98-1.288.54-.662.131-1.264-.562.045-.359-.452-.677-1.57-.098-.968.68-.756.205-1.42-.291-2.137-.305-1.037-.04 1.05.779-.08.581-.452-.614-1.046-.584-1.487.044.394.48.752.008 1.186-.089-.183.899-.744 1.684-1.423 2.285-.034-.831-1.19-.472-1.123-1.114.405-.073.815-.1 1.226-.152-.667-.765-1.74-1.235-2.631-.555-.262.317-.094.645.129.918-.283.443-2.229 1.199-.911 1.492-.594.305-.252.535.18.764-.58.716-1.451.786-2.307.868-.364.701-2.523.473-1.091.946-.326.79.374.395.83.255.427.091.897.256 1.22-.14-1.086-.19.887-.478.524-1.126.409-.179.748.606 1.07.877-.685.165.013.858.024 1.371.35.568.669-.825.978-.04-.478.328-.392.852-.33 1.351-.593.201-.234-.952-.824-.638-.204.37-1.057.034-.81.598.446.621.063 1.744-.815 1.423-.632.465 1.815 1.123.707 1.27.205.709.825-.122 1.24-.197a3.087 3.087 0 0 1-1.528 1.436c-.187.309.051 1.527-.472 1.174-.1-.406-.163-1.753-.7-1.078-.221.923-1.62 1.152-1.297 2.082-1.565-.532-.871 2.212-2.242 2.548.596-1.294 1.688-2.775.786-4.275.225-.928.792 1.38 1.508.68.287-.59.951-.964 1.12-1.595-.76-.126-1.433-1.678-2.006-.725-1.268-.36-.374-2.068-1.76-2.23.783-.196 1.659-1.135 1.227-1.952-.329-.713-.104.988-.6.43-.283-.38-.619.555-.914.084.078-.695 1.084-.248.796-1.254-.67-.685-.524.529-1.044.733-.594-1.085.395-1.262.766-2.24.15-.619-.84.395-1.231.179-1.483-.37-.307 1.863-1.727 2.06-.865.382-.185-.875-.845-.665-1.017.253.93 1.653-.258 1.538-.725-1.18-.453 1.247.491.386.596-.765 1.088.565.268.547-.056.552-1.57 1.072-1.073.137-.322.193-1.668.439-.881.748.96.144-.229.925-.353 1.399-.72-.617.373-1.639-.768-1.95.417-.388 1.006-.491 1.493-.173-.402-.704.992-2.071-.309-1.845-.885.156.253 1.58-.497 1.356-.127-.698-.944-.111-1.413-.042.44-.438-.146-.843-.024-1.344.08-.393 1.294-.718.457-.923-.792.353-2.015.832-1.47 1.985-.692-.21-.289-1.63-1.163-1.254-.502.207-1.019.439-1.361.88.403.292.777-.084 1.148-.238-.363.608 1.276.586.577 1.125-1.049.244-.418 1.521.525.895.894.354-.731.122.05.737-.56 1.016-2.009.192-2.341 1.277-.59-.256-.872-.17-.534.476-.33-.359-.556-.797-.873-1.165-.197.43-.403.86-.684 1.241-.263-.44-.603-.755-1.115-.719.23-.483-.194-1.715.757-1.655.219-.949-.879-1.792.085-2.508-.257 1.742.515.221.837-.31.716.729.78-.841.96-1.212.393-.729-.54-1.795-1.324-1.62.014-.68-.194-1.365.13-2.01.1-.083.198-.163.299-.243.393.64-.748 1.668.536 1.744.569.065.602.608.798 1.02.72.142 1.15.616 1.83.401.74-.431-.879-1.212.387-1.116.352-.295 1.398-.676.843.1.46.383.217-.985.882-.636.285-1.09 2.005-.816 2.765-1.557-.457-.635-1.621.985-1.897-.095-.1-.422-.715.037-.78-.388 1.196-.48 1.938-1.451 3.297-1.315.413-.345-1.407-.561.101-.701 1.152.28 2.003-.501 2.44-1.532-.254.277-1.382.353-.68-.013.968-.062 1.453-1.336.553-1.65.59.777-.75.285-1.326.518-.969 1-2.603 1.172-3.802 1.637-.19.944-1.112-.698-1.954.178.474-.562.945-1.131 1.343-1.753 3.647-1.254 7.42-2.258 11.242-2.9Z" fill="#373761"/><path d="M29.647 18.763c2.813.294 5.346 1.552 7.894 2.69a91.678 91.678 0 0 1 10.394 5.113c.722 1.008 1.426 2.037 2.057 3.106-.19.892-1.706.026-2.36.16-1.655-.394-4.289.702-5.13-1.218-.45-.337-1.059-.073-1.567-.061.362.484 1.387.327 1.276 1.097.405.081.842.125 1.153.432-.434.22-.971.11-1.31.54-1.066.67-2.297.973-3.353 1.66.357-.711-.607-.383-.79.02-.217.322.631.198.306.565-.903.487-1.936.829-2.631 1.593-1.771.162-3.37 1.4-5.124 1.227-1.484.97-3.468 1.4-5.282 1.627.315-.049.585-.162.512-.528.25-.136 1.494.485 1.025-.221-.604-.161-1.364-.143-1.952-.455.384-.092 1.672-.129.724-.481.006-1.013 1.075 1.235 1.36.448.157-.735 1.224.496 1.053-.34-.578.489-2.035-.79-.962-.79 1.201.26 1.232-.661.165-.41.553-.743 2.154-1.29 1.94.209-.428 1.054.396.046 1.002.354.171-.452-.629-.202-.696-.601-.447-.48.358-.6.654-.818.317-.222.297-.911.82-.748.786.436 1.501-.51 2.344-.107-.523.343.58 1.074-.15.854-.776-.309-.8 1.328-.03.753 1.433-.527 2.776-1.09 3.959-1.969-.377-.392-1.88.81-2.073-.368.223-.483 1.099.087 1.6-.102 1.184-.16-.973-1.062.078-1.014.329.028.865-.145.372-.449.679-.454 1.446-.527 2.212-.226-.406-.806.522-1.17.978-.503.043-.977 1.023-.475 1.647-.465-.74-.183-1.138-.73-1.688-1.162-1.455-1.98-4.132-2.869-5.512-4.756-.843.54-.453-.458-1.224-.643-.263-1.172-1.34-2.108-2.594-2.46-.766-.324 1.18-.185.426-.496-.852.313-1.315-.756-1.523-1.057Z" fill="#515198"/><path d="M7.07 22.954c.899.315.414 1.59-.554 1.65-.702.367.426.29.68.014-.437 1.03-1.288 1.812-2.44 1.532-1.508.14.312.356-.101.701-1.36-.136-2.102.835-3.298 1.315.066.424.681-.035.781.388.276 1.08 1.44-.54 1.897.095-.76.741-2.48.467-2.765 1.557-.665-.35-.421 1.02-.882.636.555-.776-.49-.395-.843-.1-1.266-.097.353.685-.387 1.116-.68.215-1.11-.259-1.83-.4-.197-.413-.23-.956-.798-1.021-1.284-.076-.143-1.104-.537-1.744 1.381-1.076 2.566-2.395 3.994-3.405.842-.877 1.764.765 1.953-.178 1.2-.465 2.834-.637 3.803-1.637.576-.234 1.916.259 1.326-.519Z" fill="#44447F"/><path d="M-5.918 27.75c2.163-1.748 4.367-3.903 7.248-4.215-.398.622-.869 1.191-1.343 1.753-1.428 1.01-2.613 2.33-3.994 3.405-.1.08-.199.16-.298.242l-.21.182c-.764.71-1.696 1.647-1.427 2.768-.228 2.06-.523 4.179-1.596 5.997.943.619-.556 1.638-.694 2.432-1.195-.278-.932 1.96-1.318 2.243-.131-1.092-.37.265-.002.653-.929.586-.797 1.47-.807 2.339-.296-1.2-1.212.159-1.454.724-.675 1.196-1.589 2.302-1.802 3.677.819 1.127.817 2.592 1.257 3.872.024.458.563-.368.611.182-.017.95.316 1.925.683 2.762.881.101.149 1.459 1.125.995-.443.791.408 1.28.85 1.836-.988 1.254-1.659 2.786-2.907 3.783-.212.796-1.56.83-.95 1.746-.312-.206-.707-.318-.843.143.482.443 1.594.975 1.42 1.715.406-1.33.353.855 1.082.502 1.15-.56.77 1.229 1.498 1.48.96-.647.124.747.979.982 1.58.812 1.032 2.676.168 3.792-.524.598.575 1.206-.277 1.55.016 1.255 1.032 3.147-.493 3.952-2.506-1.784-4.78-3.905-7.24-5.764-2.716-3.207-4.963-6.945-5.863-11.079.05-3.46-.874-7.023.44-10.345 1.738-6.147 5.508-11.43 8.393-17.067 2.349-2.631 4.865-5.18 7.764-7.237Z" fill="#0A0A26"/><path d="M23.387 26.237c-.544-.44-.047-1.65.651-1.012.785.295-.441.286.184.68.564.822-1.597 1.15-.182 1.057.27.771-1.477 1.636-2.259 1.241-.26-.612 1.84-.377.87-.952-.857.205-3.49.127-2.241 1.39-.852 1.51 1.68 1.084 2.02.628-.712-.522.216-1.017.52-.29-.073-.71.94.074.658-.613.544-.635 1.608.325.587.586.357.867 1.214-.496 1.663.447.705 1.505 2.313.357 3.501.99 1.435-.609.874.712.13 1.107-.8.94 1.09 1.054 1.324.32.422-1.004 1.873.38 2.352-.545 1.355-.798 1.905.866 3.31.723-.501.189-1.377-.38-1.6.102.193 1.177 1.696-.023 2.073.369-1.183.878-2.526 1.441-3.96 1.968-.769.575-.745-1.062.03-.753.731.22-.372-.51.15-.854-.842-.402-1.557.543-2.344.107-.522-.163-.502.526-.82.748-.296.218-1.1.338-.654.818.068.4.868.15.697.601-.606-.308-1.43.7-1.002-.354.214-1.5-1.387-.952-1.94-.209 1.067-.25 1.036.671-.165.41-1.073 0 .384 1.28.962.79.17.836-.896-.395-1.052.34-.286.787-1.355-1.461-1.361-.448.948.352-.34.389-.724.481.588.312 1.348.294 1.952.455.469.706-.775.085-1.025.22.073.368-.197.48-.512.529-1.656.705-3.46.725-5.027 1.625-.692.663-.42-.851-.704-.858-.132 1.342-1.32 2.589-2.8 2.306.476-.35 1.193-1.058.236-1.543.285 1.38-.847.336-1.048-.465-.54-.098-.042.928.054 1.285-.167-.5-1.034-.49-.79-1.066-.248-1.028-.743 2.106-.225 1.107.939-.655.48 2.53.14.596-.38-.71-.053.642-.648.232-.313-.132-1.309-.093-.757.352-.537.666-.696-.558-1.288.107-.386-.639-2.006-.312-.745-.185.368.543-.971 1.397-1.472.825-.908.326.504.438.204 1.183 1.587-.093-.875 1.157-.316.078-.278.87-1.17 1.578-2.11 1.457.131-.136.263-.27.398-.403 1.37-.336.677-3.08 2.242-2.549-.323-.929 1.075-1.158 1.296-2.081.538-.675.6.672.701 1.078.523.353.285-.865.472-1.174a3.086 3.086 0 0 0 1.528-1.436c-.415.075-1.035.906-1.24.197 1.108-.147-1.339-.805-.707-1.27.878.321 1.26-.802.815-1.424-.247-.563.606-.228.81-.597.59-.314.23.84.824.638-.063-.499-.148-1.023.33-1.35-.31-.786-.629.607-.978.039-.011-.513-.71-1.206-.023-1.371-.323-.27-.663-1.056-1.071-.877.363.648-1.61.936-.524 1.127-.323.395-.793.23-1.22.139-.457.14-1.156.535-.83-.255-1.432-.473.726-.245 1.091-.946.856-.082 1.727-.152 2.306-.868-.43-.23-.773-.46-.18-.764-1.317-.294.63-1.05.912-1.492-.223-.273-.39-.601-.13-.918.892-.68 1.965-.21 2.632.555-.411.052-.82.079-1.227.152-.065.642 1.09.283 1.124 1.114.679-.601 1.24-1.386 1.423-2.285-.434.097-.792.57-1.187.089.442-.628 1.036-.658 1.487-.044 1.13.198-.956-.622.081-.58.716.013 1.381.51 2.136.304-.601-.778.517-1.357.97-.68-1.31-.203-.708.49-.046.358.718.44.906-.061 1.288-.539Z" fill="#3F3F72"/><path d="M40.935 28.553c.508-.012 1.117-.276 1.568.06.84 1.921 3.474.825 5.129 1.22-1.247.354-3.034-.34-4.06.263-.006 1.35.718-.288 1.57.205 1.46.054 2.73.894 4.212.72.985-.06 1.88.14 1.937 1.26.38 1.248.502 2.602.717 3.896-.251.648-1.031.507-1.207-.114-.18.752-.696 1.275-1.168 1.846.06.939.76-.534 1.034.36-.86.135-1.415 1.659-2.26.99-.863.11-1.294 1.57-1.336-.193-.758 1.296-.45-.324-.895-.762-.418.427-.535-.2-.843-.258-.743.018-1.972 1.687-2.443.45-.1-.66-.914.24-.659.666-1.055.025-.51-1.814-1.512-1.35.836-.383.734-1.591.717-2.211-1.41.68-.5-1.244-.526-2.06.45.357-.203 1.11.465 1.481.431.692.142-.124.047-.394.316-.217.685.025 1.021.06-.343-.69-.689-1.48.331-.82-.277-.841-.548-1.937.292-.853.217 1.322.232-.647.865-.088.953.754-.838-2.087-.634-.874-.685-.128.359-1.59-.522-1.618-.257.41-.72 1.03-.72.188.338-.43.874-.322 1.309-.541-.31-.307-.748-.35-1.153-.432.11-.77-.914-.612-1.276-1.097Zm6.025 2.47c.136.573.187.707-.342.396-.102.918-.742-.259-.623.755-.697-.883-.76.66-.782 1.19.146 1.613-.68-.403-1.107.222.113 1.008 1.26 1.75 1.022 2.707.522.427.206-.458.236-.794.317.056 1.104-.309.785-.616-.728.257.039-.697-.434-1.048.017-.918.64.708.898-.045.636-.366.185.653-.29.683.208.428.839.584.88 1.075-.318-.244-.966-.442-.676.197-.797-.495-.312 1.113.206.4.181-.713 1.28.225 1.114-.543-.61.033-.216-.578-.298-.946.647-.716 1.253 1.028 1.494 1.607.202-.465 1.139-.458.814.197 1.48.401.175-2.791.482-.629-.987-.645.432-1.969.073-2.745-.466-1.032.512.227.675.635.458-.876-.378-1.62-.833-2.171.84.682.577-.527-.23-.267-.927.416-1.057.687-2.098.44-.206 1.03-.1-.945-.966-.7Z" fill="#6464B5"/><path d="M49.992 29.672c.483.808 1.465 1.579 1.299 2.608-.056-1.119-.952-1.32-1.936-1.26-1.483.175-2.754-.665-4.213-.719-.852-.493-1.577 1.145-1.57-.205 1.025-.604 2.813.091 4.06-.263.654-.135 2.17.73 2.36-.16Z" fill="#8585D2"/><path d="M42.055 30.623c0 .843.463.221.72-.188.88.028-.164 1.49.521 1.618-.203-1.213 1.588 1.629.635.874-.633-.56-.648 1.41-.865.088-.84-1.084-.57.012-.292.853-1.02-.66-.674.13-.331.82-.336-.035-.706-.277-1.021-.06.095.27.384 1.086-.047.394-.668-.37-.014-1.124-.465-1.48.025.815-.883 2.74.526 2.059.017.62.119 1.828-.717 2.21 1.001-.463.457 1.376 1.512 1.352-.255-.426.559-1.326.658-.666.472 1.236 1.701-.432 2.444-.45-.842.56.358.882.706 1.218-.423.575-.553 2.47-1.554 1.584-.866-.654.349-1.53.07-2.294-.276.637-.93.784-1.46 1.13.46.511.974 1.258.41 1.887-.393-.639-.335-1.927-.999-2.148-.915.643.874.9.129 1.246-.59-.762-.354 1.273-1.04.722-1.04-.21-.458.908-1.03 1.355-.285.795-.304 1.68-.666 2.459.373.356.838.88.41 1.387-.019-.803-1.143-1.444-.607-2.269.389-.672 1.081-3.255.092-2.98.49 1.127-.808.013-.499.927.961.035-.27.527-.364 1.053-.839-.243-.698 1.051-.81 1.6.06.697 1.027-.27.638.562-.686.728.013 1.629-.38 2.572.225.408-.29 1.103.52.973-.063-.686.355-1.311 0-1.985.44-.38.355.112.312.444.693.23-.166.785.247 1.18.363.594-1.156.292-.756.939.485.77 1.414.744 1.602 1.645.56-.336.39-.975-.181-1.17.062-1.045.92.383.8.884.195.742.727-.816 1.115.072-.074 1.734-1.704 2.624-2.194 4.199-.629.976-1.243 1.61-1.81 2.604-1.121.935-.724 2.582-1.227 3.831.967-.565-.044.69-.026 1.117.302.415-.334.86-.65.826-.76-.352.785-1.29-.098-1.353-.078-.518.905-.901.32-1.287-1.021.605-1.049 1.952-.876 3 .17.448-.646 1.551-.836.744-.237-.575-.573.353-.865.513-.498-.648.83-1.578.905-2.44.2-.36.114-.747-.091-1.079 1.222-.605 1.484-2.149 1.912-3.318.842-1.646 1.43-3.352 2.357-4.925.81-.907-.459-1.55-.765-2.393-1.197-.075-.469-1.345-.271-2.033.408-.89.238-1.906-.26-2.713-.215-.197-.089-1.052-.44-.622-.502.137-.02-1.442-.594-.98-.452.725-.6-2.082-.192-.967.67 1.351.811-.35.766-1.014.762-.214-.01-1.166.346-1.653-.626.953-.985-1.496-.38-.157-.595-.7.494-1.95.094-3.026-.507-.422-.838-1.937-1.379-.88-.394.647-.464-.968-.926-.277.384-.4.99-.932.08-1.191-.552-.373-.137.556-.661.685.5 1.116-.666.1-.806-.46-.977.355-1.857 1.353-3.064 1.106-.564.485-1.317 1.74-2.286 1.352-1.167-.496-.567 1.35-.876 1.626-.484-1.027-1.055.31-.879.942-.42-.76-.586-.453-.929.16-.334-.443-.419-1.026-.758-1.474-.306.466-.25 1.293-.95 1.343.223-2.254-1.068.221-.847.91-.297-.851-1.416-.591-1.874-.084-.488-.188-.88-.312-1.123.27-.93-.207-1.249 1.139-2.172.826.218 1.658-.488-1.126-.576.31.542.77-.42.224-.255 1.074-.738-.135-1.703-.533-1.777.635-.205-.549-.036-1.318-.728-.948-.22-.614-.648-1.312-.679-.214.581.87-.16.456-.536-.048-.622-.014-.653.746-.355 1.184-.46-.21-.75.082-.94.481-1.053.466-.567-.636-.674-1.177-.744.01.138 1.496-.732 1.396-.678.105-.234.733.293.48-.079.578-.973.762-1.475.722.008-.446.342-.708.703-.9-.427.086-.89.137-1.091-.336-.509.482-.34 1.406-1.007 1.696-.487.124-.07-.417-.02-.645-.258-.278-.624-.27-.963-.17.399-.564.654-1.217 1.253-1.57 1.78-.948 3.541-1.952 5.443-2.657 1.654-.663 3.476-2.033 5.293-1.414.148-1.565 2.287-1.665 3.417-2.295 1.068.15 1.948-.635 2.873-1.058 1.814-.227 3.798-.657 5.282-1.626 1.754.173 3.353-1.066 5.124-1.228.695-.764 1.728-1.106 2.632-1.593.324-.367-.524-.243-.306-.565.182-.403 1.146-.732.79-.02 1.055-.686 2.286-.99 3.353-1.66Z" fill="#7272C3"/><path d="M-4.516 29.117c.054-.045.159-.136.211-.182-.324.646-.116 1.332-.13 2.011.784-.175 1.717.891 1.325 1.62-.182.37-.245 1.94-.961 1.212-.322.53-1.094 2.052-.837.31-.964.716.134 1.56-.085 2.508-.951-.06-.526 1.172-.757 1.655.512-.036.852.28 1.115.72.28-.383.487-.813.684-1.242.317.368.543.806.873 1.165-.338-.646-.057-.732.534-.476.332-1.085 1.781-.261 2.34-1.276-.78-.616.845-.384-.05-.738-.942.626-1.573-.65-.524-.895.7-.54-.94-.517-.577-1.125-.371.154-.745.53-1.148.237.342-.44.86-.672 1.36-.88.875-.375.472 1.046 1.163 1.255-.544-1.153.679-1.632 1.47-1.986.838.206-.377.531-.456.924-.122.501.464.905.024 1.344.47-.07 1.286-.656 1.413.042.75.224-.388-1.2.497-1.356 1.3-.226-.093 1.141.31 1.845-.488-.318-1.077-.215-1.494.173 1.141.311.048 1.333.768 1.95.124-.473 1.312-1.255.353-1.4-.787-.308.56-.554.881-.747-.496.936 1.016.415 1.073-.137.82.018.328-1.312-.268-.547-.944.86-1.216-1.566-.49-.386 1.186.115-.76-1.285.257-1.538.66-.21-.02 1.047.845.666 1.42-.198.244-2.43 1.727-2.061.391.216 1.381-.798 1.231-.178-.371.977-1.36 1.154-.766 2.239.52-.204.373-1.418 1.044-.733.287 1.006-.718.559-.796 1.254.295.471.63-.464.913-.085.496.56.272-1.142.601-.429.432.817-.444 1.756-1.227 1.952 1.386.162.492 1.87 1.76 2.23.573-.953 1.247.6 2.006.725-.168.63-.832 1.006-1.12 1.596-.716.7-1.283-1.609-1.508-.681.902 1.5-.19 2.982-.786 4.276-.135.132-.266.267-.398.402-1.678.652-1.749 2.574-2.883 3.776-.758 1.303-1.317 2.704-1.81 4.124-.372.53-.74 1.065-1.123 1.587 1.1-2.5 2.136-5.215 3.76-7.552.687-.491-.501-2.064.735-1.66-.399-.765-.505-1.736.65-1.492.032 1.003.705.28.637-.328 1.623.44-.485-1.942.01-.72.153.51-.864.185-.507-.237.853-.488.66-1.526.837-2.374-.616-.44-1.243 1.02-2.099.856-.048.97.7 1.678.786 2.515-.794.15-.485-1.282-1.362-.966.327.858-1.114.862-.67 1.554.102.364.845.528.29.85-.6.197-.465-1.156-1.153-.839-.442.203-.606-.22-.79-.532-1.406-.494-2.167-1.606-3.598-1.877-.749.287.077-1.107-.653-.844-1.082.494-.051-.869-.834-1.029-.99-.116.707 1.712-.245 1.015-.7-.999-2.065.246-2.728-.801-.191-.701-.266.478-.705-.128-.07-.85-1.39-1.746-.522-2.452.09-1.383-.03-2.849.766-4.067.247.396.034 1.041.456 1.3.173-.637.1-1.476.887-1.739.105-.643-1.072-.318-.638-.025-.964.755-.426-.628-.394-1.051-.659-.754.065-1.441.5-2.097Z" fill="#2D2D4D"/><path d="M46.96 31.023c.866-.245.76 1.73.966.7 1.04.248 1.171-.024 2.098-.44.807-.26 1.07.95.23.267.455.55 1.29 1.295.832 2.171-.163-.407-1.14-1.667-.673-.635.358.776-1.06 2.1-.074 2.745-.306-2.162.998 1.03-.482.629.325-.655-.612-.662-.814-.197-.242-.58-.847-2.323-1.494-1.607.082.368-.312.98.298.946.165.768-.933-.17-1.114.543-.518.713-1.003-.895-.206-.4-.29-.64.358-.441.676-.197-.041-.49-.672-.647-.88-1.075.475-.03.926-1.049.29-.683-.259.753-.88-.873-.898.045.473.351-.294 1.305.434 1.048.319.307-.468.672-.785.616-.03.336.286 1.22-.236.794.237-.958-.909-1.699-1.022-2.707.428-.625 1.253 1.39 1.107-.222.021-.53.085-2.073.782-1.19-.119-1.014.521.163.623-.755.529.31.478.177.342-.396Z" fill="#54549E"/><path d="M-5.942 31.885c-.269-1.12.662-2.058 1.426-2.768-.436.656-1.159 1.343-.5 2.097-.032.424-.57 1.806.394 1.051-.434-.293.743-.619.638.026-.787.262-.714 1.101-.887 1.737-.422-.258-.209-.903-.456-1.3-.796 1.219-.676 2.685-.766 4.068-.869.706.451 1.602.522 2.452.438.606.514-.573.705.127.663 1.048 2.028-.197 2.728.802.952.697-.745-1.13.244-1.015.784.16-.247 1.523.835 1.03.73-.264-.096 1.13.652.843 1.432.27 2.193 1.383 3.599 1.877.184.313.348.735.79.532.688-.317.554 1.037 1.153.838.554-.322-.188-.485-.29-.849-.444-.692.997-.696.67-1.554.877-.316.568 1.117 1.362.966-.086-.837-.834-1.545-.786-2.516.856.166 1.483-1.296 2.1-.855-.178.848.015 1.886-.838 2.374-.358.422.66.746.506.237-.494-1.222 1.614 1.16-.009.72.067.607-.605 1.331-.638.328-1.154-.244-1.048.727-.649 1.491-1.236-.403-.048 1.17-.736 1.66-1.623 2.338-2.659 5.054-3.76 7.553-.195 1.193-1.255 1.825-2.01 2.654-.48.35-.902 1.2-.292 1.605.43.318-.728.87-.594.141-.62.725-.9-.026-1.204-.564-1.726-.872-1.016 2.197-2.433 2.084-.775.005-.873 1.282-1.55 1.238.204-.635.527-1.785 1.136-1.978.421 1.195 1.716-.983.662-.512-.698.419-1.577.486-2.315.29-.196-.49-.698-.388-1.124-.4.009-.466.502-1.036.05-1.409-.16.606-.186 1.503-1.095 1.39-.47.11-.417.516.082.403-.335 2.312-2.51 3.89-3.53 5.685-.08.471.566.626.852.89-.047-.406-.285-1.29.41-1.188.713.806.437 1.849.458 2.815.38-.406.516-.11.617.317.433.215 2.458.064 1.208.722-1.022.976.933 1.06 1.03 2.082.768.885-.213 2.11.295 3.19-.686.133-1.306 1.128-.72 1.615-1.212 1.159.753 3.212-.82 4.218.45.589 1.704-.351 1.51.741.617-.088 1.144-.51 1.807-.323.044.605-1.557.011-.784.7-.062 1.013 1.158.008.84.992-.024.802 1.708.179 1.501 1.123.409.463 1.188-.431 1.457.25-.12.379.022.567.429.572-.152.395-.39.739.105 1.003-2.612-1.417-5.058-3.21-7.457-4.94 1.525-.806.51-2.698.493-3.952.852-.345-.247-.953.277-1.551.864-1.116 1.412-2.98-.168-3.792-.855-.235-.02-1.629-.98-.983-.727-.25-.348-2.039-1.497-1.478-.73.352-.676-1.834-1.082-.503.174-.74-.938-1.272-1.42-1.715.136-.46.531-.35.843-.143-.61-.917.738-.95.95-1.746 1.248-.997 1.919-2.529 2.907-3.783-.442-.557-1.293-1.045-.85-1.836-.976.463-.244-.894-1.125-.995-.367-.837-.7-1.813-.683-2.762-.048-.55-.587.276-.61-.182-.441-1.28-.44-2.745-1.258-3.872.213-1.375 1.127-2.481 1.802-3.677.242-.565 1.158-1.923 1.454-.724.01-.87-.122-1.753.807-2.339-.367-.388-.13-1.745.002-.653.386-.284.123-2.521 1.318-2.243.138-.794 1.637-1.813.694-2.432 1.073-1.818 1.368-3.937 1.596-5.997Zm5.932 10.01c.3.49.564 1.034-.06 1.447-1.039-.75-.4 1.07-.16 1.582.519 1.139-1.47-1.096-.992.28-.153.695 1.017 1.737.118 2.139.169-.441-.425-1.83-.576-.742-.408 1.106-1.26-.047-1.558-.56-.267.5-.395 2.235.442 2.55-.333.369-.105 1.933-.876 1.3-.63-.441.594-1.31-.292-1.498-.83.7.076 1.869-.125 2.812-.41-.477-.159-1.258-.897-1.384.044.924.281 1.867.012 2.776-.466.052-.471-1.465-.502.061-.705-.005-.414 1.319-.548 1.87 1.127.66-.346-1.69.677-1.445.565.717.607 1.687.893 2.26.878-.434.519 1.717-.062 2.139.453-.162.783.235 1.177.342.104-.464.328-.993.876-1.02.656.572 1.573-.186 2.219-.637.01-.409 1.14-2.023.926-.801 1.129-1.624 2.25-3.32 2.776-5.279.4-1.243 1.376-2.155 1.605-3.413-.024-.952-.501-1.858-1.157-2.501-.637-1.019-1.21.557-1.37 1.01.028-.55-1.12-.915-.716-1.583.35.08 1.037.174.929-.378-1.194.118-1.486-1.317-2.76-1.328Z" fill="#20203C"/><path d="M34.277 36.251c.524-.129.109-1.058.662-.685.91.259.303.79-.081 1.19.462-.69.532.925.926.277.541-1.056.872.459 1.38.881.399 1.076-.69 2.326-.096 3.026-.604-1.34-.245 1.11.38.157-.355.486.417 1.439-.345 1.653.045.664-.095 2.365-.766 1.013-.408-1.114-.26 1.693.192.968.574-.462.092 1.117.593.98.352-.43.226.425.44.622.498.807.669 1.823.26 2.712-.197.689-.925 1.959.271 2.034.307.842 1.576 1.486.766 2.393-.926 1.573-1.515 3.279-2.357 4.925-.428 1.17-.69 2.713-1.912 3.318.205.332.29.72.09 1.08-.295.516-.534.08-.585-.316-.598.07-.358-.561-.423-.925.013-.77-1.301.494-.572.51.78.16.107.975-.195 1.306-.213-.22-.982-.713-.727-.076.587.362-.048.798-.281 1.178-.023-.568.008-1.167-.25-1.687-.069.839-.405 1.598-.731 2.336-.15 1.824.737-1.175.933.032.215.513-.54 1.391-1 .862-.565.429.296 1.592-.615 1.45-.008.233.282.746-.156.592-.443-.246.177-1.116-.365-1.403-.286.768-.479 1.592-.674 2.383.32.842-.94-.126-.567.926-.017.851-.676.623-1.038.097-.377.468.495 2.106-.631 1.779-.677-.37-.43.988-1.137.675-.68-.715.271-2.54-1.257-2.446.24.52.46 1.069.462 1.65-1.436-.547-.78-2.228-.973-3.27-.538.948-.437 2.078-.58 3.126-.401-1.441-1.034.032-1.905.135.318-.666.7-1.491 1.573-1.769.496-.863-1.358-1.115-.458-1.754.434-.106.385.776.813.825-.33-.717.536-.726.482-1.372.758-.556-.078 1.89.981 1.55-.008-.317-.176-.68.076-.947.298.28.463.716.886.844.05-.55.31-1.302-.048-1.743-.67-.707-.688 1.183-1.076.358-.026-.221-.624-.582-.225-.618.724.011-.149-1.289.705-1.173-.837-.868-.682-2.202-.105-3.184.734-.872-1.196-2.035.14-2.476.848-.343-.446-1.73-.323-.196-.627.085-1.164 1.565-1.661.581.27-.198.78-1.124.134-.864-.244.428-.914.347-.935-.178.279-.83-1.342-.858-.955-.033-.463-.092-.595-1.075-1.173-.597-.489-1.095.482-.605 1.027-.58.025-.403-.53-1.337.137-1.138-.307.935.77 1.529 1.27.696-.48-.36-1.436-1.27-.603-1.71.565-.632.902.983.08.368.41.8.838 1.791 1.84 1.932.268.44.843-.301.944.352.17.55.5-.437.686-.266.394 1.078.083 2.464.735 3.432.843-.353.466-2.54 1.666-2.507.273.976-.672 1.944.434 2.479-.134-.838.415-1.693-.289-2.42.378-.62-.195-1.98.824-1.932.162.63.118 1.394-.422 1.827.286.6.321 1.276.828 1.77-.282-.92.383-1.963 1.388-1.79.147-.374.767-1.772-.068-1.074-.734.665-.583-.786-1.102-1.044-.286-.552.272-.448.634-.343.116-.348-.152-.856-.43-.367-.716-.465.552-1.226.828-.618.29.65 1.353-.374.71-.66-.34-.334-1.204.446-.98-.373.018-1.177.722-1.128.857-.132.011-1.296-.23-2.56-.643-3.784.475 1.084.366-.34 1.114-.477.888-.245-.2-2.025.644-1.416-.214.658.182 1.173.678 1.575.658-.457 2.504-.735 1.95-1.855 1.427-.22-.02-1.406.853-2.148-.617.136-1.06.683-1.592 1.007.064-.54.09-1.17-.54-1.341.598-.363 2.491-1.52.843-.933.087-.618-.198-2.188-.542-.947-.77.188-1.35 1.148-.68 1.776-.744-.26-1.435-1.52-2.206-.676-.007-.81-.492-1.196-.88-.311-.302-.35-.658-1.026-.586-.14-.26-.383-.672-.6-1.068-.814.029.774 1.246.76 1.155 1.64-.142.991-.735-1.463-.9-.465.385 1.038.78 2.075 1.167 3.113-.424.563-.713 1.285-.578 1.998-.841.187.33-1.41-.271-1.782-.214.524-.292 1.13-.679 1.567-.808.221-.617-.968-.809-1.472.455-.276 1.115-.738.878-1.35-.401.481-.82 1.03-1.471 1.155.352.16.615.5.263.826-.303.668-1.116-.39-1.39.345-.509-.439-.15-1.14-.098-1.602-.663-.094-.664.773-.798 1.145-.57-.305-1.677.107-1.67-.85.524.99.555-.104 1.207-.17-.997-.32-.324-.907-.741-1.642-.364.277-.726.858-1.17.842-.417-.839.574-1.747.462-2.596-.404.161-.539.674-.951.781-.076-.424.449-1.548-.315-1.629-.7.468-.247.81-.516 1.755-.999-.026-.394 1.63-1.307 1.969-.53.267.07.712.287.98-.731.12-1.005 1.843-.074 1.045.424-.556 1.238.41.3.269-.523.947.195.8.693.317-.01-1.114.941.215.958.73 1.136.9-1.776.054-.602.985-.14.771-1.536-1.386-1.183.008-.727.488.271-1.812-.678-1.152-.419-.766-.326-1.74-.88-2.441-.263.32-.458.665.123.492-.267 1.012-.033 2.202-.815 2.988-1.022-.217.298-.813-.243-1.434.668-.943-.056-1.613-.242-.146-.573-.701-.54-1.565.41-1.848.177-.895-1.398.757-1.549-.34.192-1.112-1.3.236-1.093-.97.998.24.497-1.212-.003-.572-.356.554-1.142-.115-1.517.52.436.206.923.237 1.392.312-.419.115-.667.37-.356.765-.314.74-.685-.515-1.223-.328-.154.464.378 2.112-.399 1.021-.318.47.426.987.146 1.428-.366-.921-1.479-.386-1.862-1.182.328-.561 1.212.062.897-.837.946-.037 1.453-1.806.271-.826-1.259-1.158.705-2.015 1.395-2.795.553-.276-.418-1.124.173-1.109.692-.37.523.4.728.948.074-1.169 1.039-.77 1.777-.635-.164-.85.796-.305.255-1.075.088-1.435.793 1.349.576-.31.923.314 1.242-1.033 2.172-.826.243-.581.634-.457 1.123-.269.458-.508 1.577-.767 1.874.084-.22-.689 1.07-3.164.848-.91.7-.05.643-.877.949-1.343.34.447.424 1.031.758 1.473.342-.612.51-.92.93-.16-.177-.63.394-1.968.878-.94.309-.277-.291-2.123.876-1.628.969.39 1.723-.866 2.286-1.351 1.206.246 2.087-.75 3.064-1.106.14.56 1.306 1.576.806.46Zm-2.978.786c.054.611.997.49 1.188 1.09-.654-.05-1.705-.505-2.03.186-.55.031-.758 1.695.078 1.506-.02.227-.255.587.123.612.764-.083.093 1.123.909.748-.711.52.308 1.258.264.277.755.115 1.528-.067 1.139-1.076-.236-.843.293-1.4-.253-1.935.92.24.002-1.638-.383-.822-.36-.226-.396-.881-1.035-.586Zm5.943 12.211c-.29 1.548-2.373.084-2.626 1.73-.564.948-1.8 1.852-.74 2.848.922.574-.386-1.443.692-1.08-.4-.927 1.1-.225.34.511.292.806 1.248-.227 1.523.536-.328 1.01 1.62.843 1.904.242.193-.767-.98.416-.767-.262.336-.174 1.138.094.902-.479-.267-.86-.457.142-1.127.09-.77.553-.37-.381-.294-.745.576-.07-.375-.887.391-.56.718.415.887-1.247.12-.717-.074.855-.173-1.003-.86-.504-.717-.557 1.13-.187.582-.94-.636-.264.669-.673-.04-.67Z" fill="#5A5AA7"/><path d="M50.801 36.063c.176.62.956.761 1.206.114.448 1.322.168 3.642.138 5.269-.05.876.462 2.049-.363 2.66.238-1.498.233-3.016.175-4.526-.24.332-.382.245-.453-.133-1.533 1.27-2.44 3.19-3.993 4.475.289.206.24.893-.09.422-1.71 1.296-1.533 3.566-2.799 5.094-.163-.475.452-.895.482-1.4-.709 1.384-2.265 1.721-3.066 3.002-.387-.888-.92.67-1.116-.072.12-.502-.737-1.929-.8-.883.572.194.741.832.182 1.169-.188-.901-1.117-.874-1.602-1.645-.4-.647 1.119-.345.756-.94-.413-.395.446-.949-.247-1.18.043-.331.128-.823-.313-.444.356.674-.061 1.3.001 1.986-.81.13-.295-.566-.52-.973.393-.943-.306-1.845.38-2.572.39-.832-.577.135-.637-.562.111-.549-.03-1.843.809-1.6.094-.526 1.325-1.018.364-1.053-.309-.914.99.2.499-.927.99-.275.297 2.308-.092 2.98-.536.825.588 1.466.608 2.269.427-.508-.038-1.031-.411-1.387.362-.779.38-1.664.667-2.459.57-.447-.01-1.566 1.029-1.355.687.55.45-1.484 1.04-.722.745-.345-1.044-.603-.128-1.246.663.22.605 1.509.998 2.148.564-.629.05-1.376-.41-1.888.53-.346 1.184-.492 1.46-1.13.279.766-.936 1.64-.07 2.295 1.002.886 1.13-1.01 1.554-1.584-.348-.336-1.548-.657-.706-1.219.308.057.425.685.843.258.444.438.137 2.058.895.762.042 1.764.473.304 1.335.193.846.669 1.402-.855 2.26-.99-.273-.894-.973.579-1.032-.36.47-.57.986-1.093 1.167-1.846Z" fill="#7D7DCC"/><path d="M31.299 37.037c.64-.295.675.36 1.035.587.385-.817 1.304 1.062.383.82.546.536.017 1.093.253 1.937.389 1.008-.384 1.19-1.139 1.075.044.981-.975.243-.264-.277-.816.375-.145-.83-.909-.748-.378-.025-.142-.385-.123-.611-.836.188-.628-1.476-.079-1.507.326-.691 1.377-.235 2.032-.185-.192-.6-1.135-.48-1.19-1.091Z" fill="#474785"/><path d="M20.153 38.938c1.566-.9 3.372-.92 5.027-1.624-.925.423-1.805 1.208-2.873 1.058-1.13.63-3.269.73-3.417 2.295-1.816-.62-3.639.751-5.293 1.413-1.902.706-3.663 1.71-5.443 2.658-.98-.218-.692 1.081-1.409.97.523 1.429-1.25 2.008-1.75 3.13-.587 1.33-1.557 2.724-1.373 4.178-1.053.989-1.592 2.359-2.286 3.576 1.116 1.007.79 2.904 1.61 4.158.31 1.634.296 3.35 1.163 4.813.227 1.651 2.458 1.462 3.482 2.538 3.69 1.194 6.568 3.571 10.133 5.092 1.003-.007 1.346 1.496 2.508 1.221 2.344.004 4.6-.669 6.945-.733.865-.229 1.166 1.443 1.953.585-.488.663.984 1.032-.098 1.228.368.295-.09.888-.462.865-.566-.713-.707.575-.481 1.03-.237 1.58.038 3.245-.418 4.815-.352-1.347.745-2.883-.194-4.082.752-.512-.494-.994.077-1.628.692-.96.207-2.17-.729-2.5-1.651.22-3.529.454-5.274.505-1.364.866-2.61-.2-3.77-.758-1.082-.992-2.646-1.376-3.992-2.044-1.023-.974-2.491-1.794-3.885-1.892-.516-.97-1.636-1.329-2.688-1.206-.043-.909-1.24-.146-1.488-.951-.146-.52-.41-.387-.672-.015-.273-1.4-1.47.291-2.327.088-.755.53-1.14-.577-.353-.83.114-.81 1.109-.564 1.349-1.199-.312-.855-1.116-1.345-1.112-2.31.611-.29.297-1.458-.082-2.072-.069-1.03-.526-2.02-1.087-2.885 1.202-.52-.735-1.24-.255-2.223.74-1.197 1.562-2.518 2.002-3.953.493-1.42 1.052-2.82 1.81-4.123 1.134-1.202 1.205-3.124 2.883-3.776.94.12 1.832-.588 2.11-1.457-.56 1.079 1.903-.17.316-.078.3-.745-1.112-.857-.204-1.183.5.572 1.84-.282 1.472-.825-1.26-.127.359-.454.745.184.592-.664.752.56 1.288-.107-.552-.444.445-.483.757-.35.595.41.268-.942.649-.233.34 1.934.798-1.251-.14-.596-.519.999-.024-2.136.223-1.107-.242.576.624.565.791 1.066-.096-.357-.593-1.384-.053-1.285.2.8 1.332 1.844 1.047.465.957.485.24 1.193-.236 1.543 1.48.283 2.668-.964 2.8-2.306.284.007.012 1.52.704.857Z" fill="#4D4D91"/><path d="M47.511 43.923c1.553-1.286 2.46-3.206 3.993-4.476.07.378.213.465.453.133.058 1.51.063 3.028-.175 4.526-4.795 7.77-9.278 15.806-14.236 23.46-1.522 1.627-2.416 3.872-4.234 5.297-.014-.53.765-.801.46-1.351-.244.76-1.112-.055-.906.859.051.71-.54 1.266-.844 1.868-.43-.32.124-.904.218-1.31-.625.256-.195-.217-.084-.55-.534.2-1.082.305-1.637.458-.47-.66 2.53-.418 1.65-1.476.207-.725-.527-1.54-.644-.353.84.236-.572 1.168-.506.036.833-.9-.034-.539-.797-.34.397-.618.845-1.155 1.213-1.739-.212-.603 1.513-1.568.624-1.68.781-.586.416-2.742 1.717-2.05.292-.16.628-1.089.864-.514.191.807 1.007-.296.838-.744-.174-1.048-.146-2.395.876-3 .584.386-.398.77-.32 1.287.882.062-.662 1.001.098 1.353.315.034.951-.412.649-.826-.018-.427.993-1.682.026-1.117.504-1.248.106-2.896 1.227-3.83.567-.994 1.181-1.629 1.81-2.605.49-1.575 2.12-2.465 2.194-4.2.801-1.28 2.357-1.617 3.066-3-.03.505-.645.924-.482 1.399 1.266-1.528 1.089-3.798 2.8-5.094.329.471.378-.216.09-.421Zm-3.649 5.897c-.8.335-1.47 1.026-1.712 1.862.306.134.67-.743.524-.134-.295.683.336.87.749 1.12-.578.363.19 1.502.446.712-.295-1.055 1.07-2.842-.007-3.56Z" fill="#5959A5"/><path d="M-.01 41.894c1.273.01 1.565 1.446 2.759 1.328.108.552-.58.457-.929.378-.405.668.744 1.033.716 1.582.16-.452.733-2.028 1.37-1.01.656.644 1.133 1.55 1.157 2.502-.229 1.258-1.206 2.17-1.605 3.413-.526 1.96-1.647 3.655-2.776 5.279.215-1.222-.915.392-.926.801-.646.451-1.563 1.21-2.218.637-.55.026-.773.555-.877 1.02-.394-.107-.724-.504-1.177-.343.58-.422.94-2.572.062-2.138-.285-.573-.328-1.543-.893-2.26-1.023-.246.45 2.106-.677 1.445.134-.551-.157-1.875.548-1.87.03-1.526.036-.009.502-.06.27-.91.032-1.853-.012-2.777.738.126.488.907.897 1.384.201-.943-.705-2.112.125-2.812.886.188-.338 1.057.292 1.497.77.634.543-.93.876-1.298-.836-.316-.71-2.051-.442-2.552.297.514 1.15 1.667 1.558.561.15-1.088.745.3.576.741.899-.401-.27-1.443-.118-2.139-.478-1.376 1.51.86.993-.279-.242-.511-.88-2.332.16-1.582.624-.413.358-.957.059-1.448Z" fill="#151536"/><path d="M13.698 43.625c.031-1.098.46-.4.68.214-.592-.015.38.833-.174 1.109-.69.78-2.654 1.637-1.395 2.795 1.182-.98.675.789-.27.826.314.9-.57.276-.897.837.382.796 1.495.26 1.861 1.182.28-.441-.464-.958-.146-1.428.777 1.09.245-.557.4-1.021.537-.187.908 1.068 1.223.328-.312-.394-.063-.65.355-.765-.47-.075-.956-.106-1.392-.311.376-.636 1.161.033 1.517-.52.5-.641 1 .81.004.572-.207 1.205 1.284-.143 1.092.97.151 1.096 1.726-.556 1.549.339-.949.284-.982 1.147-.41 1.848.186-1.467.91-.797.242.146.541.62-.78 1.217.243 1.434.783-.786.549-1.976.815-2.988-.581.174-.386-.172-.122-.492.553.7.46 1.675.879 2.441.95-.66-.049 1.64.678 1.152-.353-1.394 1.044.763 1.183-.008-1.174-.93 1.738-.085.602-.985-.017-.515-.968-1.844-.957-.73-.499.483-1.217.63-.694-.317.939.142.124-.825-.3-.269-.931.798-.657-.926.074-1.044-.217-.27-.817-.714-.286-.981.912-.339.307-1.995 1.306-1.969.27-.945-.184-1.287.516-1.755.764.08.239 1.205.315 1.629.412-.107.547-.62.951-.78.113.849-.879 1.756-.462 2.595.444.016.806-.565 1.17-.842.417.735-.256 1.323.74 1.641-.65.067-.681 1.16-1.207.172-.006.956 1.102.544 1.67.85.135-.373.136-1.24.8-1.146-.052.462-.412 1.163.097 1.602.274-.735 1.087.323 1.39-.345.352-.326.09-.666-.263-.826.651-.125 1.07-.673 1.47-1.154.238.61-.422 1.073-.877 1.349.193.504.001 1.693.81 1.472.386-.437.464-1.043.678-1.567.602.371-.57 1.97.271 1.782.512-.72.804-.053 1.168.414.414 1.224.654 2.488.643 3.784-.135-.996-.84-1.045-.857.132-.224.819.64.039.98.372.643.287-.42 1.312-.71.661-.276-.608-1.544.153-.828.618.278-.49.546.02.43.367-.362-.105-.92-.21-.634.343.52.258.368 1.709 1.102 1.044.835-.698.215.7.068 1.074-1.005-.173-1.67.87-1.388 1.79-.507-.493-.542-1.17-.828-1.77.54-.433.584-1.197.422-1.827-1.019-.048-.446 1.312-.823 1.933.703.726.154 1.581.288 2.419-1.106-.535-.16-1.503-.434-2.48-1.2-.032-.823 2.155-1.666 2.509-.652-.97-.341-2.355-.735-3.433-.186-.171-.516.816-.686.266-.1-.654-.675.087-.944-.352-1.002-.14-1.43-1.131-1.84-1.932.822.615.485-1-.08-.369-.833.44.122 1.352.602 1.71-.498.834-1.575.24-1.27-.695-.665-.199-.111.736-.135 1.138-.546-.025-1.517-.515-1.028.58.578-.478.71.505 1.173.597-.387-.825 1.234-.797.955.033.021.525.69.606.935.178.646-.26.137.666-.134.864.497.984 1.034-.495 1.661-.58-.123-1.536 1.171-.148.322.195-1.335.441.595 1.604-.14 2.475-.576.983-.73 2.317.107 3.185-.855-.116.018 1.184-.706 1.173-.399.036.2.397.225.618.389.825.406-1.064 1.076-.358.358.44.098 1.194.048 1.743-.423-.128-.588-.564-.886-.844-.252.266-.084.63-.075.947-1.06.34-.224-2.106-.982-1.55.054.646-.812.656-.482 1.372-.428-.048-.379-.931-.813-.825-.9.64.954.89.458 1.754-.873.278-1.255 1.103-1.573 1.77.872-.104 1.504-1.577 1.906-.136.142-1.048.041-2.178.58-3.126.191 1.042-.464 2.723.973 3.27-.002-.581-.222-1.13-.463-1.65 1.529-.093.576 1.73 1.258 2.446.706.313.46-1.046 1.136-.675 1.126.327.255-1.311.631-1.779.362.526 1.022.754 1.038-.097-.372-1.052.887-.084.567-.925.195-.792.388-1.616.674-2.384.542.287-.078 1.157.365 1.403.438.154.148-.359.156-.591.912.14.05-1.022.615-1.451.46.53 1.215-.35 1-.862-.196-1.208-1.084 1.792-.933-.032.326-.737.662-1.497.73-2.336.26.52.228 1.119.25 1.687.234-.38.869-.816.282-1.178-.255-.637.514-.144.727.076.302-.331.974-1.145.195-1.306-.73-.016.585-1.28.572-.51.065.364-.175.994.423.925.05.395.29.832.586.315-.075.862-1.403 1.792-.905 2.44-1.301-.691-.936 1.465-1.717 2.052.889.11-.836 1.076-.624 1.679-.368.584-.816 1.12-1.213 1.738.763-.198 1.63-.558.797.341-.066 1.132 1.346.2.506-.036.117-1.188.851-.372.644.353.88 1.058-2.12.816-1.65 1.476.555-.153 1.103-.259 1.637-.458-.11.333-.54.806.084.55-.094.406-.648.99-.218 1.31.304-.603.895-1.158.844-1.868-.206-.914.662-.1.907-.86.303.55-.475.821-.461 1.352 1.818-1.425 2.712-3.67 4.234-5.296-3.039 4.931-6.204 9.798-9.347 14.672-.295.59-.717 1.039-1.424.95.208-.406.69-.576.896-.985.456-1.57.181-3.236.418-4.816-.225-.454-.085-1.742.481-1.029.373.023.83-.57.462-.865 1.082-.196-.39-.565.099-1.228-.788.858-1.089-.814-1.954-.585-2.346.064-4.601.737-6.946.734-1.16.274-1.505-1.229-2.507-1.222-3.565-1.52-6.443-3.898-10.133-5.091-1.024-1.077-3.255-.888-3.482-2.54-.867-1.461-.854-3.178-1.163-4.812-.82-1.254-.494-3.151-1.61-4.158.694-1.217 1.233-2.587 2.286-3.576-.184-1.454.786-2.849 1.373-4.177.5-1.123 2.273-1.702 1.75-3.132.717.112.43-1.187 1.41-.97-.6.354-.855 1.007-1.254 1.572.339-.101.705-.11.964.169-.05.228-.467.77.019.645.667-.29.498-1.214 1.007-1.696.2.473.664.422 1.091.337-.361.191-.695.453-.703.899.502.04 1.396-.144 1.475-.721-.527.252-.971-.376-.293-.48.87.099-.012-1.388.732-1.397.107.54-.379 1.643.675 1.177.19-.399.48-.69.94-.48-.298-.439-.268-1.199.354-1.185.376.504 1.117.917.536.048Zm-3.302 11.958c.177.61-.856.189-.49.68.48.633-.65.565-.76.059-.08-.89-1.788-.98-1.653.085-.46-.111-.847-.205-.273.184-.444 1.107-2.339.445-2.819 1.28-.562-.1.169-.532-.136-.74-.368-.968-1.351.063-1.947.303-.212 1.833 1.363 3.171 1.168 5.003-.045.848.767 1.413.738 2.28.202.597.007 1.476.764 1.692.524-.727.764.624 1.291.735 1.838.764 3.871 1.643 5.32 2.533 2.392.94 4.55 3.014 7.241 3.42-.09.886 2.182 1.362 2.611.614-1.015-.19-2.21-.508-2.536-1.612.437-.613-1.266-1.54-.574-.632.735 1.365-1.541-.69-1.571-1.168.662-.242-.315-.237-.182-.78 1.134.47-.233-.739.42-1.2-.062-1.141-.152-2.054-1.067-2.964.017.759-.07 1.12.19 1.898-.358.002-.651-.257-.88-.505.49-.295.461-.867-.1-.905.125-.59.994-1.438-.193-1.63-1.322.352-.744-1.473.272-1.124 1-.92-1.472-1.78-.937-2.81.327.57 1.341-.366 1.06.44-.635.681.526 1.25.656 1.918-.358.622.34 1.578-.816 1.124.644.407.783 1.97 1.554 1.252-.723-.744.867-.235.537-1.12.162-.585-.951-.782-.79-1.37a33.734 33.734 0 0 0 1.464-2.368c-.137-.418-1.195-1.031-.3-1.21.037.342.041.88.492.509-.018-.473-.721-.873-.362-1.429-.465-.345-.828.148-1.088.451.242.913-1.013.137-.763-.42.114-.814-1.177-.434-.924.256-.113-.473-.477.1-.771-.163-1.059-.735-1.811.98-1.974 1.792.644.871-.555.969-.48 1.985-.439-.428-.371-1.117-.42-1.669.293.49 1.143.249.574-.253-.665-.936.804-1.435.71-2.231-.503.63-1.412.711-1.43 1.695-1.102-.068-.04-1.112-.553-1.625-.054-.386.893-.868.009-.68-.54-.374.095-1.171-.282-1.58Z" fill="#6767B9"/><path d="M34.003 44.546c.344-1.241.629.33.542.947 1.648-.587-.245.57-.844.932.632.172.605.803.54 1.342.534-.324.976-.871 1.593-1.007-.873.742.574 1.928-.852 2.148.553 1.12-1.293 1.398-1.951 1.855-.496-.402-.892-.917-.678-1.575-.845-.609.245 1.171-.644 1.416-.748.137-.639 1.561-1.114.477-.364-.467-.656-1.135-1.168-.414-.135-.713.154-1.435.578-1.998-.386-1.038-.782-2.075-1.167-3.113.165-.998.758 1.456.9.464.091-.88-1.126-.865-1.155-1.639.396.214.809.43 1.068.814-.072-.886.284-.21.587.14.387-.885.872-.498.88.311.77-.843 1.461.416 2.206.676-.67-.629-.09-1.588.679-1.776Z" fill="#4A4A8B"/><path d="M37.242 49.248c.709-.003-.596.406.04.67.549.754-1.3.383-.581.94.686-.499.786 1.36.86.504.766-.53.597 1.133-.12.716-.767-.326.184.491-.392.561-.077.364-.476 1.298.294.745.67.052.86-.95 1.127-.09.236.573-.566.305-.902.479-.212.678.96-.505.767.262-.285.602-2.232.768-1.904-.242-.275-.763-1.231.27-1.522-.536.758-.736-.741-1.438-.341-.51-1.078-.364.23 1.653-.691 1.079-1.061-.996.175-1.9.74-2.847.252-1.646 2.335-.183 2.625-1.73Z" fill="#494989"/><path d="M43.862 49.82c1.076.718-.288 2.505.007 3.56-.255.79-1.025-.35-.446-.712-.413-.25-1.044-.437-.749-1.12.146-.609-.218.268-.524.134.241-.835.913-1.527 1.712-1.862Z" fill="#42427A"/><path d="M2.067 53.837c.383-.522.752-1.056 1.124-1.587-.44 1.434-1.262 2.755-2.002 3.953-.48.982 1.457 1.703.255 2.222.56.866 1.018 1.856 1.087 2.885.379.614.693 1.782.082 2.071-.004.966.8 1.456 1.112 2.311-.24.635-1.235.388-1.35 1.2-.786.252-.4 1.36.354.829.857.204 2.054-1.487 2.327-.088.262-.372.526-.505.672.015.248.805 1.445.043 1.488.951 1.052-.123 2.172.236 2.688 1.206 1.394.098 2.862.918 3.885 1.892 1.346.669 2.91 1.052 3.992 2.044 1.16.559 2.406 1.624 3.77.758 1.745-.05 3.623-.285 5.274-.505.936.33 1.42 1.541.73 2.5-.572.634.674 1.116-.078 1.628.94 1.2-.158 2.735.194 4.082-.206.41-.688.579-.895.985-.08.13-.202.178-.366.146-1.354.175.91-.907-.297-1.151-1.086.236-.857-.419-.305-.761 1.61 1.393 2.732-2.555 1.085-3.199-1.215.972-.403-.487.017-1.09-.91.403.169-1.522-.618-.84-.642.86-.293-.904.163-.579.416.614 1.806.123.68-.087.426-.86-.896.344-.396-.384.887-1.255-1.383-.465-2.112-.333-1.457.326-2.994.497-4.363.911.974-.546-.152-.98-.776-.805-.86-.742-1.96-.79-2.854-1.512.227-.75-.873-.266-1.241-.454-.229-1.218-2.469-.372-2.643-1.927-.796.323-1.126-.671-1.704-.025.455.002.595.414.765.754-.49-.094-1.832.35-.86-.314-.477-.287-1.056-.448-.495-1.028 1.419.086-.265-.78-.851-.195-1.074.418-.146-1.607-1.106-.953-.551.295.868.867.056 1.036-.785-.15-1.284-.969-2.127-.853-.625-.68-1.826-.337-2.146-1.12-.754.755-.374-.615-1.16-.317-2.095.227-3.855 2.41-6.023 1.915-.3.468-1.404.636-1.144 1.266-.52.675-2.463-.859-2.253.657-1.404.308-.02-1.4-.933-1.687-.907-.53.461-.956-.122-1.33.403-.39.593.855.96.514.359-.21.534-1 .977-.847.695.445-.794.766-.195 1.22.565-.23 1.592.32 1.34-.872.055-.31.64.685.504.05.01-.321-.08-1.289.34-.69.475.831.922-.742 1.238.02.918.412 1.624-1.98 2.203-.623.188-.705 1.057-.448 1.424-.938-.79-.175-.232-.773.289-.853-1.23-.559.56-1.632.038-2.304-1 1.198-1.746-1.087-1.005-2.028-.74-.522.534-1.233.357-.25 1.116-.215.458-1.674.075-2.287-.379.95-.484.107-.836-.372.866.846 1.535-1.008.707-.917-.158-1.02-1.489-.015-1.006-1.262.755-.83 1.815-1.46 2.01-2.654Z" fill="#3B3B69"/><path d="M10.396 55.583c.377.409-.258 1.206.282 1.58.884-.188-.063.294-.009.68.514.513-.55 1.557.553 1.625.018-.983.927-1.066 1.43-1.695.094.796-1.375 1.295-.71 2.23.57.503-.28.744-.574.254.049.552-.019 1.241.42 1.669-.075-1.016 1.124-1.114.48-1.985.163-.812.915-2.527 1.974-1.792.294.263.658-.31.771.163-.253-.69 1.038-1.07.924-.257-.25.558 1.005 1.334.763.421.26-.303.623-.796 1.088-.45-.36.555.344.956.362 1.428-.45.371-.454-.167-.491-.508-.895.178.162.791.3 1.21-.433.76-.939 1.601-1.464 2.367-.162.588.951.785.79 1.37.33.885-1.26.376-.538 1.12-.77.719-.91-.844-1.554-1.252 1.157.455.459-.501.816-1.123-.13-.668-1.29-1.237-.655-1.919.28-.806-.734.13-1.061-.44-.535 1.03 1.937 1.89.937 2.81-1.016-.349-1.594 1.476-.272 1.124 1.187.192.318 1.04.193 1.63.561.038.59.61.1.906.229.248.522.506.88.504-.26-.778-.173-1.14-.19-1.898.915.91 1.005 1.823 1.067 2.964-.653.461.714 1.67-.42 1.2-.133.543.844.538.182.78.03.478 2.306 2.533 1.571 1.168-.692-.908 1.011.019.574.632.327 1.104 1.521 1.422 2.536 1.612-.429.748-2.7.272-2.61-.614-2.691-.406-4.85-2.48-7.241-3.42-1.45-.89-3.483-1.768-5.32-2.533-.528-.111-.768-1.462-1.292-.735-.757-.216-.562-1.095-.764-1.692.03-.867-.783-1.432-.738-2.28.195-1.832-1.38-3.17-1.168-5.002.596-.241 1.579-1.272 1.947-.305.305.209-.426.64.136.741.48-.835 2.375-.173 2.819-1.28-.574-.39-.186-.296.273-.184-.135-1.064 1.574-.974 1.652-.085.112.506 1.24.574.762-.059-.367-.491.666-.07.489-.68Z" fill="#7878C9"/><path d="M-.235 58.096c-.61-.404-.188-1.255.292-1.605-.483 1.247.848.242 1.006 1.262.828-.09.16 1.763-.707.917.352.48.457 1.321.836.372.384.613 1.041 2.072-.075 2.287.177-.983-1.096-.272-.357.25-.741.941.005 3.226 1.005 2.028.522.672-1.268 1.745-.038 2.304-.52.08-1.08.678-.289.853-.366.49-1.236.233-1.424.938-.579-1.357-1.285 1.035-2.203.622-.315-.761-.763.812-1.239-.018-.419-.6-.329.368-.339.69.136.634-.45-.361-.503-.051.251 1.193-.776.642-1.34.872-.6-.454.89-.775.195-1.22-.444-.152-.62.637-.977.847-.368.341-.558-.904-.961-.514.583.374-.785.8.122 1.33.913.288-.471 1.995.933 1.687-.21-1.516 1.732.018 2.253-.657-.26-.63.844-.798 1.144-1.266 2.168.495 3.928-1.688 6.023-1.915.786-.298.406 1.072 1.16.317.32.783 1.52.44 2.146 1.12.843-.116 1.342.704 2.127.853.812-.168-.607-.741-.056-1.035.96-.654.032 1.37 1.106.952.586-.584 2.27.28.85.195-.56.58.019.74.497 1.028-.973.664.368.22.86.314-.17-.34-.31-.752-.765-.754.577-.646.907.348 1.703.025.174 1.555 2.414.709 2.643 1.927.367.188 1.468-.296 1.241.454.894.723 1.994.77 2.854 1.512.624-.175 1.75.26.776.805 1.369-.414 2.906-.585 4.363-.91.73-.133 2.999-.923 2.112.332-.5.728.822-.476.395.384 1.127.21-.263.701-.679.087-.456-.325-.805 1.439-.163.58.787-.683-.292 1.242.618.84-.42.602-1.232 2.061-.017 1.09 1.647.643.525 4.591-1.085 3.198-.552.342-.78.997.305.761 1.206.244-1.056 1.326.298 1.151-1.46.498-3.113.666-4.645.967-.672-.61-2.445.18-2.734-.984-.331-.04-.643.173-.967.233.263-.592-.234-.607-.738-.673.33-.213.383-.391-.027-.515-.033-.557.376-.942.798-1.228-.308-.335-.469-.773-.4-1.228-.809.178-.61.965.06 1.212-.44.534-1.18.639-1.832.6.225-.408.727-.394 1.117-.526-.421-.569-1.445-.633-1.715.122-.365.643-1.5.667-1.504 1.31-.456-.15-.826.226-1.13.51.332.104.671.192.993.327-.432.265-1.642.46-.986 1.11.128.514-.03 1.083-.533.499-.62-.36-.465.502-.394.865-.704-.344-.78-1.653.006-1.97.778-1.492 1.96-2.756 3.29-3.824.642.288.759-.432.058-.246-.496-.743.526-1.14 1.063-1.358-.922-1.377.814-1.172 1.181-2.358.282-.47 1.652-.137.75-.816.979-.671-.536-.84-.997-1.25-.45-.236-2.33.135-1.512-.818-.365.046-.715.156-1.065.26.348-.349-1.34-1.568-1.754-1.045.956.565-1.593.861-1.13-.093.353.136 1.234.127.87-.446-.877-.296-2.228.881-2.895-.14-.111-.565-1.412-.155-.8.232.444.354-.342.728-.39 1.145-.639-.624-1.407-1.194-2.365-.977-.89-.307 1.58-.838.487-1.107-.617.8-2.233-.09-2.474.95.45.086 1.88-.4 1.24.393-.045.304.508.435.645.726-.807-.156-1.448-.792-2.291-.804-.218-.612.134-.935.616-1.111-.445-.204-.648-1.24-1.179-.816-.466.798-2.072.572-1.477-.485-1.406.59-2.157 2.007-3.732 2.269 1.14.658 1.498-.644 2.661-.647.336-.006 1.257-.64.953.052-.944.4-.3 1.89-1.533 1.55.347-.278-.168-1.06-.404-.63.036.588-.617.098-.85.51.37.455.821 1.217 1.468.723.676.038 1.088 1.347.103 1.243-.796-.224-.987 1.653-.364.85.145-.906 1.272-.761 1.773-.23-1.064.569.109 1.336.64 1.6.73-.561.868.915.376.823-.21-.437-.527-.195-.799.045.802.597 3.061.298 2.929 1.609.902-.015 1.365.187.492.463.861-.067.574 1.612 1.463.9-.168.418-.085.698.245 1.048-.39-.09-.985-.79-.745.017-.273-.987-1.169-2.216-2.346-1.774.142-.292.466-.38.731-.522-.486-.912-1.344.087-2.084-.253.03.464 2.47 1.597.727 1.31.405.423.396 1.295 1.09 1.37.03-.794 1.712-.44 1.167-.174-1.145-.198-.202.737-1.005 1.014-.845.517-1.217-1-2.002-.438-.696-.284-1.553.43-2.132-.12-.43-.549-1.556.631-.633.477-1.063.469.731.524.216 1.237-.411.87-1.428.182-2.011-.117-.495-.264-.256-.608-.105-1.003-.407-.005-.55-.193-.429-.572-.269-.681-1.048.213-1.457-.25.207-.944-1.525-.32-1.5-1.123.317-.984-.903.021-.841-.991-.773-.69.828-.096.785-.7-.664-.188-1.19.234-1.807.322.193-1.092-1.062-.152-1.51-.741 1.572-1.005-.393-3.06.819-4.217-.586-.488.034-1.483.72-1.616-.508-1.08.473-2.305-.296-3.19-.095-1.022-2.05-1.106-1.029-2.082 1.25-.658-.775-.507-1.207-.722-.102-.427-.239-.723-.618-.317-.02-.966.255-2.008-.458-2.815-.694-.102-.457.782-.41 1.189-.286-.266-.932-.42-.852-.89 1.02-1.796 3.195-3.374 3.53-5.686-.5.113-.552-.293-.082-.403.909.113.936-.784 1.096-1.39.451.373-.042.943-.05 1.409.425.012.927-.09 1.123.4.738.197 1.617.13 2.315-.29 1.055-.47-.24 1.707-.662.512-.609.192-.931 1.343-1.136 1.978.677.044.775-1.232 1.55-1.238 1.417.113.707-2.956 2.433-2.084.304.538.585 1.289 1.204.564-.134.73 1.024.177.594-.141Z" fill="#2E2E4F"/><path d="M-2.081 72.246c1.575-.261 2.327-1.678 3.732-2.268-.594 1.057 1.01 1.283 1.478.485.53-.424.733.612 1.178.816-.482.176-.834.5-.616 1.11.844.013 1.484.65 2.292.805-.138-.291-.69-.422-.645-.726.64-.793-.791-.307-1.241-.393.241-1.04 1.857-.15 2.474-.95 1.093.27-1.376.8-.487 1.107.958-.217 1.726.353 2.365.977.048-.417.835-.79.39-1.145-.612-.387.689-.797.8-.232.667 1.021 2.019-.156 2.895.14.364.574-.517.583-.87.446-.463.954 2.086.658 1.13.093.415-.523 2.102.697 1.754 1.045.35-.104.7-.214 1.065-.26-.817.953 1.062.582 1.513.818.46.41 1.975.579.996 1.25.902.679-.468.346-.75.816-.367 1.185-2.103.981-1.181 2.358-.537.218-1.56.615-1.063 1.358.7-.186.584.534-.059.246-1.329 1.068-2.51 2.332-3.29 3.825-.786.316-.71 1.625-.005 1.969.28.095.569.171.854.254-2.497.528-5.107.68-7.577 1.4-2.506-.687-5.113-1.59-7.006-3.407.583.3 1.6.986 2.01.117.516-.713-1.278-.768-.215-1.237-.923.154.203-1.026.633-.477.58.55 1.436-.164 2.132.12.785-.563 1.157.955 2.002.438.803-.277-.14-1.212 1.005-1.014.545-.265-1.137-.62-1.168.175-.693-.076-.683-.948-1.09-1.372 1.744.288-.697-.845-.726-1.309.74.34 1.599-.659 2.084.253-.265.142-.589.23-.73.522 1.177-.442 2.073.787 2.345 1.774-.24-.806.354-.107.746-.017-.33-.35-.414-.63-.245-1.048-.89.712-.602-.967-1.464-.9.873-.276.41-.478-.492-.463.132-1.311-2.127-1.013-2.928-1.609.271-.24.588-.482.798-.045.492.092.355-1.384-.377-.824-.53-.263-1.703-1.03-.639-1.599-.5-.531-1.628-.677-1.773.23-.623.803-.432-1.074.364-.85.985.104.573-1.204-.103-1.243-.646.493-1.098-.268-1.467-.722.232-.413.885.077.849-.511.236-.43.752.352.404.63 1.233.34.589-1.15 1.533-1.55.304-.691-.617-.059-.953-.052-1.163.003-1.522 1.305-2.661.647Z" fill="#23233F"/><path d="M17.757 81.12c-.668-.248-.868-1.035-.06-1.213-.068.455.093.893.4 1.228-.422.286-.83.671-.797 1.228.41.124.356.302.027.515.504.066 1 .08.737.673.325-.06.637-.272.967-.233.29 1.163 2.062.374 2.734.984-2.927.75-6.066 1.604-9.137 1.888-.286-.083-.574-.16-.854-.254-.071-.363-.226-1.226.393-.865.503.584.662.015.534-.498-.656-.652.553-.846.986-1.111-.322-.135-.662-.223-.994-.327.304-.284.675-.66 1.131-.51.003-.643 1.139-.667 1.504-1.31.27-.755 1.293-.691 1.715-.122-.39.132-.892.118-1.117.526.65.039 1.392-.066 1.83-.6Z" fill="#3D3D6D"/></svg>