<svg width="91" height="91" fill="none" xmlns="http://www.w3.org/2000/svg"><path d="M7.746 57.915c-1.2-11.495 3.408-24.795 11.162-33.347 3.465-3.813 7.54-6.956 11.96-9.182 12.951-6.53 32.465-9.91 43.512-.076 2.928 2.601 4.801 6.329 6.62 9.976 3.014 6.053 2.909 12.398.933 19.262-1.821 6.321-4.082 11.509-8.135 16.445-3.933 4.788-6.672 10.612-11.182 14.865-6.394 6.027-15.225 7.862-23.213 6.903-6.902-.827-13.908-2.391-20-5.794C12.17 72.917 8.572 65.85 7.746 57.915Z" fill="url(#a)"/><path d="M55.013 42.25c2.142-2.95 3.197-6.013 1.335-8.424-2.264-2.933-5.75-5.65-9.11-6.95-4.089-1.577-8.768-.934-13.13.354-2.323.686-4.662 1.58-6.62 3.191-5.784 4.755-4.644 13.93-.922 18.939 2.664 3.58 7.204 6.302 11.703 5.568 3.406-.557 5.71-3.048 8.49-5.11 2.978-2.21 5.992-4.446 8.254-7.569ZM65.205 51.125c1.72-.408 3.751-.484 4.802.935.77 1.055.743 2.62.369 3.997-.76 2.8-2.48 3.994-4.303 5.949-2.348 2.511-4.688 5.025-7.038 7.544-.897.965-1.801 1.927-2.837 2.7-1.079.798-2.407 1.37-3.595 1.014-1.304-.4-2.093-1.876-2.234-3.371-.509-5.266 2.074-10.306 5.759-13.865 2.592-2.505 5.81-4.123 9.077-4.903ZM75.91 29.902c-1.155-1.893-2.973-3.25-5.037-3.765-1.393-.344-3.425-.19-4.098 1.62-.331.88-.12 1.843.134 2.707.914 3.155 2.771 9.378 5.755 10.851 1.302.643 2.984.122 4.141-.963 2.18-2.051.344-8.42-.895-10.45ZM27.885 73.58c-.143-.483-.562-.919-.953-1.23-3.114-2.472-6.234-4.955-9.348-7.428a305.093 305.093 0 0 0-2.062-1.637c-.258-.204-.551-.424-.884-.399-.523.032-.921.67-.932 1.246-.01.574.261 1.087.536 1.557 2.648 4.505 8.116 9.522 13.586 8.676.127-.26.128-.531.057-.785ZM49.815 13.612c.277.106.587.313.556.645-.022.233-.211.41-.397.545-.745.542-1.614.8-2.463 1.037-1.766.502-3.6 1.005-5.323.6-.215-.05-.443-.136-.532-.351-.15-.365.203-.768.533-.989 2.13-1.486 5.323-2.381 7.626-1.487Z" fill="#AA044A"/><defs><radialGradient id="a" cx="0" cy="0" r="1" gradientUnits="userSpaceOnUse" gradientTransform="rotate(165.854 11.923 38.918) scale(70.3132 73.949)"><stop stop-color="#FFA23F"/><stop offset=".109" stop-color="#F99240"/><stop offset=".322" stop-color="#E86841"/><stop offset=".616" stop-color="#CE2444"/><stop offset=".726" stop-color="#C30945"/><stop offset=".773" stop-color="#C60F43"/><stop offset=".836" stop-color="#D01F3C"/><stop offset=".906" stop-color="#E13B30"/><stop offset=".983" stop-color="#F76020"/><stop offset="1" stop-color="#FD6A1C"/></radialGradient></defs></svg>