<svg width="123" height="84" fill="none" xmlns="http://www.w3.org/2000/svg"><path d="M31.59 34.336c-1.87-3.2-4.407-5.98-6.195-9.227a18.629 18.629 0 0 1-1.133-6.31c.216-.293 1.076-1.08.503-1.783.05-.814.55 1.071.608.24-.075-1.298.46-2.622 1.481-3.252-.075-.789.995-.745.21-1.367 1.335-1.919 1.305-4.74 2.703-6.76.23-.66.617-1.215.55-1.974.194.594.038 1.683.976 1.406-.483.649.163 1.408.794.761-.036.822.283 1.524.933 2.018.127-.565.465-.114.545.206.297 1.01.448-1.324.985-.256.592 1.281-.802 2.343.393 3.365 1.031.151.195 1.973 1.282 2.045.77-.017 1.276 1.808.128 1.357-.617-.575-2.048-.676-1.005.484-.212 1.33 1.397 2.475.203 3.632-.746.732.822 1.098.12 1.718-.58-.88-1.142.437-.364.745.557-.49.146.724.795.424-.59.523.18 1.24.442.397.543.173 1.77 2.428.065 2.114-.789 1.591-1.572-.923-2.045-1.666.228-1.105.69.957 1.184.512.118-.868-1.268-2.239-1.91-1.732.55 1.307-.464-.629-1.058.172-.169.72-.56-.442-.583.396-.376.867.929.943 1.17.286.575.206 1.11.22.928 1.042.34.583-.12 1.378-.354.074-.492.648.419 1.517.959.694.44.648.187 1.438.407 2.12.299.994.395-1.246.576-.113-.434.626-.213 1.179.525 1.392.326-.53-.237-.714-.47-1.094.909-.119 1.834.156 2.624.602-.776.303-.06 1.278-.689 1.425-.2-.36-.359-.738-.543-1.11-.506.88-.601 2.047.333 2.669.384.144.64-.121.825-.42.51.122 1.859 1.716 1.708.375.48.462.587.064.664-.419.865.315 1.215 1.116 1.57 1.898.783.117 1.269 2.232 1.25.724.853.051.252-.482-.029-.867-.052-.434-.05-.931-.528-1.108.173 1.088-.742-.684-1.236-.13-.302-.328.33-.904.48-1.297.38.595.808-.29 1.29-.468.422-.516-.998-.364-.356-.912.465.345.933.093 1.384-.128.383.495-.824.531-.335.987.415.072.376.988.829.571.443-.624 1.629-.627 1.61.308.646.446.472-2.082.971-1.082.604-.425-.383-.74-.59-1.109a3.085 3.085 0 0 1 1.856.978c.353.076 1.427-.546 1.264.064-.352.227-1.605.725-.792 1.014.945-.092 1.617 1.156 2.39.548.007 1.653 2.376.103 3.14 1.29-1.417-.142-3.173-.693-4.299.648-.95.09 1.048-1.197.154-1.648-.652-.079-1.223-.585-1.874-.54.128.76-1.12 1.903-.032 2.134.072 1.316-1.834 1.027-1.536 2.39-.44-.677-1.613-1.199-2.245-.525-.567.543.968-.223.601.428-.266.39.727.404.378.836-.683.153-.587-.944-1.445-.344-.43.857.67.324 1.033.749-.833.914-1.322.037-2.367.004-.635.06.646.666.57 1.106.133 1.522 1.86-.316 2.51.962.642.694-.768.46-.355 1.016.57.88 1.261-1.417 1.539-.257-.88 1.07 1.326.022.205-.59-.918-.315.18-1.212.43-.431.54-.126 1.525 1.135.479.97.287.24.957 1.434.993.59-.176-.955.95-.085 1.438-.122-.349.881-1.67.18-1.593 1.361-.503-.268-.792-.792-.65-1.356-.535.61-2.281-.263-1.644.893.436.786 1.411-.754 1.444.029-.619.347.202.928.42 1.35-.558-.274-.75.411-1.263.46-.397.052-1.1-.99-1.022-.132.592.634 1.443 1.634 2.356.744.027.722-1.447.803-.808 1.508.36.407.747.82 1.275 1 .145-.476-.332-.707-.598-1.008.694.145.139-1.398.876-.912.572.912 1.575-.1.675-.787.044-.96.354.651.682-.288 1.142.199.834 1.837 1.969 1.798-.05.642.123.88.623.35-.231.429-.572.785-.817 1.205.47.047.944.101 1.396.243-.33.392-.518.816-.317 1.288-.532-.061-1.558.742-1.811-.177-.969.102-1.408 1.414-2.4.736 1.731-.324.042-.559-.564-.69.455-.915-1.05-.464-1.46-.514-.816-.134-1.52 1.095-1.1 1.779-.647.208-1.228.627-1.944.532a16.69 16.69 0 0 1-.326-.204c.477-.58 1.82.165 1.474-1.074-.123-.56.38-.767.706-1.087-.1-.727.207-1.288-.217-1.862-.649-.558-.86 1.227-1.181-.002-.394-.237-1.095-1.102-.18-.83.212-.56-1.002.116-.889-.626-1.123.085-1.424-1.63-2.372-2.108-.451.64 1.459 1.212.527 1.824-.366.232.268.665-.113.865-.843-.975-2.002-1.36-2.316-2.69-.46-.278-.073 1.513-.696.133-.11-1.181-1.125-1.731-2.242-1.808.344.149.784 1.19.208.646-.373-.895-1.735-.939-1.74.014.543-.81.514.617.922 1.086 1.261.59 1.955 2.08 2.786 3.062.953-.128-.3 1.279.804 1.79-.686-.266-1.378-.526-2.095-.7-2.373-3.04-4.55-6.28-6.4-9.686Z" fill="#373761"/><path d="M24.262 18.8c-.639-2.755-.273-5.56-.027-8.34A91.674 91.674 0 0 1 25.687-1.03c.718-1.012 1.462-2.013 2.268-2.956.905-.11.579 1.604.92 2.179.165 1.693 2.059 3.827.516 5.246-.171.536.277 1.026.453 1.503.34-.5-.142-1.418.622-1.564-.055-.41-.156-.837.034-1.23.348.338.42.881.937 1.06.98.792 1.668 1.857 2.66 2.632-.789-.106-.164.698.276.74.376.1-.018-.66.434-.473.756.696 1.415 1.56 2.363 1.97.73 1.622 2.422 2.73 2.829 4.445 1.4 1.088 2.452 2.824 3.257 4.465-.148-.282-.343-.5-.666-.313-.21-.192-.027-1.57-.543-.896.045.623.309 1.336.206 1.993-.212-.333-.666-1.54-.69-.528-.96.324.817-1.418-.02-1.432-.745.091.07-1.318-.665-.884.652.387-.084 2.18-.434 1.166-.143-1.22-1.025-.95-.44-.022-.883-.282-1.921-1.617-.435-1.903 1.137.061-.085-.39.01-1.063-.483-.014.014.66-.342.855-.309.578-.684-.144-.986-.352-.314-.228-.959.015-.975-.532.157-.886-.97-1.255-.864-2.182.495.382.827-.899.856-.136-.039.834 1.516.323.722-.217-.964-1.184-1.934-2.27-3.15-3.103-.248.484 1.377 1.514.326 2.08-.528-.053-.275-1.067-.616-1.48-.537-1.067-.688 1.267-.985.257-.08-.32-.418-.77-.545-.206-.65-.494-.97-1.196-.934-2.018-.63.647-1.276-.112-.794-.76-.938.277-.782-.813-.975-1.407.067.76-.32 1.314-.55 1.975-1.398 2.02-1.368 4.84-2.703 6.76.785.62-.285.577-.21 1.366-1.022.63-1.557 1.954-1.48 3.253-.059.83-.56-1.055-.61-.24.574.703-.286 1.489-.502 1.783Z" fill="#515198"/><path d="M35.573 38.784c.004-.953 1.367-.91 1.74-.014.575.545.136-.497-.208-.646 1.116.077 2.132.627 2.242 1.807.623 1.381.236-.41.696-.132.314 1.33 1.473 1.715 2.316 2.69.38-.2-.254-.633.113-.865.932-.612-.978-1.185-.527-1.824.948.478 1.25 2.193 2.372 2.108-.113.742 1.1.066.888.627-.914-.273-.214.592.18.83.321 1.228.533-.557 1.182.001.424.574.116 1.135.217 1.862-.327.32-.83.527-.706 1.087.346 1.239-.997.494-1.474 1.074-1.466-.956-3.1-1.646-4.52-2.667-1.102-.511.15-1.918-.804-1.79-.83-.983-1.524-2.472-2.785-3.062-.408-.469-.379-1.896-.922-1.086Z" fill="#44447F"/><path d="M44.335 49.503c-2.358-1.476-5.112-2.858-6.345-5.48.717.173 1.409.433 2.094.699 1.42 1.021 3.054 1.712 4.52 2.667.108.07.216.137.326.204.06.034.18.103.24.14.92.49 2.11 1.066 3.082.448 2.022-.456 4.121-.866 6.19-.443.278-1.093 1.73-.008 2.526-.136.125 1.22 2.155.244 2.549.516-.99.48.371.263.618-.21.857.688 1.65.275 2.474.001-1.037.67.546 1.095 1.16 1.14 1.349.249 2.692.753 4.062.507.799-1.14 2.184-1.616 3.252-2.449.425-.172-.531-.412-.027-.637.903-.293 1.717-.926 2.39-1.544-.192-.867 1.33-.616.574-1.388.893.161 1.077-.803 1.46-1.401 1.507.526 3.173.661 4.523 1.517.822-.059 1.291 1.205 1.96.33-.094.362-.07.772.41.75.261-.6.403-1.824 1.159-1.9-1.39.049.693-.612.123-1.187-.904-.904.91-1.128.91-1.898-.923-.697.667-.36.611-1.245.253-1.758 2.195-1.847 3.53-1.393.737.3.954-.936 1.557-.243 1.181-.424 2.64-2 3.897-.82-.871 2.95-2.137 5.79-3.094 8.722-2.149 3.612-4.951 6.953-8.567 9.15-3.288 1.078-6.356 3.112-9.925 2.951-6.378.356-12.602-1.488-18.87-2.382-3.252-1.364-6.481-2.914-9.37-4.986Z" fill="#0A0A26"/><path d="M33.366 22.287c-.24.657-1.545.58-1.17-.286.024-.838.415.323.584-.396.594-.8 1.608 1.135 1.059-.172.641-.507 2.027.864 1.908 1.732-.494.445-.955-1.617-1.183-.512.473.743 1.256 3.257 2.044 1.666 1.705.314.478-1.941-.064-2.114-.262.843-1.032.126-.442-.397-.649.3-.238-.914-.795-.424-.778-.308-.216-1.626.363-.745.703-.62-.865-.987-.119-1.718 1.193-1.157-.415-2.303-.203-3.632-1.043-1.16.388-1.059 1.005-.484 1.148.45.641-1.374-.128-1.357-1.088-.072-.251-1.894-1.282-2.046-1.195-1.021.199-2.083-.393-3.364.341.412.088 1.426.616 1.48 1.05-.567-.574-1.597-.325-2.08 1.215.832 2.185 1.918 3.15 3.102.793.54-.762 1.05-.723.217-.03-.763-.36.518-.855.136-.107.928 1.02 1.296.863 2.182.016.547.661.304.975.532.302.209.677.93.986.352.356-.194-.141-.87.341-.854-.094.673 1.128 1.123-.009 1.062-1.486.286-.448 1.621.435 1.903-.585-.927.297-1.199.44.022.35 1.015 1.086-.779.434-1.166.736-.434-.08.976.665.884.837.014-.94 1.756.02 1.432.024-1.011.478.195.69.528.103-.657-.161-1.37-.206-1.994.516-.673.333.705.543.898.323-.189.517.03.666.312 1.205 1.336 1.812 3.036 3.172 4.225.853.438-.667.673-.582.944 1.313-.312 2.878.406 3.092 1.897-.486-.335-1.388-.783-1.536.279 1.212-.718.593.692-.098 1.142.082.543.89-.262 1.197-.469-.419.322-.127 1.137-.75 1.095-.892.569 2.233.016 1.12-.148-.925-.675 2.235-1.278.517-.328-.547.592.625-.158.431.538-.023.339.338 1.268.579.602.804.29-.301.84.52 1.183-.478.573.358 1.998.068.765.394-.525 1.637.463 1.259 1.123.604.752.25-.619 1.052-.578-.604-1.47 1.379.451.177.273.913-.02 1.873.593 2.064 1.521-.17-.08-.34-.16-.51-.245-.764-1.187-3.133.363-3.14-1.29-.773.608-1.445-.64-2.39-.549-.813-.288.44-.786.791-1.014.164-.609-.91.013-1.263-.063a3.086 3.086 0 0 0-1.856-.978c.207.368 1.194.684.59 1.11-.499-1.001-.325 1.527-.97 1.08.018-.934-1.169-.93-1.612-.307-.452.417-.413-.499-.828-.571-.489-.456.718-.492.335-.987-.452.221-.92.473-1.385.128-.641.548.78.396.356.912-.481.177-.91 1.063-1.289.468-.15.393-.782.97-.48 1.298.494-.555 1.41 1.217 1.236.129.479.177.476.674.528 1.108.281.386.882.918.03.867.018 1.508-.468-.607-1.25-.724-.356-.782-.706-1.583-1.571-1.898-.077.483-.183.88-.664.419.15 1.341-1.197-.253-1.708-.376-.186.3-.441.565-.826.42-.933-.62-.838-1.788-.332-2.668.184.372.342.75.543 1.11.63-.146-.087-1.122.688-1.425-.79-.446-1.714-.72-2.623-.602.233.38.795.565.47 1.094-.738-.213-.96-.765-.526-1.392-.18-1.133-.276 1.107-.575.113-.22-.682.033-1.472-.407-2.12-.54.822-1.451-.046-.959-.694.234 1.304.694.509.354-.074.182-.822-.353-.837-.929-1.043Z" fill="#3F3F72"/><path d="M29.844 4.94c-.176-.476-.624-.966-.453-1.502 1.543-1.42-.351-3.553-.516-5.246.74 1.064.665 2.98 1.57 3.753 1.278-.434-.506-.585-.317-1.552-.424-1.397-.043-2.872-.691-4.217-.377-.911-.48-1.823.56-2.24 1.058-.767 2.299-1.323 3.452-1.947.694.026.815.81.285 1.178.77-.074 1.433.244 2.126.503.868-.361-.752-.544.004-1.094.407.769 2.029.798 1.672 1.815.385.78 1.906.712.251 1.326 1.473.295-.159.531-.429 1.094.54.257-.015.572.03.881.26.696 2.238 1.316 1.222 2.164-.591.309.525.786.844.406.367.99-1.55 1.073-.785 1.869-.634-.666-1.743-.176-2.324.042 1.102 1.11-1.013.878-1.776 1.168.19-.543 1.116-.17 1.249-.923.514-.632-.164-.093-.388.085-.308-.228-.2-.656-.275-.986-.542.55-1.175 1.134-.884-.045-.705.536-1.653 1.148-.902.001 1.18-.635-.687-.009-.365-.79.404-1.146-1.7 1.473-.62.885.103.69-1.62.178-1.36 1.02.471.11 1.21.346.413.62-.517-.18-.589-.723-.938-1.062-.189.394-.088.821-.033 1.23-.764.147-.282 1.064-.622 1.564Zm.374-6.5c.498-.316.608-.407.487.194.9-.203-.004.786.916.343-.607.947.871.505 1.38.352 1.477-.663-.16.774.57.975.916-.436 1.244-1.76 2.227-1.848.234-.632-.5-.045-.828.036-.05-.318-.65-.944-.837-.542.48.605-.672.19-.85.751-.874.283.461-.835-.335-.834-.553-.482.557-.388.74.052.337-.336.28-.984.73-1.182-.127.38-.104 1.057.407.575-.209.915 1.153-.067.311-.325-.733.06-.204-1.283-.876-.877.23.566-.477.392-.798.59-.888-.379.564-1.519 1.034-1.936-.506-.04-.804-.927-.08-.833-.102-1.531-2.696.742-.75-.252-.29 1.143-2.003.233-2.62.825-.824.776.048-.558.38-.844-.976-.149-1.409.884-1.781 1.494.372-1.017-.686-.375-.177.304.695.74.993.775 1.098 1.84 1.04-.14-.861.402-.348 1.142Z" fill="#6464B5"/><path d="M27.955-3.987c.607-.72 1.016-1.9 2.043-2.077-1.04.417-.938 1.329-.561 2.24.648 1.345.267 2.82.69 4.217-.188.967 1.597 1.118.318 1.552-.905-.773-.83-2.69-1.57-3.753-.34-.575-.015-2.29-.92-2.18Z" fill="#8585D2"/><path d="M31.437 3.208c.797-.274.058-.51-.413-.62-.26-.842 1.463-.33 1.361-1.02-1.08.588 1.023-2.03.62-.885-.323.78 1.544.155.364.79-.75 1.147.197.534.902-.001-.291 1.179.342.595.884.045.075.33-.033.758.275.986.224-.178.902-.717.388-.085-.133.753-1.058.38-1.248.923.762-.29 2.877-.057 1.776-1.168.58-.218 1.69-.708 2.323-.042-.764-.796 1.152-.88.785-1.87-.32.38-1.435-.096-.844-.405 1.016-.849-.962-1.468-1.221-2.164.805.613.718-.626.923-1.065.68.214 2.515-.28 2.004.954-.337 1.032-1.56.169-2.193.681.692.054 1.044.624 1.543 1.012.335-.6.874-1.33 1.651-1.001-.475.58-1.713.944-1.705 1.643.906.656.567-1.119 1.136-.526-.528.806 1.319-.08 1.022.747.138 1.052 1.007.138 1.616.533.845.011 1.688-.26 2.542-.17.215-.468.558-1.079 1.177-.84-.753.28-.993 1.551-1.947 1.313-.762-.149-3.43.037-2.848.883.906-.83.275.76 1.039.17-.28-.92.586.084 1.115.002.043.872 1.22.317 1.776.244.64-.284-.59-.883.324-.785.91.412 1.536-.543 2.556-.478.311-.346 1.137-.085.75-.809-.629.283-1.356.091-1.877.647-.503-.293-.01-.373.318-.44-.008-.73.796-.099 1.035-.617.444-.537.653.997 1.135.409.57-.71.243-1.58 1.033-2.051-.5-.419-1.048-.05-1.046.552-1.009.282.062-.993.575-1.043.638-.427-1.009-.423-.295-1.078 1.663-.495 3.036.757 4.684.708 1.128.276 1.928.65 3.052.863 1.248.756 2.677-.156 4.021-.086-.848-.73.667-.184 1.065-.34.294-.42.922.037.992.346-.085.832-1.475-.322-1.247.533-.464.242-1.146-.562-1.32.116.904.769 2.186.357 3.121-.148.368-.306 1.677.106.976.55-.467.41.52.426.766.65-.45.682-1.762-.272-2.601-.062-.406-.071-.744.136-.991.437-.97-.959-2.515-.703-3.76-.728-1.83-.26-3.635-.261-5.424-.625-1.121-.471-1.317.938-2.014 1.502.319 1.156-1.12.881-1.834.918-.974-.096-1.88.395-2.48 1.13-.117.266-.966.425-.445.618.293.43-1.357.487-.733.88.832.192-1.774 1.245-.853.496 1.06-1.074-.594-.653-1.208-.394-.45-.651-1.1.39-1.675.21 1.104.283-1.094 1.419-.025.412-.468.79-2.005.167-2.892.895-.234.616-1.559 1.423-.384 1.59.74.163-.764.754.04.967-.504-.234-1.203-.634-1.152.31-.172.644.57-.05.864.403.891-.836.31.597-.174.912.655.808 1.884 1.316 2.043 2.537.642.375 2.075.68 2.022 1.722-.088 1.265 1.462.097 1.824.299-.814.792.636.897 1.176.524-.582.645-.237.702.453.827-.309.46-.833.73-1.146 1.196.54.138 1.303-.185 1.58.46-2.205.524.556.94 1.135.506-.708.558-.098 1.532.531 1.8-.019.522-.009.933.62.973.107.947 1.484.81 1.488 1.785 1.497-.745-.905.828.48.445.552-.764.35.322 1.1-.11.112.742.05 1.785 1.178 1.474-.452.373-1.234.463-.66.997-.508.407-1.03 1.04.02.711.632-.832.483.004.129.523.19.593.917.374 1.235-.05-.049.503.321.682.76.732.783.845-.416.744-.893 1.021.25.7 1.37-.617 1.558.238.32.607.77-.018.36-.434.57-.113 1.035.673 1.161 1.16-.424.137-.78-.093-1.079-.372.22.376.419.798.037 1.141.621.325 1.44-.136 1.931.4.276.42-.371.202-.603.229-.18.335-.052.678.153.966-.663-.193-1.364-.222-1.893-.673-1.476-1.375-2.998-2.713-4.284-4.282-1.165-1.349-3.053-2.626-3.06-4.545-1.528.37-2.318-1.62-3.282-2.484-.206-1.059-1.234-1.635-1.935-2.373-.805-1.64-1.858-3.376-3.257-4.464-.407-1.715-2.099-2.824-2.829-4.445-.948-.41-1.607-1.274-2.363-1.97-.452-.188-.058.574-.434.473-.44-.042-1.065-.846-.276-.74-.992-.775-1.68-1.84-2.66-2.631Z" fill="#7272C3"/><path d="M45.17 47.733c-.06-.037-.18-.106-.24-.14.716.095 1.297-.324 1.944-.532-.42-.684.284-1.913 1.1-1.78.41.051 1.915-.4 1.46.514.606.132 2.295.366.565.691.99.678 1.43-.634 2.399-.736.253.919 1.28.116 1.811.177-.201-.472-.013-.896.317-1.288-.452-.142-.926-.197-1.396-.243.245-.42.586-.776.817-1.205-.5.53-.673.292-.623-.35-1.135.04-.828-1.6-1.97-1.798-.327.939-.637-.673-.68.288.899.687-.104 1.7-.676.787-.737-.486-.182 1.057-.876.912.267.3.743.532.598 1.008-.528-.18-.915-.594-1.275-1-.64-.705.835-.786.808-1.508-.913.89-1.764-.11-2.356-.744-.078-.859.625.184 1.022.132.514-.049.705-.734 1.263-.46-.218-.422-1.039-1.003-.42-1.35-.033-.783-1.008.757-1.444-.03-.637-1.155 1.11-.282 1.644-.892-.142.564.147 1.088.65 1.356-.078-1.18 1.244-.48 1.593-1.361-.488.036-1.614-.833-1.438.122-.036.844-.706-.35-.993-.59 1.046.164.061-1.096-.479-.97-.25-.782-1.348.116-.43.43 1.12.613-1.085 1.66-.205.59-.278-1.159-.968 1.137-1.538.258-.414-.556.996-.322.354-1.016-.65-1.279-2.377.56-2.51-.962.076-.44-1.205-1.047-.57-1.107 1.045.034 1.534.91 2.367-.003-.362-.426-1.463.108-1.033-.749.858-.6.762.497 1.445.344.349-.432-.644-.445-.378-.836.367-.65-1.168.115-.601-.428.632-.674 1.804-.152 2.245.525-.298-1.363 1.608-1.075 1.536-2.39-1.088-.232.16-1.374.032-2.133.651-.046 1.222.46 1.873.54.895.45-1.103 1.736-.153 1.647 1.126-1.341 2.882-.79 4.3-.648.169.084.338.165.51.245 1.162 1.374 3.002.816 4.508 1.497 1.48.292 2.985.365 4.488.37.624.178 1.249.353 1.868.545-2.722-.227-5.628-.323-8.366-1.097-.688-.49-1.788 1.145-1.809-.155-.593.626-1.477 1.042-1.621-.129.937-.357.034-.758-.518-.496-.112-1.678-1.678 1.091-.684.226.431-.311.456.756-.06.556-.739-.648-1.657-.127-2.517-.02-.216.727 1.37.844 1.492 1.707.934-.27 1.36-1.208 2.124-1.562.4.701-1.055.876-.471 1.602.704-.588 1.177.773 1.688.128.31-.215.223-.97.708-.55.383.502-.94.815-.417 1.363.336.351-.01.644-.246.92-.01 1.49-.814 2.571-.604 4.013.515.614-1.072.287-.585.891.819.863-.805.332-.702 1.125.213.973 1.389-1.227 1.04-.1-.717.988.904 1.873.13 2.84-.6.41.538.097.108.709-.78.343-1.197 1.883-2.148 1.292-1.337.365-2.684.956-4.095.6.294-.364.973-.372 1.08-.855-.657.044-1.428.386-1.932-.273-.643.11.048 1.117.184.612 1.027.665-.455.606-.866.714-.498.868-1.384.408-2.146.21Z" fill="#2D2D4D"/><path d="M30.218-1.56c-.513-.74 1.389-1.282.349-1.142-.106-1.065-.404-1.1-1.1-1.84-.508-.678.55-1.32.178-.304.372-.61.805-1.643 1.782-1.494-.332.286-1.205 1.62-.381.843.617-.591 2.33.32 2.62-.823-1.946.993.648-1.28.75.25-.725-.094-.426.795.08.834-.47.417-1.921 1.557-1.034 1.936.321-.198 1.028-.024.798-.59.672-.406.143.938.876.877.842.258-.52 1.24-.311.325-.51.482-.534-.195-.407-.575-.45.198-.393.846-.73 1.182-.183-.44-1.293-.534-.74-.052.796 0-.539 1.117.335.834.178-.56 1.33-.146.85-.751.186-.402.787.224.837.542.328-.082 1.062-.668.828-.036-.983.088-1.31 1.413-2.227 1.848-.73-.201.907-1.638-.57-.975-.509.153-1.987.595-1.38-.352-.92.443-.015-.546-.916-.343.121-.601.011-.51-.487-.194Z" fill="#54549E"/><path d="M48.252 48.18c-.972.62-2.161.044-3.082-.447.762.198 1.648.658 2.146-.21.411-.108 1.893-.049.866-.714-.136.505-.827-.501-.184-.612.504.659 1.275.317 1.932.273-.107.483-.786.492-1.08.854 1.41.357 2.757-.234 4.094-.599.951.591 1.369-.948 2.15-1.292.43-.612-.71-.3-.11-.708.775-.968-.846-1.853-.13-2.84.35-1.128-.826 1.073-1.039.099-.103-.793 1.52-.262.702-1.125-.487-.604 1.1-.277.585-.89-.21-1.443.594-2.525.604-4.014.236-.276.581-.569.246-.92-.524-.548.8-.861.417-1.364-.485-.419-.398.336-.709.551-.51.645-.983-.716-1.687-.128-.584-.726.871-.9.47-1.602-.763.354-1.19 1.292-2.123 1.562-.122-.863-1.708-.98-1.492-1.706.86-.108 1.778-.63 2.518.019.515.2.49-.867.058-.556-.994.865.573-1.904.685-.226.552-.261 1.455.14.518.496.144 1.171 1.028.755 1.62.129.022 1.3 1.122-.335 1.81.155 2.738.774 5.644.87 8.365 1.097 1.192-.203 2.134.593 3.164 1.038.487.34 1.429.462 1.612-.246.162-.51 1.06.404.327.515.887.35.268.86-.141 1.322-.263 1.916 2.408.245 2.762 1.621.257.732 1.496.41 1.675 1.064-.667.013-1.86.082-2.24-.43.993-.788-1.488-1.304-.699-.46.623.524.973 1.333 1.027 2.095-.4.344-.139.786-.013 1.192-.443.144-1.143-.137-1.348.411.625-.046 1.482-.312 1.67.584.258.409.625.227.355-.209 2.296-.436 4.496 1.107 6.525 1.488.471-.078.407-.74.564-1.096-.369.178-1.127.69-1.257 0 .53-.937 1.606-1.016 2.513-1.35-.507-.226-.272-.452.098-.687.063-.48-.739-2.344.29-1.377 1.255.649.698-1.227 1.634-1.65.586-1.015 2.064-.486 2.92-1.318.35.605 1.491.867 1.762.155 1.49.769 2.792-1.758 4.254-.599.411-.615-.886-1.495.21-1.669-.285-.554-.855-.914-.894-1.603.558-.238.518 1.47.918.514.977-.27-.37-1.097.663-1.117.767-.238-.386-1.673.574-1.785.305-.537-.794-.982-.238-1.459.398-.01.529-.205.402-.592.422.015.825.129.914-.425-.49 2.93-1.389 5.827-2.245 8.658-1.258-1.179-2.716.397-3.897.82-.603-.692-.82.545-1.556.244-1.336-.454-3.277-.366-3.53 1.393.055.885-1.535.548-.611 1.245 0 .77-1.815.994-.911 1.898.57.575-1.513 1.236-.123 1.186-.756.077-.898 1.302-1.16 1.901-.48.022-.503-.388-.41-.75-.667.875-1.137-.389-1.96-.33-1.349-.856-3.015-.992-4.522-1.518-.383.6-.567 1.563-1.46 1.402.756.772-.766.521-.575 1.388-.671.618-1.486 1.251-2.389 1.544-.504.225.452.465.027.637-1.067.833-2.453 1.308-3.252 2.45-1.37.245-2.713-.26-4.063-.508-.613-.045-2.196-.47-1.159-1.14-.825.274-1.617.686-2.474-.001-.246.473-1.607.69-.618.21-.394-.272-2.424.705-2.55-.516-.795.128-2.247-.957-2.525.136-2.068-.423-4.168-.013-6.19.442Zm7.534-8.866c.367-.443.794-.87 1.388-.415-.371 1.226 1.143.03 1.548-.364.908-.86-.559 1.747.587.847.707-.081 1.312-1.526 1.985-.807-.472-.017-1.592.997-.514.785 1.179.027.366 1.208-.023 1.656.56.09 2.242-.354 2.268-1.248.457.196 1.861-.53 1.513.406-.211.739-1.431-.136-1.32.763.932.557 1.742-.68 2.699-.796-.318.541-1.138.558-1.017 1.297.86-.342 1.674-.873 2.622-.914.2.423-1.232.922.22.455.225.668 1.382-.038 1.947-.091.258-1.28-1.486.878-1.586-.17.493-.768 1.397-1.123 1.846-1.58-.696-.688 1.454-1.049 2.042-.637-.3-.376-.032-.817-.06-1.225-.472.053-1.045.014-1.249-.496.328-.806-.688-1.427-1.324-1.89-.39.122-2.284-.421-1.06-.615-1.902-.54-3.87-1.048-5.894-.907-1.306.027-2.486-.6-3.75-.407-.892.333-1.594 1.078-1.989 1.908-.755.934.922.963 1.401.968-.528.15-.5 1.356-1.263 1.191-.039-.356-.173-1.037-.66-.755.5 1.09-.762 1.833-.357 3.04Z" fill="#20203C"/><path d="M39.29 8.73c-.292-.453-1.036.241-.863-.403-.051-.944.648-.544 1.152-.31-.804-.213.7-.804-.04-.966-1.175-.168.15-.974.384-1.591.887-.728 2.424-.106 2.892-.895-1.07 1.007 1.13-.13.025-.411.576.178 1.224-.862 1.675-.211.614-.259 2.268-.68 1.208.394-.92.749 1.685-.304.853-.496-.624-.393 1.026-.45.733-.88-.521-.193.328-.352.444-.619.602-.733 1.507-1.225 2.48-1.129.716-.037 2.154.238 1.835-.918.697-.564.893-1.973 2.014-1.502 1.789.364 3.593.365 5.424.625 1.245.025 2.79-.23 3.76.728.247-.301.585-.508.99-.437.586.112.25.48-.107.657.26.543-.414.52-.737.7-.732.24.891 1.07.668.376-.101-.79.888-.419 1.299-.241-.139.273-.354 1.16.165.712.151-.672.77-.214 1.205-.117-.53.206-1.106.372-1.514.785.816-.208 1.644-.138 2.447-.07 1.774-.45-1.351-.314-.274-.892.415-.37 1.492.058 1.14.665.59.395 1.41-.798 1.573.11.222-.068.613-.51.61-.046-.088.5-1.113.197-1.208.802.82.02 1.66-.065 2.473-.138.692-.576.187.929 1.06.234.81-.26.81.437.43.95.564.204 1.83-1.153 1.887.019-.13.76 1.074.084 1.008.854-.454.877-2.49.57-1.903 1.986.413-.397.86-.784 1.41-.975-.05 1.537-1.853 1.464-2.776 1.985 1.072.2 2.107-.263 3.144-.47-1.232.85.367.968.749 1.758-.734-.084-1.638-.176-2.185-.911-.978-.188-.612 1.647-1.51 1.003-.241-.376.61-.617.516-1.037-.57.546-.861-.27-1.455-.009-.772-.535 1.813-.542 1.147-1.432-.297.11-.587.387-.92.236.168-.373.526-.67.51-1.112-.536.131-1.333.13-1.633.613-.45.863 1.342.265.69.9-.202.096-.349.78-.513.414-.225-.688-1.17.56-1.338-.285-.549 1.074-1.86 1.362-2.977 1.137-1.063-.411-1.534 1.793-2.386.673-.601-.69-1.492.984-.08.368.284.566 1.858.592 1.09 1.382-.276-.192-1.318-.372-.861.155.484.091.626.75.136.942-.876.006-.375 1.548.28.913.063.468-.823.913-.183 1.304-.877.819-.73-.259-.883-.783-.389.108-1.092.936-1.12.242.983-.015 1.194-1.227.244-1.427-.183.57-.734 1.77-1.42 1.126-.782-.329.636-1.173.321-.196.624-.648 1.422-1.375 1.228-2.369.329-.396-.56-.699.026-1.006.465-.34-.576-.33-.475-.562.891-.724 2.303-.88 3.006-1.813-.608-.682-2.553.387-2.913-.759.834-.576 2.057.003 2.203-1.217-.748.4-1.735.159-2.193 1.06-.71-.154-1.81.83-2.096-.15.543-.358 1.28-.565 1.864-.195.476-.466 1.103-.72 1.406-1.36-.78.567-1.982.277-2.146-.73-.401-.016-1.925-.147-.992.415.867.478-.554.807-.63 1.382-.428.45-.511-.112-.53-.488-.366.003-.76.422-.207.525-.206.83-1.34-.122-.854-.581.521-.485-.793-1.158-.855-.455-.205.429.813.992-.033 1.047-1.12.366-1.302-.316-.404-.768-1.23.412-2.347 1.05-3.369 1.84.87-.802-.44-.236-.813-.898-.521-.76-1.85.848-1.55-.149.692-.012 1.05-.553 1.27-1.153-.647-.473-1.51-2.128-2.39-1.24-.672-1.278-1.322.476-2.308-.107.33.539.99.779 1.47 1.177-.53.115-1.136.295-1.092.948-.538-.448-2.247-1.862-1.156-.494-.613.119-2.005.9-.72.82.428.667 1.525.903 1.9.065-.002.788-.968 1.852.08 2.306-.763.27-.971.854-.008.933-.233.4-.756.956.059.6-.279.37-.35.831-.422 1.275.722-.28.313-1.425 1.174-1.625.984-.189-1.143 1.17-.146 1.002.856-.702 1.707-1.414 2.563-2.117.67.218 1.447.255 2.078-.104.45.734-1.442.146-1.597.837.565.031 1.164-.093 1.702.131.473.692-.714.898-1.128 1.244-.409-.34-1.06-.813-1.561-.39.585.223 1.24.44 1.57 1.015.036-.386.272-.745.695-.518.73.07-.005 1.182.778 1.202-.249.624-1.029.513-1.482.614.127.658.947.376 1.343.382-.104.637.646 1.551-.26 1.856.764-.818-.28-.492-.555-1.086.023 1.046-.752.601-1.311 1.235.38.254 1.048.407 1.177.832-.657.667-1.838.025-2.605.408.284.33.812.29 1.048.645-.376.21-1.61.08-1.438.828.67.51.846-.03 1.828-.083.3.953 1.67-.158 2.286.595.426.414.65-.298.835-.59.35.652 2.069.35 1.012-.27-.665-.22-.016-1.305.156-.372 1.066.187.693-.445.074-.759-1.05.373-.103-.96.378-1.142.481-1.368.63 1.661 1.128.248.774-.12-.81 1.904.392 1.116.698.529-1.8.333-.868 1.016-.588.645-1.54.875-2.022 1.626.389.146.779.217.425-.276 1.044-.077 2.093-.686 3.09-.201.128 1.037-.865-.018-1.275.696-1.11-.325-1.508.578-.06.276-.477.77-1.304 1.019-1.881.214-.904.124 1.17 1.075.183 1.575-1.115.18.646 1.152-.561 1.349-.1-1.02-1.309-.075-.54.19.64.156.262 1.116.985 1.264.053-.479-.076-.95-.158-1.417.244.358.567.51.84.087.8.056-.266.816.087 1.264.489-.006 1.874-1.045 1.095.044.548.148.794-.723 1.303-.603-.752.646.116 1.525-.512 2.146-.637-.127-.335-1.166-1.083-.576-.343-.882-2.18-.786-.87.013-.684 1.567-2.134-.01-3.096-.409-.441-.434-.927.76-1.105.197-.575-.534.207-.624.66-.997-1.13.31-1.067-.732-1.18-1.473-.75.431-.547-.655-1.099.109-1.385.383 1.017-1.19-.48-.445-.005-.974-1.381-.838-1.488-1.785-.629-.04-.639-.45-.62-.974-.63-.267-1.24-1.241-.531-1.799-.58.433-3.34.018-1.136-.506-.276-.645-1.04-.322-1.58-.46.313-.466.838-.736 1.147-1.196-.69-.125-1.035-.182-.453-.827-.54.373-1.99.268-1.176-.524-.362-.202-1.912.966-1.824-.3.053-1.042-1.38-1.346-2.022-1.72-.16-1.222-1.389-1.73-2.043-2.538.485-.314 1.065-1.748.173-.912Zm1.712 2.56c.561-.25.14-1.102.645-1.478.166.635.077 1.777.836 1.86.209.509 1.85.164 1.399-.565.22-.055.637.05.538-.316-.326-.695 1.032-.453.412-1.102.723.503 1.089-.701.176-.34-.137-.751-.56-1.423-1.388-.727-.72.498-1.42.179-1.748.87-.072-.95-1.549.53-.652.63-.097.412-.704.66-.218 1.168Zm9.613-9.593c1.557-.23.852 2.216 2.49 1.919 1.08.225 2.337 1.1 2.933-.228.244-1.057-1.238.836-1.245-.302-.747.68-.572-.966.372-.488.667-.538-.62-1.106.01-1.614 1.062-.019.271-1.805-.39-1.88-.789.068.712.792.002.812-.274-.262-.282-1.107-.746-.697-.727.532.282.385.451 1.036.773.548-.24.474-.608.52-.254-.522-.717.643-.658-.187.16-.814-1.467-.433-.717.119.833-.208-.891.49-.196.977-.293.86-.544-1.007-1.078-.244-.043.688-.855-.412-.62.257Z" fill="#5A5AA7"/><path d="M33.734-6.833c.53-.368.41-1.151-.285-1.178 1.105-.853 3.39-1.343 4.937-1.845.845-.237 1.787-1.103 2.634-.522-1.494.263-2.928.761-4.336 1.307.392.119.356.282.021.472 1.7 1.036 3.81 1.269 5.532 2.319.1-.34.766-.517.427-.052 1.783 1.195 3.871.289 5.728.989-.396.308-.993-.137-1.48 0 1.539.22 2.364 1.58 3.836 1.922-.714.655.932.65.294 1.078-.513.05-1.583 1.325-.574 1.043-.003-.602.546-.97 1.046-.552-.79.471-.463 1.341-1.034 2.05-.481.589-.69-.945-1.134-.408-.24.518-1.043-.113-1.035.617-.328.067-.82.147-.318.44C48.514.292 49.24.483 49.87.2c.387.725-.439.463-.75.809-1.02-.065-1.645.89-2.556.478-.914-.098.315.502-.324.785-.556.073-1.733.628-1.777-.244-.528.082-1.394-.922-1.114-.002-.764.59-.133-1-1.04-.17-.58-.846 2.087-1.031 2.849-.883.954.239 1.194-1.033 1.947-1.313-.619-.239-.962.372-1.177.84-.855-.09-1.697.181-2.542.17-.61-.395-1.478.519-1.616-.532.297-.829-1.55.058-1.022-.748-.569-.593-.23 1.183-1.136.526-.008-.7 1.23-1.063 1.705-1.643-.777-.329-1.316.4-1.651 1.001-.5-.388-.85-.958-1.543-1.011.633-.513 1.855.35 2.193-.681.51-1.236-1.323-.741-2.004-.955-.205.44-.118 1.678-.923 1.065-.046-.31.51-.624-.03-.881.27-.563 1.901-.8.428-1.094 1.655-.614.134-.547-.251-1.326.356-1.017-1.265-1.046-1.672-1.815-.756.55.864.733-.004 1.094-.693-.26-1.355-.577-2.126-.503Z" fill="#7D7DCC"/><path d="M41.002 11.29c-.486-.508.121-.755.218-1.169-.897-.099.58-1.579.652-.63.329-.69 1.028-.371 1.748-.869.828-.696 1.251-.024 1.388.727.913-.361.547.843-.176.34.62.649-.738.407-.412 1.102.1.366-.318.26-.538.316.45.729-1.19 1.074-1.399.565-.76-.083-.67-1.225-.836-1.86-.505.376-.084 1.229-.645 1.479Z" fill="#474785"/><path d="M46.428 21.211c-1.36-1.189-1.967-2.889-3.172-4.225.7.737 1.73 1.313 1.935 2.372.964.864 1.754 2.853 3.282 2.484.006 1.92 1.895 3.196 3.06 4.545 1.286 1.569 2.808 2.907 4.284 4.282.113.997 1.248.302 1.375 1.016 1.182-.96 2.307.528 3.531.636 1.447.123 3.082.586 4.396-.061 1.278.674 2.75.738 4.126.998.589-1.384 2.489-1.693 3.408-2.877 1.444-.824 3.071-1.37 4.172-2.665 1.487-.753.582-2.8 1.267-4.12-.072-3.877 1.239-7.372 1.516-11.237-.333-.946.976-1.76.339-2.77-.76-2.217-2.13-4.13-2.954-6.328-.498-.744.985-1.572-.083-2.037.786.245.656-1.266 1.194-.307.159-.444.868-.205.968.155-.49.767.773.481 1.13.12C81.771.903 83.257.1 84.891.02c-1.16.772-2.97.234-3.797 1.512-.73-.544-.78.79-1.565.457-1.132-.342-2.119.51-2.127 1.503.746 1.49 1.578 3.189 2.194 4.823 1.263 1.008.662 2.532.51 3.81-.585 1.347-.439 2.95-.632 4.44-.588 1.285-.886 2.94-.525 4.29-.749.804-.724 1.98-.266 2.934-.845.336.266 1.22-.415 1.717-.443.308-.232.513.205.64-1.234.714.754 1.296.84 2.172.748.541-.174 1.265-.67.604-.803.156-.894-.865-1.572-.885-.707.573-.909 1.493-1.823 1.803-.473-.484-1.474.194-1.932.751-.95.4-1.738 1.155-2.374 1.967-.882-.967-.934 1.099-2.019.965-1.373-.31-2.89-.657-4.389-.607-1.503-.004-3.01-.077-4.488-.368-1.506-.682-3.346-.123-4.509-1.498-.192-.928-1.152-1.54-2.064-1.52 1.202.177-.78-1.745-.177-.274-.802-.04-.448 1.33-1.052.578.378-.66-.866-1.648-1.26-1.123.29 1.233-.545-.192-.067-.765-.821-.343.284-.893-.52-1.183-.241.666-.602-.263-.58-.602.195-.696-.977.054-.43-.538 1.718-.95-1.443-.347-.518.328 1.114.164-2.011.717-1.12.148.624.042.332-.773.751-1.095-.306.207-1.115 1.012-1.198.47.692-.451 1.31-1.861.1-1.143.147-1.062 1.05-.614 1.535-.279-.214-1.49-1.78-2.208-3.092-1.897-.085-.27 1.435-.506.582-.944Z" fill="#4D4D91"/><path d="M42.236-6.28c-1.72-1.05-3.831-1.283-5.531-2.319.335-.19.37-.353-.021-.472 1.408-.546 2.842-1.044 4.336-1.307 8.907 2.005 17.965 3.628 26.817 5.825 2.033.91 4.447 1.025 6.386 2.28-.498.185-1.007-.463-1.428.003.797-.015.31 1.071 1.108.578.654-.28 1.372.1 2.04.19-.163.511-.895.177-1.309.22.445.508-.142.256-.493.26.362.439.64.923.966 1.398-.47.66-1.218-2.256-1.933-1.08-.753.04-1.285 1-.123.724-.051-.87 1.29.161.198.466-1.121-.494-.498.208-.063.865-.713-.174-1.366-.424-2.038-.581-.502.397-1.976-.92-1.791-.043-.809-.548-2.73.5-2.499-.956-.246-.224-1.233-.24-.766-.65.7-.444-.608-.856-.976-.55-.935.505-2.217.917-3.122.148.175-.678.857.126 1.32-.116-.227-.855 1.163.3 1.248-.533-.07-.31-.698-.766-.992-.345-.398.155-1.913-.392-1.065.339-1.344-.07-2.773.842-4.021.086-1.124-.212-1.924-.587-3.052-.863-1.648.049-3.02-1.203-4.684-.708-1.472-.341-2.297-1.703-3.836-1.923.487-.136 1.084.31 1.48 0-1.857-.7-3.945.207-5.728-.988.339-.465-.327-.288-.428.052ZM49-4.75c.577.647 1.45 1.056 2.318 1.013.027-.333-.92-.392-.297-.452.742.056.714-.601.816-1.073.53.429 1.357-.67.528-.654C51.463-5.292 49.329-6 49-4.749Z" fill="#5959A5"/><path d="M55.786 39.314c-.405-1.208.857-1.95.358-3.041.486-.282.62.4.659.755.763.165.735-1.04 1.263-1.191-.48-.005-2.156-.034-1.4-.968.394-.83 1.096-1.575 1.988-1.908 1.264-.193 2.444.434 3.75.407 2.024-.14 3.992.368 5.894.907-1.225.194.67.737 1.06.615.636.463 1.652 1.084 1.324 1.89.203.51.776.55 1.25.496.027.408-.241.85.059 1.225-.588-.412-2.739-.051-2.042.638-.45.456-1.353.811-1.846 1.58.1 1.047 1.844-1.111 1.586.169-.565.053-1.722.759-1.946.09-1.453.468-.02-.03-.221-.454-.948.041-1.763.572-2.622.914-.12-.739.699-.755 1.017-1.297-.957.116-1.767 1.353-2.7.797-.11-.9 1.11-.025 1.321-.764.348-.935-1.056-.21-1.513-.406-.026.894-1.708 1.338-2.268 1.248.389-.448 1.202-1.63.023-1.656-1.078.212.041-.801.513-.785-.672-.72-1.277.726-1.984.807-1.145.9.321-1.708-.587-.847-.405.395-1.92 1.59-1.548.364-.594-.456-1.021-.028-1.388.415Z" fill="#151536"/><path d="M52.96 25.788c-1.048.329-.527-.303-.018-.711.178.564.664-.63 1.105-.197.962.398 2.412 1.976 3.096.409-1.31-.799.527-.895.87-.013.748-.59.446.449 1.083.576.628-.621-.24-1.5.512-2.146-.509-.12-.755.751-1.303.603.779-1.089-.606-.05-1.095-.044-.352-.448.713-1.208-.088-1.264-.272.423-.594.271-.84-.087.083.468.212.938.16 1.417-.724-.148-.346-1.108-.986-1.265-.769-.264.44-1.21.54-.19 1.207-.196-.554-1.168.561-1.348.988-.5-1.087-1.45-.183-1.575.577.805 1.404.556 1.88-.214-1.447.302-1.049-.601.06-.276.411-.714 1.404.34 1.277-.696-.998-.485-2.047.124-3.09.2.353.494-.037.423-.426.277.482-.75 1.434-.98 2.022-1.626-.933-.683 1.566-.487.868-1.016-1.203.788.383-1.236-.392-1.116-.498 1.413-.647-1.616-1.128-.248-.481.183-1.428 1.515-.378 1.142.62.314.992.946-.074.76-.172-.934-.82.15-.156.37 1.057.621-.662.923-1.012.27-.184.293-.41 1.005-.835.59-.617-.752-1.986.359-2.286-.594-.982.053-1.158.593-1.828.083-.172-.749 1.062-.618 1.438-.828-.236-.355-.764-.316-1.048-.645.767-.383 1.948.26 2.605-.408-.13-.425-.796-.578-1.177-.832.559-.633 1.334-.189 1.31-1.235.277.595 1.32.268.556 1.086.906-.305.156-1.219.26-1.856-.396-.006-1.216.276-1.343-.382.453-.101 1.234.01 1.483-.614-.784-.02-.049-1.133-.779-1.202-.423-.227-.659.132-.695.518-.33-.575-.985-.793-1.57-1.015.5-.423 1.152.05 1.56.39.415-.346 1.602-.552 1.13-1.244-.54-.224-1.138-.1-1.703-.131.155-.69 2.047-.103 1.597-.837-.848-.25-.312-.743.011-1.24 1.022-.789 2.14-1.427 3.369-1.839-.898.452-.715 1.134.404.768.846-.055-.172-.618.033-1.047.062-.703 1.376-.03.856.455-.486.459.647 1.41.853.581-.553-.103-.16-.522.207-.525.019.376.102.938.53.488.076-.575 1.497-.904.63-1.382-.933-.562.59-.431.992-.414.164 1.006 1.367 1.296 2.146.73-.303.64-.93.893-1.406 1.359-.585-.37-1.32-.163-1.864.195.286.98 1.385-.004 2.096.15.458-.901 1.445-.66 2.193-1.06-.146 1.22-1.369.641-2.203 1.217.36 1.146 2.305.077 2.914.76-.704.931-2.116 1.088-3.007 1.812-.101.231.94.222.475.562-.585.307.303.61-.026 1.006.194.994-.604 1.721-1.228 2.369.315-.977-1.102-.133-.322.196.687.644 1.238-.556 1.421-1.126.95.2.74 1.412-.244 1.427.029.694.732-.134 1.12-.242.154.524.006 1.602.883.783-.64-.391.246-.836.183-1.303-.655.634-1.155-.908-.28-.914.49-.191.348-.85-.136-.942-.457-.527.586-.347.86-.155.77-.79-.805-.816-1.09-1.382-1.41.616-.52-1.059.081-.368.852 1.12 1.323-1.084 2.386-.673 1.117.225 2.428-.063 2.977-1.137.168.845 1.114-.403 1.339.285.163.366.31-.318.511-.414.653-.635-1.139-.037-.689-.9.3-.483 1.097-.482 1.632-.613.017.442-.341.739-.509 1.112.334.151.623-.125.92-.236.666.89-1.919.897-1.147 1.432.594-.261.885.555 1.455.01.093.42-.757.66-.515 1.036.897.643.531-1.191 1.51-1.003.546.735 1.45.827 2.184.91-.382-.79-1.98-.908-.749-1.757-1.037.207-2.072.67-3.144.47.923-.521 2.725-.448 2.776-1.985-.55.19-.997.578-1.41.975-.586-1.416 1.449-1.109 1.903-1.986.066-.77-1.138-.094-1.008-.854-.057-1.172-1.323.185-1.887-.019.38-.513.38-1.21-.43-.95-.873.695-.368-.81-1.06-.234-.812.073-1.654.159-2.473.138.095-.605 1.12-.302 1.208-.802.003-.464-.388-.022-.61.046-.163-.908-.982.285-1.572-.11.35-.607-.726-1.035-1.14-.665-1.078.578 2.047.442.273.893-.803-.069-1.631-.14-2.447.07.408-.414.984-.58 1.514-.786-.435-.097-1.054-.555-1.205.117-.52.448-.304-.439-.165-.712-.411-.178-1.4-.549-1.299.24.223.696-1.4-.136-.668-.374.323-.18.997-.158.737-.701.357-.177.693-.545.108-.657.839-.21 2.15.744 2.601.062-.23 1.455 1.69.408 2.5.956-.186-.877 1.288.44 1.79.043.672.157 1.325.407 2.038.581-.436-.657-1.058-1.36.063-.865C74.341.181 73-.85 73.051.02c-1.162.276-.63-.684.123-.724.715-1.176 1.462 1.74 1.933 1.08-.325-.475-.604-.96-.966-1.399.351-.004.938.25.493-.258.414-.044 1.146.29 1.31-.221-.669-.09-1.387-.47-2.041-.19-.797.493-.31-.593-1.108-.578.421-.466.93.182 1.428-.003-1.94-1.255-4.353-1.37-6.386-2.28C73.489-3.285 79.12-1.876 84.752-.491c.655.087 1.216.34 1.362 1.037-.452-.064-.769-.464-1.223-.526-1.633.08-3.118.882-4.69 1.173-.355.36-1.62.646-1.13-.12-.099-.36-.808-.6-.967-.156-.538-.96-.408.552-1.194.307 1.068.465-.415 1.293.083 2.037.824 2.197 2.195 4.111 2.954 6.329.637 1.008-.671 1.823-.338 2.769-.278 3.865-1.59 7.36-1.517 11.237-.684 1.32.22 3.367-1.267 4.12-1.1 1.295-2.728 1.841-4.172 2.665-.92 1.184-2.819 1.493-3.408 2.876-1.376-.26-2.848-.323-4.126-.997-1.314.647-2.949.184-4.396.061-1.224-.108-2.349-1.595-3.53-.636-.128-.714-1.263-.02-1.376-1.016.53.451 1.23.48 1.893.673-.206-.287-.332-.63-.153-.966.232-.027.88.191.603-.228-.49-.537-1.31-.076-1.931-.4.382-.344.183-.765-.037-1.142.299.28.655.51 1.08.373-.127-.488-.591-1.274-1.163-1.161.41.416-.039 1.04-.359.434-.189-.855-1.307.462-1.558-.238.477-.277 1.676-.177.893-1.02-.439-.05-.809-.23-.76-.733-.318.424-1.046.643-1.235.05.354-.52.503-1.355-.13-.523Zm12.382-.769c.52-.366.457.748.802.241.443-.658.747.431.304.701-.815.364-.344 2.009.618 1.535.044.47.082.867.263.198 1.192.06 1.182 2.066 2.128 2.249.088.564-.558.013-.656.37-.795.662.5 1.256.921 1.742 1.802-.396 2.555-2.321 4.35-2.733.817-.234 1.086-1.186 1.916-1.44.498-.385 1.393-.487 1.35-1.273-.857-.26.342-.925.276-1.46.124-1.986.293-4.195.663-5.855.111-2.568 1.37-5.284.877-7.96.867-.203.578-2.506-.269-2.669.15 1.022.238 2.255-.699 2.923-.722-.213-1.044 1.699-.41.749 1.051-1.14-.152 1.682-.594 1.866-.444-.548-.121.375-.678.425.075-1.225-.623.461-1.272-.006-1.058.43-1.892.812-2.455 1.974.712-.264 1.082-.3 1.733-.799.119.34-.03.7-.19.998-.44-.368-.971-.155-.824.388-.599.074-1.683-.472-1.478.714.762 1.135-1.15 1.183-1.152.108-1.195-.646-1.204 1.971-2.352 1.8.432-.493-.782-1.149.071-1.145.851.378 1.011-.904 1.6-1.244.705.135 1.382-.836 1.328.406.176-.742 1.61-1.383.679-1.878-.469.926-.505-.743-1.235-.143-.605.037-.429 1.154-1.038 1.192a33.787 33.787 0 0 0-2.715-.613c-.35.266-.586 1.466-1.046.677.31-.146.818-.324.32-.63-.44.171-.59.966-1.232.808-.175.552.409.735.78.881.784-.525.459.914-.15.86-.806.156-.026 1.253.544.79-.41.26.25.418.097.782-.35 1.24 1.516 1.393 2.337 1.282.614-.892 1.096.21 2.033-.192-.262.554-.936.715-1.442.94.368-.436-.137-1.161-.426-.46-.669.934-1.618-.293-2.34.055.758.27 1.132 1.103 2.068.8.295 1.065-1.039.4-1.357 1.052-.347.176-1.11-.561-.646.213-.178.632-1.138.291-1.402.781Z" fill="#6767B9"/><path d="M47.223 6.29c-1.286.078.106-.703.72-.821-1.092-1.368.617.046 1.155.494-.044-.653.562-.833 1.093-.948-.48-.398-1.142-.638-1.471-1.177.986.583 1.636-1.17 2.309.106.879-.887 1.742.768 2.389 1.241-.22.6-.578 1.141-1.27 1.153-.3.997 1.029-.612 1.55.149.372.662 1.683.096.813.898-.323.496-.86.99-.011 1.239-.63.36-1.407.322-2.078.104-.856.703-1.707 1.415-2.563 2.117-.997.168 1.13-1.19.146-1.003-.861.2-.452 1.347-1.174 1.626.073-.444.143-.905.421-1.275-.814.356-.29-.2-.058-.6-.963-.079-.755-.663.008-.933-1.048-.454-.082-1.518-.08-2.306-.375.838-1.471.602-1.9-.065Z" fill="#4A4A8B"/><path d="M50.615 1.697c-.235-.67.577.431.62-.257.534-.763.785 1.105 1.078.244-.695-.486 1.03-1.185.197-.977-.751-.552.876-.933.716-.12-.06.831.404-.334.658.188.368-.046 1.381.028.608-.52-.169-.65-1.178-.504-.451-1.036.464-.41.472.435.746.697.71-.02-.79-.744-.002-.811.662.074 1.452 1.86.39 1.879-.63.508.657 1.076-.01 1.614-.943-.478-1.12 1.169-.372.488.007 1.138 1.489-.755 1.245.302-.596 1.328-1.853.454-2.933.228-1.638.297-.932-2.15-2.49-1.92Z" fill="#494989"/><path d="M66.402 33.462c-.618-.192-1.243-.366-1.867-.546 1.5-.05 3.016.297 4.39.607 1.085.134 1.136-1.932 2.018-.965.636-.812 1.423-1.567 2.374-1.967.458-.557 1.46-1.235 1.932-.75.914-.311 1.116-1.231 1.823-1.804.678.02.77 1.041 1.573.885.495.661 1.417-.063.67-.605-.087-.875-2.075-1.457-.84-2.17-.438-.128-.65-.333-.206-.641.681-.497-.43-1.38.416-1.717-.459-.954-.484-2.13.265-2.934-.361-1.35-.063-3.005.525-4.29.194-1.49.047-3.093.633-4.44.15-1.278.752-2.802-.51-3.81-.617-1.634-1.449-3.333-2.195-4.823.008-.993.995-1.845 2.127-1.503.785.333.836-1.001 1.565-.457C81.923.253 83.732.792 84.89.02c.454.062.771.462 1.223.526.148.033.234.133.257.298.606 1.223-1.153-.564-.992.656.577.95-.117.947-.62.536.793-1.976-3.305-1.752-3.378.015 1.314.832-.33.54-1.036.339.677.729-1.494.335-.593.857 1.021.328-.76.572-.6.035.445-.593-.472-1.748-.304-.614-.952-.124.617.735-.234.499-1.476-.43.01 1.459.372 2.105.783 1.271 1.444 2.67 2.282 3.829-.834-.743-.878.463-.509.996-.422 1.054-.108 2.11-.501 3.19-.783.03.033.913-.026 1.322-1.077.612.453 2.455-.962 3.126.565.648-.268 1.283.532 1.619-.147-.43.197-.697.464-.969.07.495.927 1.618-.018.915-.116.546-.08 1.145-.81.804-.381-1.37-.65.504.092.868.745.88-1.471.66-.54 1.355.457.426.537-1.103.96-.39.115.792-.497 1.53-.114 2.289-.439.813.276 1.837-.36 2.394.96.467-.46.554.078 1.2.896 1.907 3.533 2.86 3.77 5.072.54.131 1.06 1.12 1.57.67.808.272-.01 2.608 1.354 1.916.749 1.227-1.316.475-1.29 1.431-.208 1.03-1.055-.125-1.219.548-.5-.253.616-.839.173-1.075-.315-.27-1.118-.18-1.119-.648.196-.802.984.501 1.218-.212-.401-.46-.215-1.61-1.261-.984-.311.05.44-.827-.117-.493-.306.095-1.192.495-.761-.096.63-.72-1.004-.631-.386-1.177.09-1.002-2.4-.892-1.305-1.88-.729.051-.768-.855-1.351-1.042.092.804-.656.47-.9.005-.129 1.345-1.726.001-2.192.714 1.459.556-.459 2.004-1.59 1.61-.253.869-1.34-.104-.353-.257-.567-.985-1.732.112-2.186.674 1.02.05.258.423-.08.912.518-1.095-1.453-1.124-1.098-.37-.912.481.47 1.412-.865 1.362-1.03-.445-1.972-1.241-3.164-1.038Z" fill="#3B3B69"/><path d="M65.342 25.02c.264-.49 1.224-.15 1.401-.782-.464-.774.3-.037.647-.213.318-.653 1.652.013 1.357-1.052-.936.303-1.31-.53-2.069-.8.723-.348 1.672.879 2.34-.055.29-.701.795.024.427.46.506-.225 1.18-.386 1.442-.94-.937.402-1.42-.7-2.034.192-.82.11-2.687-.043-2.336-1.282.153-.364-.508-.522-.097-.783-.57.464-1.35-.633-.544-.79.609.055.934-1.384.15-.859-.371-.147-.956-.33-.78-.881.642.158.792-.637 1.232-.808.498.306-.01.484-.32.63.46.789.695-.41 1.046-.677.86.161 1.82.366 2.715.613.61-.038.433-1.154 1.038-1.192.73-.6.766 1.069 1.235.143.93.495-.503 1.136-.679 1.878.054-1.242-.623-.271-1.327-.407-.59.34-.75 1.623-1.601 1.245-.853-.004.36.651-.071 1.146 1.148.17 1.157-2.447 2.352-1.801.001 1.074 1.914 1.027 1.152-.108-.205-1.186.879-.64 1.478-.714-.147-.543.385-.756.824-.388.16-.298.309-.659.19-.998-.65.499-1.02.535-1.733.799.563-1.162 1.397-1.544 2.455-1.974.65.467 1.347-1.22 1.272.006.557-.05.233-.973.678-.425.442-.184 1.645-3.006.593-1.866-.633.95-.31-.963.411-.75.937-.667.85-1.9.699-2.922.847.163 1.136 2.466.269 2.669.492 2.676-.766 5.392-.877 7.96-.37 1.66-.539 3.869-.663 5.855.066.535-1.133 1.2-.275 1.46.042.786-.853.888-1.351 1.273-.83.254-1.1 1.206-1.916 1.44-1.795.412-2.548 2.337-4.35 2.733-.422-.486-1.716-1.08-.921-1.742.098-.357.744.194.656-.37-.946-.183-.936-2.19-2.128-2.249-.181.669-.219.272-.263-.198-.962.474-1.433-1.171-.618-1.535.443-.27.139-1.36-.304-.701-.345.507-.282-.608-.802-.24Z" fill="#7878C9"/><path d="M71.178 34.254c-.183.708-1.125.585-1.612.246 1.336.05-.047-.88.865-1.362-.355-.754 1.616-.725 1.098.37.339-.489 1.1-.863.08-.912.454-.562 1.62-1.66 2.186-.674-.986.153.1 1.126.353.257 1.131.394 3.049-1.055 1.59-1.61.466-.713 2.063.63 2.191-.714.246.466.993.8.9-.005.584.187.623 1.093 1.352 1.041-1.096.989 1.396.879 1.305 1.881-.617.546 1.016.457.386 1.177-.431.591.455.191.762.096.556-.334-.195.543.116.492 1.046-.625.86.525 1.261.984-.234.714-1.022-.59-1.218.213.001.468.804.378 1.12.648.442.236-.674.822-.173 1.075.163-.673 1.01.482 1.218-.548-.026-.956 2.04-.204 1.29-1.431-1.364.692-.546-1.644-1.354-1.916-.51.45-1.03-.54-1.57-.67-.237-2.212-2.874-3.165-3.77-5.072-.538-.646.881-.733-.078-1.2.636-.557-.079-1.581.36-2.394-.383-.759.229-1.497.115-2.288-.424-.714-.504.815-.961.389-.931-.695 1.285-.476.54-1.355-.743-.364-.473-2.238-.092-.868.73.341.694-.258.81-.804.945.703.089-.42.018-.915-.267.271-.61.538-.464.969-.8-.336.033-.971-.531-1.62 1.414-.67-.116-2.513.961-3.125.059-.41-.757-1.292.026-1.322.393-1.08.08-2.136.501-3.19-.37-.533-.325-1.74.509-.996-.838-1.16-1.5-2.558-2.282-3.83-.362-.646-1.848-2.534-.372-2.104.85.235-.718-.623.234-.5-.168-1.133.749.022.303.614-.158.538 1.622.294.601-.034-.9-.522 1.27-.128.593-.858.707.202 2.35.494 1.036-.338.073-1.767 4.171-1.991 3.378-.015.503.41 1.197.413.62-.536-.161-1.22 1.598.567.992-.656.946 1.218 1.643 2.726 2.426 4.077-.358.834.965 2.253-.04 2.905.07.326.372.552.534.839-.645-.056-.497.418-.396.916-.308-.242-.495-.234-.478.194-.516.212-1.013-.05-1.42-.355-.217.4-.579.694-1.032.777.431.708 1.111.262 1.127-.45.648.242.988.908 1.163 1.537-.46-.08-.609-.56-.86-.885-.402.583-.13 1.572.673 1.582.727.135 1.12 1.2 1.728.995.006.48.483.708.85.903-.01-.348-.037-.698-.014-1.046.392.322.969 1.403 1.371.571.444-.288 1.034-.324.645.342-.14.704.626.276.946.091-.096.778-1.309 1.276-1.864.635-1.665-.25-3.245-.956-4.687-1.865.063-.702-.656-.577-.252.024-.54.711-1.25-.126-1.63-.563-1.001 1.32-1.374-.388-2.614-.349-.536-.114-.667-1.517-1.015-.443-.954-.707-.62.78-.858 1.349-.076.502.886 2.159-.282 1.696.163.33.38.625.593.922-.443-.216-1.046 1.777-.417 1.999.223-1.088 1.333 1.226.28 1.099.014-.379-.281-1.209-.705-.678.005.925 1.558 1.82.81 2.783-.498.289.313 1.386.48.681.19-.536.8.086 1.21-.003-.383.806-.672 1.718-.155 2.554-.001.94-1.306-1.222-1.205-.1.958.322.642 2.14 1.704 2.03-.066-.454-.99-1.648-.033-1.302.302-.056.246-.621.476-.846.116.814-.277 1.627-.014 2.43-.507.404-.928.176-1.25-.222-.048.487-.962 1.016-.389 1.38.907.181 1.215 1.773.023 1.555 1.015 1.136 2.599 1.386 3.36 2.79.251-1.292-1.096-1.207-1.478-2.306-.115-.315-1.014-.98-.26-.918.684.763 1.884-.332 1.963.946-.375-.239-.948.503-.464.587.545-.226.293.551.76.636.309-.496.882-1.172.205-1.622-.184-.652.92-1.467 1.142-.502.047.825 1.884.395.922.068-.904.157-1.134-.956-.794-1.603.884.821 1.228-.537 1.303-1.124-.768-.51.584-1.12.657-.624-.345.34-.013.561.303.74.302-.952-.715-2.991.568-3.293-.308-.848-.268-1.351.277-.616-.343-.793 1.338-1.068.375-1.677.45.024.687-.146.911-.572.043.399-.426 1.188.259.699-.845.579-1.715 1.826-.914 2.796-.322-.04-.511-.317-.732-.522-.704.756.52 1.242.44 2.053.428-.179.706-2.856 1-1.113.27-.522 1.097-.796.943-1.477-.761.23-.973-1.476-.545-1.047.185 1.147.763-.049 1.285.62.765.63-.55 1.477.238 2.036-.042.75.912 1.328.58 2.055-.378.585 1.104 1.265.657.444.79.852.258-.863 1.1-.607.956.105.637 1.29.544 1.94-.089.553-.492.44-.914.424.127.387-.004.583-.402.592-.556.477.543.922.238 1.459-.96.112.193 1.547-.574 1.785-1.033.02.314.846-.663 1.117-.4.955-.36-.752-.918-.514.04.689.61 1.05.894 1.603-1.096.173.201 1.054-.21 1.67-1.462-1.16-2.765 1.367-4.254.598-.27.712-1.413.45-1.762-.156-.856.833-2.334.304-2.92 1.318-.936.424-.379 2.3-1.633 1.651-1.03-.967-.228.898-.29 1.377-.37.234-.606.46-.099.687-.907.334-1.982.413-2.513 1.35.13.69.888.178 1.257 0-.157.357-.093 1.019-.564 1.096-2.03-.38-4.23-1.924-6.525-1.488.27.435-.097.617-.354.21-.19-.897-1.046-.63-1.67-.585.205-.548.904-.267 1.347-.41-.126-.407-.386-.849.013-1.193-.054-.762-.404-1.571-1.027-2.095-.789-.844 1.692-.328.7.46.38.512 1.572.443 2.24.43-.18-.655-1.419-.332-1.676-1.064-.354-1.376-3.025.294-2.762-1.62.41-.463 1.028-.973.141-1.323.733-.11-.165-1.026-.326-.515Z" fill="#2E2E4F"/><path d="M85.16 31.393c-.761-1.405-2.345-1.654-3.36-2.79 1.192.218.884-1.374-.023-1.556-.573-.363.34-.892.388-1.38.323.399.744.627 1.251.222-.263-.802.13-1.615.014-2.429-.23.225-.174.79-.476.846-.957-.347-.033.848.033 1.301-1.062.11-.746-1.707-1.704-2.03-.101-1.12 1.204 1.041 1.205.1-.517-.835-.228-1.747.154-2.553-.41.09-1.019-.533-1.21.003-.166.705-.977-.392-.48-.681.75-.963-.804-1.858-.81-2.783.425-.53.72.3.706.678 1.053.127-.057-2.187-.28-1.1-.63-.221-.026-2.214.417-1.998-.212-.297-.43-.593-.593-.922 1.168.462.206-1.194.282-1.697.237-.569-.096-2.056.858-1.349.348-1.073.479.33 1.014.444 1.241-.04 1.613 1.669 2.615.35.38.436 1.09 1.273 1.63.562-.404-.601.315-.726.252-.024 1.442.909 3.022 1.615 4.687 1.865.555.64 1.768.143 1.864-.635-.002-.296-.023-.594-.038-.89 1.312 2.189 2.305 4.607 3.79 6.709.166 2.592.16 5.351-.941 7.733.093-.65.412-1.834-.544-1.94-.842-.255-.31 1.46-1.1.607.447.822-1.035.142-.657-.443.332-.727-.622-1.305-.58-2.055-.787-.56.527-1.405-.238-2.036-.522-.669-1.1.527-1.285-.62-.428-.43-.216 1.277.545 1.047.154.68-.674.955-.942 1.477-.295-1.743-.573.934-1.001 1.113.08-.81-1.144-1.297-.44-2.053.22.204.41.482.732.521-.802-.969.07-2.216.914-2.795-.685.49-.216-.3-.259-.7-.224.427-.461.596-.911.573.963.609-.718.884-.375 1.677-.545-.735-.585-.232-.278.616-1.282.302-.265 2.34-.568 3.293-.315-.179-.647-.4-.302-.74-.073-.496-1.425.115-.657.624-.075.587-.42 1.945-1.304 1.124-.339.647-.11 1.76.795 1.603.962.327-.875.757-.922-.068-.222-.965-1.326-.15-1.142.502.677.45.104 1.126-.205 1.622-.467-.085-.215-.862-.76-.636-.484-.084.089-.826.464-.588-.08-1.277-1.279-.182-1.964-.945-.753-.063.145.603.26.918.383 1.1 1.73 1.014 1.478 2.306Z" fill="#23233F"/><path d="M87.092 9.747c-.016.713-.695 1.158-1.127.45.453-.082.815-.377 1.031-.777.408.306.905.567 1.42.355-.016-.428.17-.435.479-.194-.101-.498-.25-.972.396-.916-.162-.287-.464-.513-.534-.838 1.005-.653-.318-2.072.04-2.906 1.662 2.524 3.492 5.214 4.76 8.026.014.297.035.594.037.89-.32.185-1.085.613-.946-.09.389-.666-.2-.631-.645-.343-.402.832-.98-.248-1.371-.57-.023.348.004.697.015 1.045-.368-.195-.845-.422-.851-.903-.609.206-1.001-.86-1.728-.996-.802-.008-1.075-.998-.674-1.581.252.325.402.805.861.885-.175-.629-.515-1.295-1.163-1.537Z" fill="#3D3D6D"/></svg>